<svg width="130" height="33" viewBox="0 0 130 33" fill="none" xmlns="http://www.w3.org/2000/svg">
<path d="M19.2905 15.4659C19.3045 14.3778 19.5936 13.3109 20.1307 12.3645C20.6678 11.4181 21.4356 10.623 22.3626 10.053C21.7737 9.21197 20.9968 8.51981 20.0936 8.03152C19.1904 7.54324 18.1858 7.27228 17.1596 7.24018C14.9704 7.01039 12.8481 8.55012 11.7326 8.55012C10.5955 8.55012 8.87791 7.26299 7.02838 7.30104C5.83206 7.33969 4.66614 7.68758 3.64424 8.3108C2.62234 8.93402 1.7793 9.81132 1.19726 10.8572C-1.324 15.2224 0.556635 21.6377 2.97179 25.1662C4.18014 26.894 5.59236 28.824 7.44022 28.7555C9.24846 28.6805 9.9238 27.6025 12.1065 27.6025C14.2689 27.6025 14.9026 28.7555 16.7879 28.712C18.7282 28.6805 19.9507 26.9765 21.1167 25.2324C21.9849 24.0013 22.653 22.6406 23.0962 21.2008C21.9689 20.7241 21.0069 19.926 20.3302 18.9062C19.6534 17.8863 19.2918 16.6898 19.2905 15.4659Z" fill="#1A2422" style="fill:#1A2422;fill:color(display-p3 0.1020 0.1412 0.1333);fill-opacity:1;"/>
<path d="M15.7324 4.91969C16.7903 3.64966 17.3115 2.01726 17.1853 0.369141C15.569 0.538903 14.076 1.31139 13.0038 2.53269C12.4795 3.12933 12.078 3.82344 11.8221 4.57534C11.5663 5.32725 11.4612 6.1222 11.5128 6.91476C12.3212 6.92309 13.121 6.74786 13.8519 6.40228C14.5828 6.0567 15.2258 5.54977 15.7324 4.91969Z" fill="#1A2422" style="fill:#1A2422;fill:color(display-p3 0.1020 0.1412 0.1333);fill-opacity:1;"/>
<path d="M42.1491 24.3813H35.9784L34.4965 28.757H31.8828L37.7276 12.5682H40.4431L46.2879 28.757H43.6296L42.1491 24.3813ZM36.6174 22.3622H41.5087L39.0975 15.2609H39.03L36.6174 22.3622Z" fill="#1A2422" style="fill:#1A2422;fill:color(display-p3 0.1020 0.1412 0.1333);fill-opacity:1;"/>
<path d="M58.9149 22.8558C58.9149 26.5235 56.9517 28.88 53.9893 28.88C53.2388 28.9193 52.4925 28.7464 51.8357 28.3812C51.1789 28.016 50.6383 27.4732 50.2756 26.8151H50.2196V32.6611H47.7969V16.9537H50.142V18.9168H50.1865C50.5658 18.2617 51.1156 17.7218 51.7774 17.3544C52.4391 16.9869 53.1882 16.8058 53.9447 16.8302C56.9402 16.8302 58.9149 19.1981 58.9149 22.8558ZM56.4247 22.8558C56.4247 20.4662 55.1898 18.8951 53.3056 18.8951C51.4545 18.8951 50.2094 20.4992 50.2094 22.8558C50.2094 25.2339 51.4545 26.8265 53.3056 26.8265C55.1898 26.8265 56.4247 25.267 56.4247 22.8558Z" fill="#1A2422" style="fill:#1A2422;fill:color(display-p3 0.1020 0.1412 0.1333);fill-opacity:1;"/>
<path d="M71.8992 22.8557C71.8992 26.5235 69.9361 28.88 66.9736 28.88C66.2232 28.9193 65.4768 28.7464 64.8201 28.3812C64.1633 28.016 63.6226 27.4732 63.26 26.815H63.204V32.6611H60.7812V16.9537H63.1263V18.9168H63.1708C63.5501 18.2617 64.0999 17.7218 64.7617 17.3544C65.4235 16.9869 66.1725 16.8058 66.929 16.8302C69.9247 16.8302 71.8992 19.1981 71.8992 22.8557ZM69.4091 22.8557C69.4091 20.4661 68.1741 18.8951 66.29 18.8951C64.4389 18.8951 63.1938 20.4992 63.1938 22.8557C63.1938 25.2339 64.4389 26.8265 66.29 26.8265C68.1742 26.8265 69.4091 25.267 69.4091 22.8557Z" fill="#1A2422" style="fill:#1A2422;fill:color(display-p3 0.1020 0.1412 0.1333);fill-opacity:1;"/>
<path d="M80.4878 24.2469C80.6674 25.8523 82.2269 26.9063 84.3581 26.9063C86.4001 26.9063 87.8692 25.8522 87.8692 24.4047C87.8692 23.1482 86.9832 22.3958 84.8851 21.8802L82.7871 21.3747C79.8144 20.6567 78.4343 19.2665 78.4343 17.0106C78.4343 14.2174 80.8685 12.2988 84.325 12.2988C87.7457 12.2988 90.0908 14.2174 90.1697 17.0106H87.7241C87.5777 15.395 86.2422 14.4198 84.2905 14.4198C82.3389 14.4198 81.0034 15.4065 81.0034 16.8425C81.0034 17.987 81.8564 18.6605 83.943 19.176L85.7266 19.614C89.0481 20.3995 90.4281 21.7337 90.4281 24.1017C90.4281 27.1303 88.0156 29.0273 84.1785 29.0273C80.5884 29.0273 78.1644 27.1749 78.0078 24.2468L80.4878 24.2469Z" fill="#1A2422" style="fill:#1A2422;fill:color(display-p3 0.1020 0.1412 0.1333);fill-opacity:1;"/>
<path d="M95.6503 14.162V16.9552H97.8947V18.8737H95.6503V25.3805C95.6503 26.3913 96.0997 26.8624 97.0863 26.8624C97.3528 26.8577 97.6188 26.839 97.8833 26.8063V28.7134C97.4397 28.7963 96.9888 28.8338 96.5376 28.8255C94.148 28.8255 93.2161 27.9279 93.2161 25.6389V18.8737H91.5V16.9552H93.2161V14.162H95.6503Z" fill="#1A2422" style="fill:#1A2422;fill:color(display-p3 0.1020 0.1412 0.1333);fill-opacity:1;"/>
<path d="M99.2031 22.8557C99.2031 19.1421 101.39 16.8085 104.801 16.8085C108.223 16.8085 110.4 19.142 110.4 22.8557C110.4 26.5795 108.234 28.9029 104.801 28.9029C101.369 28.9029 99.2031 26.5795 99.2031 22.8557ZM107.931 22.8557C107.931 20.3082 106.764 18.8047 104.801 18.8047C102.838 18.8047 101.672 20.3197 101.672 22.8557C101.672 25.4133 102.838 26.9054 104.801 26.9054C106.764 26.9054 107.931 25.4133 107.931 22.8557Z" fill="#1A2422" style="fill:#1A2422;fill:color(display-p3 0.1020 0.1412 0.1333);fill-opacity:1;"/>
<path d="M112.391 16.9536H114.701V18.9625H114.757C114.914 18.3351 115.281 17.7806 115.798 17.3922C116.315 17.0039 116.95 16.8054 117.596 16.8301C117.876 16.8291 118.154 16.8594 118.426 16.9205V19.1866C118.074 19.0789 117.706 19.0294 117.338 19.0402C116.986 19.0259 116.635 19.0879 116.309 19.2221C115.984 19.3562 115.691 19.5592 115.451 19.8172C115.211 20.0752 115.03 20.382 114.92 20.7166C114.81 21.0512 114.773 21.4057 114.813 21.7557V28.7564H112.391L112.391 16.9536Z" fill="#1A2422" style="fill:#1A2422;fill:color(display-p3 0.1020 0.1412 0.1333);fill-opacity:1;"/>
<path d="M129.6 25.2898C129.274 27.4324 127.188 28.9029 124.518 28.9029C121.084 28.9029 118.953 26.6024 118.953 22.9117C118.953 19.2095 121.096 16.8085 124.416 16.8085C127.681 16.8085 129.735 19.0517 129.735 22.6303V23.4604H121.399V23.6068C121.36 24.0412 121.415 24.4788 121.558 24.8905C121.702 25.3023 121.932 25.6787 122.232 25.9949C122.532 26.3111 122.896 26.5598 123.3 26.7245C123.704 26.8891 124.138 26.966 124.574 26.9499C125.146 27.0036 125.721 26.871 126.212 26.5719C126.703 26.2728 127.085 25.8231 127.3 25.2898L129.6 25.2898ZM121.41 21.7672H127.311C127.333 21.3766 127.274 20.9858 127.137 20.6192C127.001 20.2526 126.79 19.9181 126.518 19.6368C126.246 19.3556 125.919 19.1335 125.557 18.9846C125.196 18.8357 124.807 18.7632 124.416 18.7716C124.021 18.7692 123.63 18.845 123.265 18.9946C122.9 19.1442 122.568 19.3646 122.289 19.6431C122.009 19.9216 121.788 20.2527 121.637 20.6173C121.486 20.9818 121.409 21.3726 121.41 21.7672Z" fill="#1A2422" style="fill:#1A2422;fill:color(display-p3 0.1020 0.1412 0.1333);fill-opacity:1;"/>
<path d="M36.3097 0.383827C36.8176 0.347378 37.3273 0.424111 37.802 0.60849C38.2767 0.792869 38.7045 1.0803 39.0546 1.45005C39.4048 1.81979 39.6685 2.26264 39.8268 2.74665C39.985 3.23066 40.0339 3.74376 39.9699 4.24894C39.9699 6.73402 38.6268 8.16249 36.3097 8.16249H33.5V0.383827H36.3097ZM34.7082 7.06242H36.1748C36.5377 7.08412 36.9009 7.02461 37.238 6.88823C37.575 6.75185 37.8774 6.54203 38.1231 6.27404C38.3689 6.00606 38.5517 5.68665 38.6585 5.33908C38.7652 4.9915 38.793 4.6245 38.74 4.26479C38.7892 3.90651 38.7585 3.54178 38.6501 3.19675C38.5418 2.85172 38.3585 2.53493 38.1133 2.26908C37.8681 2.00322 37.5672 1.79489 37.232 1.659C36.8969 1.52312 36.5359 1.46304 36.1748 1.48308H34.7082V7.06242Z" fill="#1A2422" style="fill:#1A2422;fill:color(display-p3 0.1020 0.1412 0.1333);fill-opacity:1;"/>
<path d="M41.3334 5.22551C41.2965 4.83973 41.3406 4.4505 41.463 4.08278C41.5853 3.71507 41.7831 3.37697 42.0438 3.09019C42.3044 2.80341 42.6222 2.57428 42.9766 2.41748C43.331 2.26068 43.7142 2.17969 44.1018 2.17969C44.4893 2.17969 44.8725 2.26068 45.2269 2.41748C45.5813 2.57428 45.8991 2.80341 46.1597 3.09019C46.4204 3.37697 46.6182 3.71507 46.7405 4.08278C46.8629 4.4505 46.907 4.83973 46.8701 5.22551C46.9077 5.61168 46.8641 6.00144 46.7421 6.36976C46.6201 6.73807 46.4224 7.07678 46.1616 7.36412C45.9009 7.65147 45.583 7.88108 45.2282 8.03822C44.8735 8.19535 44.4897 8.27653 44.1018 8.27653C43.7138 8.27653 43.3301 8.19535 42.9753 8.03822C42.6205 7.88108 42.3026 7.65147 42.0419 7.36412C41.7811 7.07678 41.5834 6.73807 41.4614 6.36976C41.3394 6.00144 41.2958 5.61168 41.3334 5.22551ZM45.6785 5.22551C45.6785 3.95305 45.1068 3.20893 44.1037 3.20893C43.0966 3.20893 42.5302 3.95305 42.5302 5.22552C42.5302 6.50817 43.0967 7.24655 44.1037 7.24655C45.1069 7.24654 45.6785 6.50306 45.6785 5.22551Z" fill="#1A2422" style="fill:#1A2422;fill:color(display-p3 0.1020 0.1412 0.1333);fill-opacity:1;"/>
<path d="M54.2265 8.16126H53.0247L51.8114 3.83782H51.7198L50.5116 8.16126H49.3212L47.7031 2.29102H48.8782L49.9298 6.77035H50.0163L51.2232 2.29102H52.3347L53.5415 6.77035H53.6332L54.6797 2.29102H55.8382L54.2265 8.16126Z" fill="#1A2422" style="fill:#1A2422;fill:color(display-p3 0.1020 0.1412 0.1333);fill-opacity:1;"/>
<path d="M57.2031 2.29292H58.3184V3.22546H58.4049C58.5518 2.89052 58.7995 2.60976 59.1135 2.42228C59.4275 2.23481 59.7922 2.14998 60.1567 2.17961C60.4423 2.15813 60.7291 2.2012 60.9959 2.30562C61.2626 2.41003 61.5024 2.57313 61.6975 2.78281C61.8927 2.99249 62.0381 3.24339 62.1231 3.51693C62.2081 3.79046 62.2305 4.07961 62.1886 4.36296V8.1631H61.0301V4.65388C61.0301 3.71052 60.6201 3.24138 59.7633 3.24138C59.5694 3.23235 59.3758 3.26535 59.1958 3.33813C59.0158 3.41092 58.8537 3.52176 58.7206 3.66305C58.5875 3.80435 58.4865 3.97276 58.4245 4.15674C58.3625 4.34073 58.3411 4.53594 58.3616 4.72898V8.16316H57.2031L57.2031 2.29292Z" fill="#1A2422" style="fill:#1A2422;fill:color(display-p3 0.1020 0.1412 0.1333);fill-opacity:1;"/>
<path d="M64.0312 0H65.1898V8.16181H64.0312V0Z" fill="#1A2422" style="fill:#1A2422;fill:color(display-p3 0.1020 0.1412 0.1333);fill-opacity:1;"/>
<path d="M66.8021 5.22562C66.7652 4.83982 66.8094 4.45057 66.9318 4.08283C67.0541 3.7151 67.252 3.377 67.5127 3.09021C67.7734 2.80342 68.0911 2.57428 68.4455 2.41748C68.8 2.26068 69.1832 2.17969 69.5708 2.17969C69.9584 2.17969 70.3416 2.26068 70.6961 2.41748C71.0505 2.57428 71.3682 2.80342 71.6289 3.09021C71.8896 3.377 72.0874 3.7151 72.2098 4.08283C72.3322 4.45057 72.3763 4.83982 72.3395 5.22562C72.377 5.6118 72.3334 6.00157 72.2113 6.36988C72.0893 6.7382 71.8915 7.0769 71.6308 7.36423C71.37 7.65157 71.052 7.88118 70.6973 8.03831C70.3425 8.19543 69.9588 8.27661 69.5708 8.27661C69.1828 8.27661 68.7991 8.19543 68.4443 8.03831C68.0895 7.88118 67.7716 7.65157 67.5108 7.36423C67.2501 7.0769 67.0523 6.7382 66.9303 6.36988C66.8082 6.00157 66.7646 5.6118 66.8021 5.22562ZM71.1472 5.22562C71.1472 3.95316 70.5756 3.20904 69.5724 3.20904C68.5654 3.20904 67.9989 3.95316 67.9989 5.22563C67.9989 6.50828 68.5654 7.24666 69.5724 7.24666C70.5756 7.24665 71.1472 6.50317 71.1472 5.22562Z" fill="#1A2422" style="fill:#1A2422;fill:color(display-p3 0.1020 0.1412 0.1333);fill-opacity:1;"/>
<path d="M73.5625 6.50311C73.5625 5.44644 74.3493 4.83727 75.7458 4.75069L77.336 4.65903V4.15234C77.336 3.53234 76.926 3.18225 76.1342 3.18225C75.4874 3.18225 75.0393 3.41968 74.9107 3.83471H73.7891C73.9075 2.82642 74.856 2.17969 76.1876 2.17969C77.6593 2.17969 78.4894 2.91234 78.4894 4.15234V8.16323H77.3741V7.33827H77.2825C77.0964 7.63419 76.8352 7.87543 76.5254 8.03735C76.2156 8.19928 75.8684 8.27609 75.5192 8.25995C75.2728 8.28558 75.0237 8.25929 74.7881 8.18277C74.5524 8.10625 74.3354 7.98119 74.1511 7.81567C73.9667 7.65014 73.8191 7.44782 73.7177 7.22175C73.6163 6.99568 73.5635 6.75087 73.5625 6.50311ZM77.336 6.00151V5.51073L75.9024 5.60239C75.094 5.6565 74.7274 5.93149 74.7274 6.449C74.7274 6.97733 75.1857 7.28478 75.8159 7.28478C76.0006 7.30347 76.1871 7.28483 76.3644 7.22996C76.5417 7.17508 76.7062 7.08511 76.848 6.96538C76.9898 6.84565 77.1061 6.69862 77.1899 6.53303C77.2737 6.36744 77.3234 6.18668 77.336 6.00151Z" fill="#1A2422" style="fill:#1A2422;fill:color(display-p3 0.1020 0.1412 0.1333);fill-opacity:1;"/>
<path d="M80.0077 5.22417C80.0077 3.36927 80.9612 2.1942 82.4444 2.1942C82.8113 2.17729 83.1754 2.26516 83.4941 2.44754C83.8129 2.62991 84.0732 2.89925 84.2446 3.22408H84.3311V0H85.4896V8.16181H84.3795V7.23435H84.2878C84.1032 7.557 83.8339 7.82299 83.509 8.00352C83.184 8.18405 82.8159 8.27225 82.4444 8.25855C80.9511 8.25862 80.0077 7.08352 80.0077 5.22417ZM81.2044 5.22417C81.2044 6.46926 81.7913 7.21848 82.7729 7.21848C83.7493 7.21848 84.3528 6.45845 84.3528 5.22926C84.3528 4.00581 83.743 3.23495 82.7729 3.23495C81.7977 3.23495 81.2044 3.98926 81.2044 5.22417Z" fill="#1A2422" style="fill:#1A2422;fill:color(display-p3 0.1020 0.1412 0.1333);fill-opacity:1;"/>
<path d="M90.2865 5.22551C90.2496 4.83973 90.2938 4.4505 90.4161 4.08278C90.5384 3.71507 90.7363 3.37697 90.9969 3.09019C91.2576 2.80341 91.5753 2.57428 91.9297 2.41748C92.2841 2.26068 92.6673 2.17969 93.0549 2.17969C93.4424 2.17969 93.8257 2.26068 94.1801 2.41748C94.5345 2.57428 94.8522 2.80341 95.1128 3.09019C95.3735 3.37697 95.5713 3.71507 95.6937 4.08278C95.816 4.4505 95.8601 4.83973 95.8232 5.22551C95.8608 5.61168 95.8172 6.00144 95.6952 6.36976C95.5732 6.73807 95.3755 7.07678 95.1148 7.36412C94.854 7.65147 94.5361 7.88108 94.1813 8.03822C93.8266 8.19535 93.4429 8.27653 93.0549 8.27653C92.6669 8.27653 92.2832 8.19535 91.9284 8.03822C91.5737 7.88108 91.2557 7.65147 90.995 7.36412C90.7343 7.07678 90.5366 6.73807 90.4145 6.36976C90.2925 6.00144 90.2489 5.61168 90.2865 5.22551ZM94.6316 5.22551C94.6316 3.95305 94.06 3.20893 93.0568 3.20893C92.0498 3.20893 91.4833 3.95305 91.4833 5.22552C91.4833 6.50817 92.0498 7.24655 93.0568 7.24655C94.06 7.24654 94.6316 6.50306 94.6316 5.22551Z" fill="#1A2422" style="fill:#1A2422;fill:color(display-p3 0.1020 0.1412 0.1333);fill-opacity:1;"/>
<path d="M97.375 2.29292H98.4902V3.22546H98.5768C98.7237 2.89052 98.9714 2.60976 99.2854 2.42228C99.5994 2.23481 99.9641 2.14998 100.329 2.17961C100.614 2.15813 100.901 2.2012 101.168 2.30562C101.434 2.41003 101.674 2.57313 101.869 2.78281C102.065 2.99249 102.21 3.24339 102.295 3.51693C102.38 3.79046 102.402 4.07961 102.36 4.36296V8.1631H101.202V4.65388C101.202 3.71052 100.792 3.24138 99.9352 3.24138C99.7413 3.23235 99.5477 3.26535 99.3677 3.33813C99.1877 3.41092 99.0256 3.52176 98.8925 3.66305C98.7593 3.80435 98.6583 3.97276 98.5964 4.15674C98.5344 4.34073 98.513 4.53594 98.5335 4.72898V8.16316H97.375V2.29292Z" fill="#1A2422" style="fill:#1A2422;fill:color(display-p3 0.1020 0.1412 0.1333);fill-opacity:1;"/>
<path d="M108.904 0.830078V2.31832H110.176V3.29416H108.904V6.31267C108.904 6.92757 109.158 7.19683 109.734 7.19683C109.882 7.19635 110.029 7.18743 110.176 7.17009V8.13509C109.968 8.17231 109.757 8.19211 109.546 8.19429C108.257 8.19429 107.744 7.74106 107.744 6.60929V3.29411H106.812V2.31827H107.744V0.830078H108.904Z" fill="#1A2422" style="fill:#1A2422;fill:color(display-p3 0.1020 0.1412 0.1333);fill-opacity:1;"/>
<path d="M111.766 0H112.914V3.23494H113.006C113.16 2.89688 113.414 2.61452 113.734 2.42634C114.055 2.23816 114.425 2.15332 114.796 2.18336C115.08 2.1679 115.364 2.21534 115.627 2.3223C115.891 2.42925 116.128 2.59308 116.321 2.80211C116.514 3.01113 116.659 3.2602 116.745 3.53153C116.83 3.80287 116.855 4.08978 116.817 4.37181V8.16182H115.658V4.65761C115.658 3.71998 115.221 3.24511 114.402 3.24511C114.203 3.22878 114.003 3.25615 113.815 3.32532C113.628 3.39448 113.458 3.50376 113.317 3.64552C113.176 3.78727 113.068 3.95808 113 4.14598C112.932 4.33389 112.906 4.53435 112.924 4.73336V8.1618H111.766L111.766 0Z" fill="#1A2422" style="fill:#1A2422;fill:color(display-p3 0.1020 0.1412 0.1333);fill-opacity:1;"/>
<path d="M123.569 6.57649C123.412 7.113 123.071 7.57708 122.606 7.88754C122.141 8.198 121.582 8.33508 121.026 8.2748C120.639 8.28501 120.255 8.21093 119.899 8.05772C119.544 7.9045 119.227 7.67581 118.969 7.38753C118.711 7.09924 118.518 6.75826 118.405 6.38826C118.292 6.01825 118.261 5.62809 118.314 5.24484C118.263 4.86041 118.294 4.46941 118.407 4.0983C118.52 3.72718 118.711 3.38463 118.968 3.09382C119.224 2.80301 119.54 2.57073 119.895 2.41272C120.249 2.25471 120.633 2.17465 121.021 2.17795C122.654 2.17795 123.639 3.29388 123.639 5.13724V5.54149H119.494V5.60641C119.476 5.82183 119.503 6.03867 119.574 6.24301C119.644 6.44736 119.757 6.63471 119.904 6.79304C120.051 6.95138 120.23 7.07721 120.428 7.16246C120.627 7.24772 120.841 7.29052 121.058 7.28812C121.335 7.32139 121.615 7.27149 121.864 7.14476C122.113 7.01804 122.318 6.82022 122.454 6.57646L123.569 6.57649ZM119.494 4.68468H122.459C122.474 4.48766 122.447 4.28977 122.381 4.10371C122.314 3.91766 122.21 3.74756 122.074 3.60434C121.937 3.46113 121.773 3.34796 121.59 3.27212C121.408 3.19628 121.212 3.15944 121.014 3.16397C120.814 3.16145 120.615 3.19907 120.429 3.27461C120.244 3.35015 120.075 3.46208 119.934 3.60381C119.792 3.74553 119.68 3.91418 119.605 4.09981C119.529 4.28545 119.492 4.48431 119.494 4.68468Z" fill="#1A2422" style="fill:#1A2422;fill:color(display-p3 0.1020 0.1412 0.1333);fill-opacity:1;"/>
</svg>
