<svg width="810" height="700" viewBox="0 0 810 700" fill="none" xmlns="http://www.w3.org/2000/svg">
<path d="M809.999 29.1135V38.5483H807.234V38.0755H809.484V29.5863H807.234V29.1135H809.999Z" fill="#5FDDC7" fill-opacity="0.5" style="fill:#5FDDC7;fill:color(display-p3 0.3725 0.8667 0.7804);fill-opacity:0.5;"/>
<path d="M802.457 38.5483V29.1135H805.221V29.5863H802.972V38.0755H805.221V38.5483H802.457Z" fill="#5FDDC7" fill-opacity="0.5" style="fill:#5FDDC7;fill:color(display-p3 0.3725 0.8667 0.7804);fill-opacity:0.5;"/>
<path d="M796.428 35.9111H797.437L796.376 38.7058H795.871L796.428 35.9111ZM796.775 32.7277C796.551 32.7277 796.393 32.6822 796.302 32.5911C796.211 32.5001 796.165 32.381 796.165 32.2339V32.0868C796.165 31.9467 796.211 31.8312 796.302 31.7401C796.393 31.642 796.551 31.593 796.775 31.593C796.999 31.593 797.157 31.642 797.248 31.7401C797.339 31.8312 797.385 31.9467 797.385 32.0868V32.2339C797.385 32.381 797.339 32.5001 797.248 32.5911C797.157 32.6822 796.999 32.7277 796.775 32.7277Z" fill="#5FDDC7" fill-opacity="0.5" style="fill:#5FDDC7;fill:color(display-p3 0.3725 0.8667 0.7804);fill-opacity:0.5;"/>
<path d="M792.564 33.9359L790.472 30.3007H790.441L788.36 33.9359L787.887 33.7048L790.136 29.7649H790.809L793.058 33.7048L792.564 33.9359Z" fill="#5FDDC7" fill-opacity="0.5" style="fill:#5FDDC7;fill:color(display-p3 0.3725 0.8667 0.7804);fill-opacity:0.5;"/>
<path d="M215.323 589.642L215.124 586.984V584.525H215.775V586.984L215.576 589.642H215.323ZM215.449 591.932C215.225 591.932 215.068 591.887 214.976 591.796C214.885 591.705 214.84 591.586 214.84 591.439V591.292C214.84 591.151 214.885 591.036 214.976 590.945C215.068 590.847 215.225 590.798 215.449 590.798C215.674 590.798 215.831 590.847 215.922 590.945C216.014 591.036 216.059 591.151 216.059 591.292V591.439C216.059 591.586 216.014 591.705 215.922 591.796C215.831 591.887 215.674 591.932 215.449 591.932Z" fill="#5FDDC7" fill-opacity="0.5" style="fill:#5FDDC7;fill:color(display-p3 0.3725 0.8667 0.7804);fill-opacity:0.5;"/>
<path d="M206.887 590.977L210.828 588.686V588.634L206.887 586.343V585.713L211.406 588.361V588.949L206.887 591.596V590.977Z" fill="#5FDDC7" fill-opacity="0.5" style="fill:#5FDDC7;fill:color(display-p3 0.3725 0.8667 0.7804);fill-opacity:0.5;"/>
<path d="M200.582 588.949V588.361L205.102 585.713V586.333L201.16 588.623V588.676L205.102 590.966V591.596L200.582 588.949Z" fill="#5FDDC7" fill-opacity="0.5" style="fill:#5FDDC7;fill:color(display-p3 0.3725 0.8667 0.7804);fill-opacity:0.5;"/>
<path d="M198.63 588.696L196.539 585.061H196.507L194.426 588.696L193.953 588.465L196.202 584.525H196.875L199.124 588.465L198.63 588.696Z" fill="#5FDDC7" fill-opacity="0.5" style="fill:#5FDDC7;fill:color(display-p3 0.3725 0.8667 0.7804);fill-opacity:0.5;"/>
<path d="M434.918 672.861V672.347H439.921V672.861H434.918ZM434.918 674.868V674.353H439.921V674.868H434.918Z" fill="#5FDDC7" fill-opacity="0.5" style="fill:#5FDDC7;fill:color(display-p3 0.3725 0.8667 0.7804);fill-opacity:0.5;"/>
<path d="M430.855 678.273V668.838H431.381V678.273H430.855Z" fill="#5FDDC7" fill-opacity="0.5" style="fill:#5FDDC7;fill:color(display-p3 0.3725 0.8667 0.7804);fill-opacity:0.5;"/>
<path d="M424.725 668.838C424.943 668.838 425.104 668.897 425.209 669.016C425.321 669.136 425.377 669.29 425.377 669.479V670.319C425.377 670.515 425.356 670.687 425.314 670.834C425.279 670.981 425.234 671.111 425.177 671.223C425.128 671.328 425.069 671.422 424.999 671.507C424.936 671.584 424.88 671.657 424.831 671.727C424.69 671.895 424.596 672.032 424.547 672.137C424.498 672.242 424.473 672.354 424.473 672.473C424.473 672.767 424.606 672.984 424.873 673.124C425.146 673.258 425.538 673.324 426.05 673.324H426.828V673.786H426.05C425.538 673.786 425.146 673.856 424.873 673.997C424.606 674.13 424.473 674.343 424.473 674.637C424.473 674.756 424.498 674.869 424.547 674.974C424.596 675.079 424.69 675.215 424.831 675.383C424.88 675.453 424.936 675.53 424.999 675.615C425.069 675.692 425.128 675.786 425.177 675.898C425.234 676.003 425.279 676.129 425.314 676.276C425.356 676.424 425.377 676.595 425.377 676.791V677.632C425.377 677.821 425.321 677.975 425.209 678.094C425.104 678.213 424.943 678.273 424.725 678.273H422.812V677.8H424.852V676.823C424.852 676.655 424.838 676.511 424.81 676.392C424.789 676.273 424.757 676.171 424.715 676.087C424.673 675.996 424.624 675.916 424.568 675.846C424.519 675.776 424.47 675.709 424.421 675.646C424.281 675.464 424.165 675.296 424.074 675.142C423.99 674.988 423.948 674.816 423.948 674.627C423.948 674.326 424.056 674.084 424.274 673.902C424.491 673.72 424.778 673.611 425.135 673.576V673.534C424.778 673.499 424.491 673.391 424.274 673.209C424.056 673.026 423.948 672.785 423.948 672.484C423.948 672.294 423.99 672.123 424.074 671.969C424.165 671.815 424.281 671.647 424.421 671.464C424.47 671.401 424.519 671.335 424.568 671.265C424.624 671.195 424.673 671.118 424.715 671.034C424.757 670.943 424.789 670.838 424.81 670.719C424.838 670.599 424.852 670.456 424.852 670.288V669.311H422.812V668.838H424.725Z" fill="#5FDDC7" fill-opacity="0.5" style="fill:#5FDDC7;fill:color(display-p3 0.3725 0.8667 0.7804);fill-opacity:0.5;"/>
<path d="M418.61 678.273C418.393 678.273 418.228 678.213 418.116 678.094C418.011 677.975 417.958 677.821 417.958 677.632V676.791C417.958 676.595 417.976 676.424 418.011 676.276C418.053 676.129 418.098 676.003 418.148 675.898C418.204 675.786 418.263 675.692 418.326 675.615C418.389 675.53 418.449 675.453 418.505 675.383C418.645 675.215 418.74 675.079 418.789 674.974C418.838 674.869 418.862 674.756 418.862 674.637C418.862 674.343 418.726 674.13 418.452 673.997C418.186 673.856 417.797 673.786 417.286 673.786H416.508V673.324H417.286C417.797 673.324 418.186 673.258 418.452 673.124C418.726 672.984 418.862 672.767 418.862 672.473C418.862 672.354 418.838 672.242 418.789 672.137C418.74 672.032 418.645 671.895 418.505 671.727C418.449 671.657 418.389 671.584 418.326 671.507C418.263 671.422 418.204 671.328 418.148 671.223C418.098 671.111 418.053 670.981 418.011 670.834C417.976 670.687 417.958 670.515 417.958 670.319V669.479C417.958 669.29 418.011 669.136 418.116 669.016C418.228 668.897 418.393 668.838 418.61 668.838H420.523V669.311H418.484V670.288C418.484 670.456 418.494 670.599 418.515 670.719C418.543 670.838 418.578 670.943 418.621 671.034C418.663 671.118 418.708 671.195 418.757 671.265C418.813 671.335 418.866 671.401 418.915 671.464C419.055 671.647 419.167 671.815 419.251 671.969C419.342 672.123 419.388 672.294 419.388 672.484C419.388 672.785 419.279 673.026 419.062 673.209C418.845 673.391 418.557 673.499 418.2 673.534V673.576C418.557 673.611 418.845 673.72 419.062 673.902C419.279 674.084 419.388 674.326 419.388 674.627C419.388 674.816 419.342 674.988 419.251 675.142C419.167 675.296 419.055 675.464 418.915 675.646C418.866 675.709 418.813 675.776 418.757 675.846C418.708 675.916 418.663 675.996 418.621 676.087C418.578 676.171 418.543 676.273 418.515 676.392C418.494 676.511 418.484 676.655 418.484 676.823V677.8H420.523V678.273H418.61Z" fill="#5FDDC7" fill-opacity="0.5" style="fill:#5FDDC7;fill:color(display-p3 0.3725 0.8667 0.7804);fill-opacity:0.5;"/>
<path d="M526.793 591.31V581.875H529.557V582.348H527.308V590.837H529.557V591.31H526.793Z" fill="#5FDDC7" fill-opacity="0.5" style="fill:#5FDDC7;fill:color(display-p3 0.3725 0.8667 0.7804);fill-opacity:0.5;"/>
<path d="M521.729 581.875V591.31H518.965V590.837H521.214V582.348H518.965V581.875H521.729Z" fill="#5FDDC7" fill-opacity="0.5" style="fill:#5FDDC7;fill:color(display-p3 0.3725 0.8667 0.7804);fill-opacity:0.5;"/>
<path d="M513.945 586.592C513.945 586.067 514.001 585.57 514.113 585.1C514.233 584.631 514.387 584.197 514.576 583.798C514.772 583.391 515 583.027 515.259 582.705C515.525 582.376 515.806 582.099 516.1 581.875H516.731C516.422 582.106 516.132 582.379 515.858 582.694C515.592 583.003 515.357 583.346 515.154 583.724C514.958 584.095 514.8 584.495 514.681 584.922C514.569 585.342 514.513 585.783 514.513 586.246V586.939C514.513 587.401 514.569 587.846 514.681 588.273C514.8 588.694 514.958 589.093 515.154 589.471C515.357 589.842 515.592 590.182 515.858 590.49C516.132 590.805 516.422 591.079 516.731 591.31H516.1C515.806 591.086 515.525 590.809 515.259 590.48C515 590.158 514.772 589.797 514.576 589.398C514.387 588.991 514.233 588.554 514.113 588.084C514.001 587.615 513.945 587.118 513.945 586.592Z" fill="#5FDDC7" fill-opacity="0.5" style="fill:#5FDDC7;fill:color(display-p3 0.3725 0.8667 0.7804);fill-opacity:0.5;"/>
<path d="M509.367 586.592C509.367 587.118 509.308 587.615 509.189 588.084C509.077 588.554 508.922 588.991 508.726 589.398C508.537 589.797 508.309 590.158 508.043 590.48C507.784 590.809 507.507 591.086 507.213 591.31H506.582C506.89 591.079 507.178 590.805 507.444 590.49C507.717 590.182 507.952 589.842 508.148 589.471C508.351 589.093 508.509 588.694 508.621 588.273C508.74 587.846 508.8 587.401 508.8 586.939V586.246C508.8 585.783 508.74 585.342 508.621 584.922C508.509 584.495 508.351 584.095 508.148 583.724C507.952 583.346 507.717 583.003 507.444 582.694C507.178 582.379 506.89 582.106 506.582 581.875H507.213C507.507 582.099 507.784 582.376 508.043 582.705C508.309 583.027 508.537 583.391 508.726 583.798C508.922 584.197 509.077 584.631 509.189 585.1C509.308 585.57 509.367 586.067 509.367 586.592Z" fill="#5FDDC7" fill-opacity="0.5" style="fill:#5FDDC7;fill:color(display-p3 0.3725 0.8667 0.7804);fill-opacity:0.5;"/>
<path d="M416.517 4.94838L414.426 1.31317H414.394L412.313 4.94838L411.84 4.71724L414.089 0.777344H414.762L417.011 4.71724L416.517 4.94838Z" fill="#5FDDC7" fill-opacity="0.5" style="fill:#5FDDC7;fill:color(display-p3 0.3725 0.8667 0.7804);fill-opacity:0.5;"/>
<path d="M407.859 9.56072V0.125977H408.385V9.56072H407.859Z" fill="#5FDDC7" fill-opacity="0.5" style="fill:#5FDDC7;fill:color(display-p3 0.3725 0.8667 0.7804);fill-opacity:0.5;"/>
<path d="M402.945 5.95788C402.713 5.95788 402.5 5.89132 402.304 5.75818C402.114 5.61803 401.918 5.42533 401.715 5.18008C401.533 4.96986 401.358 4.78416 401.189 4.623C401.028 4.45482 400.86 4.37074 400.685 4.37074C400.447 4.37074 400.243 4.50387 400.075 4.77015C399.914 5.03643 399.791 5.40431 399.707 5.8738L399.234 5.76869C399.332 5.18708 399.504 4.7246 399.749 4.38125C399.995 4.03789 400.31 3.86621 400.695 3.86621C400.927 3.86621 401.137 3.93628 401.326 4.07643C401.522 4.20957 401.722 4.39876 401.925 4.64402C402.107 4.85424 402.279 5.04343 402.44 5.21161C402.608 5.37278 402.78 5.45336 402.955 5.45336C403.193 5.45336 403.393 5.32022 403.554 5.05395C403.723 4.78767 403.849 4.41979 403.933 3.9503L404.406 4.05541C404.308 4.63701 404.136 5.09949 403.891 5.44285C403.645 5.78621 403.33 5.95788 402.945 5.95788Z" fill="#5FDDC7" fill-opacity="0.5" style="fill:#5FDDC7;fill:color(display-p3 0.3725 0.8667 0.7804);fill-opacity:0.5;"/>
<path d="M394.391 0.273284L394.937 0L395.936 1.72379L395.536 1.91299L394.391 0.273284Z" fill="#5FDDC7" fill-opacity="0.5" style="fill:#5FDDC7;fill:color(display-p3 0.3725 0.8667 0.7804);fill-opacity:0.5;"/>
<path d="M587.956 85.5315L587.525 85.2163L588.965 83.2411L586.727 82.5161L586.884 82.0118L589.134 82.7263V80.3203H589.691V82.7263L591.929 82.0118L592.087 82.5161L589.848 83.2411L591.299 85.2163L590.857 85.5315L589.407 83.5353L587.956 85.5315Z" fill="#5FDDC7" fill-opacity="0.5" style="fill:#5FDDC7;fill:color(display-p3 0.3725 0.8667 0.7804);fill-opacity:0.5;"/>
<path d="M582.282 86.2028C581.967 86.2028 581.683 86.1538 581.431 86.0557C581.186 85.9506 580.975 85.8106 580.8 85.6355C580.632 85.4533 580.502 85.2432 580.411 85.0051C580.327 84.7599 580.285 84.4938 580.285 84.2066C580.285 84.0105 580.306 83.8143 580.348 83.6182C580.39 83.4151 580.464 83.219 580.569 83.0299C580.681 82.8408 580.825 82.6621 581 82.494C581.182 82.3259 581.41 82.1719 581.683 82.0318C581.48 81.7866 581.312 81.5275 581.179 81.2543C581.045 80.9741 580.979 80.6729 580.979 80.3507C580.979 80.0916 581.024 79.8569 581.116 79.6468C581.207 79.4297 581.329 79.2476 581.483 79.1005C581.645 78.9464 581.834 78.8273 582.051 78.7433C582.275 78.6592 582.513 78.6172 582.766 78.6172C582.99 78.6172 583.193 78.6487 583.375 78.7117C583.558 78.7748 583.719 78.8553 583.859 78.9534C584.006 79.0515 584.129 79.167 584.227 79.3001C584.325 79.4262 584.402 79.5558 584.458 79.6888L583.953 79.9515C583.855 79.7204 583.705 79.5277 583.501 79.3736C583.305 79.2125 583.053 79.132 582.745 79.132C582.38 79.132 582.093 79.2406 581.883 79.4577C581.68 79.6678 581.578 79.9515 581.578 80.3087V80.4243C581.578 80.6624 581.638 80.8971 581.757 81.1282C581.876 81.3594 582.058 81.6255 582.303 81.9267L584.216 84.2276H584.258C584.314 83.9684 584.353 83.6708 584.374 83.3346C584.402 82.9913 584.43 82.6026 584.458 82.1683H585.772V82.6832H584.963C584.92 83.0964 584.875 83.4501 584.826 83.7443C584.784 84.0385 584.707 84.3292 584.595 84.6163L585.835 86.0767H585.12L584.185 84.9736H584.143C584.003 85.3518 583.775 85.653 583.459 85.8771C583.144 86.0942 582.752 86.2028 582.282 86.2028ZM582.419 85.667C582.776 85.667 583.085 85.5864 583.344 85.4253C583.61 85.2642 583.817 85.0401 583.964 84.7529L581.967 82.389C581.567 82.6131 581.291 82.8723 581.137 83.1665C580.982 83.4606 580.905 83.7688 580.905 84.091V84.2801C580.905 84.6864 581.042 85.0191 581.315 85.2782C581.589 85.5374 581.956 85.667 582.419 85.667Z" fill="#5FDDC7" fill-opacity="0.5" style="fill:#5FDDC7;fill:color(display-p3 0.3725 0.8667 0.7804);fill-opacity:0.5;"/>
<path d="M578.494 87.2324H577.085C576.567 87.2324 576.136 87.1379 575.792 86.9488C575.449 86.7666 575.176 86.4935 574.972 86.1293C574.769 85.765 574.625 85.3203 574.541 84.7949C574.464 84.2626 574.426 83.6497 574.426 82.9563C574.426 82.1578 574.475 81.4819 574.573 80.9286C574.671 80.3753 574.818 79.9305 575.014 79.5943C575.211 79.2511 575.456 79.0024 575.75 78.8483C576.051 78.6942 576.405 78.6172 576.812 78.6172C577.218 78.6172 577.562 78.6872 577.842 78.8273C578.129 78.9604 578.36 79.146 578.536 79.3842C578.711 79.6153 578.837 79.8885 578.914 80.2037C578.991 80.5188 579.03 80.855 579.03 81.2123V85.0996H578.494V84.5008H578.451C578.374 84.6899 578.252 84.858 578.084 85.0051C577.915 85.1452 577.677 85.2152 577.369 85.2152C576.927 85.2152 576.577 85.0401 576.318 84.6899C576.065 84.3397 575.939 83.7758 575.939 82.9984C575.939 82.2209 576.065 81.657 576.318 81.3068C576.577 80.9566 576.927 80.7815 577.369 80.7815C577.677 80.7815 577.915 80.8515 578.084 80.9916C578.252 81.1317 578.374 81.2998 578.451 81.4959H578.494V81.2123C578.494 80.8971 578.462 80.6099 578.399 80.3507C578.343 80.0916 578.248 79.871 578.115 79.6888C577.982 79.4997 577.81 79.3561 577.6 79.2581C577.39 79.153 577.134 79.1005 576.833 79.1005C576.503 79.1005 576.223 79.167 575.992 79.3001C575.761 79.4262 575.571 79.6258 575.424 79.899C575.277 80.1721 575.169 80.5223 575.098 80.9496C575.028 81.3769 574.993 81.8882 574.993 82.4835V83.4922C574.993 83.9614 575.021 84.3957 575.077 84.7949C575.134 85.1872 575.239 85.5304 575.393 85.8246C575.547 86.1117 575.761 86.3359 576.034 86.497C576.307 86.6581 576.658 86.7386 577.085 86.7386H578.494V87.2324ZM577.548 84.7529C577.842 84.7529 578.073 84.6689 578.241 84.5008C578.409 84.3327 578.494 84.091 578.494 83.7758V82.2104C578.494 81.8952 578.409 81.6535 578.241 81.4854C578.073 81.3173 577.842 81.2333 577.548 81.2333C577.218 81.2333 576.962 81.3488 576.78 81.58C576.598 81.8041 576.507 82.1894 576.507 82.7357V83.261C576.507 83.8003 576.598 84.1856 576.78 84.4167C576.962 84.6409 577.218 84.7529 577.548 84.7529Z" fill="#5FDDC7" fill-opacity="0.5" style="fill:#5FDDC7;fill:color(display-p3 0.3725 0.8667 0.7804);fill-opacity:0.5;"/>
<path d="M570.496 86.1502C570.272 86.1502 570.114 86.1047 570.023 86.0136C569.932 85.9225 569.887 85.8035 569.887 85.6564V85.5093C569.887 85.3692 569.932 85.2536 570.023 85.1626C570.114 85.0645 570.272 85.0155 570.496 85.0155C570.721 85.0155 570.878 85.0645 570.969 85.1626C571.06 85.2536 571.106 85.3692 571.106 85.5093V85.6564C571.106 85.8035 571.06 85.9225 570.969 86.0136C570.878 86.1047 570.721 86.1502 570.496 86.1502ZM570.496 81.706C570.272 81.706 570.114 81.6605 570.023 81.5694C569.932 81.4783 569.887 81.3593 569.887 81.2122V81.0651C569.887 80.925 569.932 80.8094 570.023 80.7184C570.114 80.6203 570.272 80.5713 570.496 80.5713C570.721 80.5713 570.878 80.6203 570.969 80.7184C571.06 80.8094 571.106 80.925 571.106 81.0651V81.2122C571.106 81.3593 571.06 81.4783 570.969 81.5694C570.878 81.6605 570.721 81.706 570.496 81.706Z" fill="#5FDDC7" fill-opacity="0.5" style="fill:#5FDDC7;fill:color(display-p3 0.3725 0.8667 0.7804);fill-opacity:0.5;"/>
<path d="M20.6494 698.939C20.3341 698.939 20.0503 698.89 19.798 698.792C19.5528 698.687 19.3426 698.547 19.1674 698.372C18.9992 698.19 18.8696 697.98 18.7785 697.741C18.6944 697.496 18.6523 697.23 18.6523 696.943C18.6523 696.747 18.6734 696.551 18.7154 696.355C18.7575 696.151 18.831 695.955 18.9361 695.766C19.0483 695.577 19.1919 695.398 19.3671 695.23C19.5493 695.062 19.777 694.908 20.0503 694.768C19.8471 694.523 19.6789 694.264 19.5458 693.991C19.4126 693.71 19.3461 693.409 19.3461 693.087C19.3461 692.828 19.3916 692.593 19.4827 692.383C19.5738 692.166 19.6964 691.984 19.8506 691.837C20.0118 691.683 20.201 691.564 20.4182 691.48C20.6424 691.396 20.8807 691.354 21.1329 691.354C21.3572 691.354 21.5604 691.385 21.7426 691.448C21.9247 691.511 22.0859 691.592 22.2261 691.69C22.3732 691.788 22.4958 691.903 22.5939 692.036C22.692 692.163 22.7691 692.292 22.8252 692.425L22.3207 692.688C22.2226 692.457 22.0719 692.264 21.8687 692.11C21.6725 691.949 21.4202 691.868 21.1119 691.868C20.7475 691.868 20.4602 691.977 20.25 692.194C20.0468 692.404 19.9452 692.688 19.9452 693.045V693.161C19.9452 693.399 20.0047 693.633 20.1239 693.865C20.243 694.096 20.4252 694.362 20.6704 694.663L22.5834 696.964H22.6255C22.6815 696.705 22.7201 696.407 22.7411 696.071C22.7691 695.728 22.7972 695.339 22.8252 694.905H24.139V695.419H23.3297C23.2877 695.833 23.2421 696.186 23.1931 696.481C23.151 696.775 23.0739 697.065 22.9618 697.353L24.2021 698.813H23.4874L22.5519 697.71H22.5099C22.3697 698.088 22.142 698.389 21.8266 698.613C21.5113 698.831 21.1189 698.939 20.6494 698.939ZM20.7861 698.403C21.1434 698.403 21.4518 698.323 21.711 698.162C21.9773 698.001 22.184 697.776 22.3312 697.489L20.3341 695.125C19.9347 695.349 19.6579 695.609 19.5037 695.903C19.3496 696.197 19.2725 696.505 19.2725 696.827V697.016C19.2725 697.423 19.4091 697.755 19.6824 698.015C19.9557 698.274 20.3236 698.403 20.7861 698.403Z" fill="#5FDDC7" fill-opacity="0.5" style="fill:#5FDDC7;fill:color(display-p3 0.3725 0.8667 0.7804);fill-opacity:0.5;"/>
<path d="M13.8122 694.989C13.595 694.989 13.3918 694.954 13.2026 694.884C13.0204 694.807 12.8592 694.695 12.7191 694.547C12.5859 694.393 12.4808 694.204 12.4038 693.98C12.3267 693.749 12.2881 693.479 12.2881 693.171C12.2881 692.863 12.3267 692.597 12.4038 692.373C12.4808 692.141 12.5859 691.952 12.7191 691.805C12.8592 691.651 13.0204 691.539 13.2026 691.469C13.3918 691.392 13.595 691.354 13.8122 691.354C14.0294 691.354 14.2292 691.392 14.4113 691.469C14.5935 691.539 14.7512 691.651 14.8843 691.805C15.0245 691.952 15.1331 692.141 15.2102 692.373C15.2873 692.597 15.3258 692.863 15.3258 693.171C15.3258 693.479 15.2873 693.749 15.2102 693.98C15.1331 694.204 15.0245 694.393 14.8843 694.547C14.7512 694.695 14.5935 694.807 14.4113 694.884C14.2292 694.954 14.0294 694.989 13.8122 694.989ZM13.8122 694.568C14.0855 694.568 14.3167 694.474 14.5059 694.285C14.7021 694.089 14.8002 693.791 14.8002 693.392V692.95C14.8002 692.551 14.7021 692.257 14.5059 692.068C14.3167 691.872 14.0855 691.774 13.8122 691.774C13.5319 691.774 13.2937 691.872 13.0975 692.068C12.9083 692.257 12.8137 692.551 12.8137 692.95V693.392C12.8137 693.791 12.9083 694.089 13.0975 694.285C13.2937 694.474 13.5319 694.568 13.8122 694.568ZM17.5436 691.48H18.0902L16.3348 694.632H15.7883L17.5436 691.48ZM14.0014 695.661H14.548L12.7927 698.813H12.2461L14.0014 695.661ZM16.5451 698.939C16.3278 698.939 16.1246 698.901 15.9354 698.824C15.7462 698.754 15.5816 698.645 15.4414 698.498C15.3083 698.344 15.2032 698.155 15.1261 697.931C15.049 697.699 15.0105 697.43 15.0105 697.122C15.0105 696.813 15.049 696.547 15.1261 696.323C15.2032 696.092 15.3083 695.903 15.4414 695.756C15.5816 695.602 15.7427 695.49 15.9249 695.419C16.1141 695.342 16.3173 695.304 16.5346 695.304C16.7518 695.304 16.9515 695.342 17.1337 695.419C17.3159 695.49 17.4735 695.602 17.6067 695.756C17.7468 695.903 17.8554 696.092 17.9325 696.323C18.0096 696.547 18.0481 696.813 18.0481 697.122C18.0481 697.43 18.0096 697.699 17.9325 697.931C17.8554 698.155 17.7503 698.344 17.6172 698.498C17.484 698.645 17.3264 698.754 17.1442 698.824C16.962 698.901 16.7623 698.939 16.5451 698.939ZM16.5346 698.519C16.8078 698.519 17.0391 698.424 17.2283 698.235C17.4245 698.039 17.5226 697.741 17.5226 697.342V696.901C17.5226 696.502 17.4245 696.207 17.2283 696.018C17.0391 695.822 16.8078 695.724 16.5346 695.724C16.2543 695.724 16.016 695.822 15.8198 696.018C15.6306 696.207 15.536 696.502 15.536 696.901V697.342C15.536 697.741 15.6306 698.039 15.8198 698.235C16.016 698.424 16.2543 698.519 16.5346 698.519Z" fill="#5FDDC7" fill-opacity="0.5" style="fill:#5FDDC7;fill:color(display-p3 0.3725 0.8667 0.7804);fill-opacity:0.5;"/>
<path d="M7.40541 696.449H5.90234V695.945H7.5L7.7838 694.348H6.28074V693.843H7.86789L8.28832 691.479H8.8454L7.55256 698.813H6.99548L7.40541 696.449ZM10.1803 691.479H10.7374L10.3274 693.843H11.8305V694.348H10.2328L9.94905 695.945H11.4521V696.449H9.86496L9.44452 698.813H8.88745L10.1803 691.479Z" fill="#5FDDC7" fill-opacity="0.5" style="fill:#5FDDC7;fill:color(display-p3 0.3725 0.8667 0.7804);fill-opacity:0.5;"/>
<path d="M2.41751 698.928C1.81489 698.9 1.32438 698.774 0.945983 698.55C0.574597 698.326 0.259269 698.039 0 697.688L0.462481 697.31C0.714743 697.632 0.991531 697.888 1.29284 698.077C1.59416 698.259 1.96905 698.364 2.41751 698.392V695.325L2.12321 695.272C1.75883 695.209 1.45401 695.114 1.20876 694.988C0.970509 694.862 0.777808 694.712 0.630655 694.537C0.483502 694.361 0.378393 694.169 0.315328 693.959C0.259269 693.742 0.23124 693.517 0.23124 693.286C0.23124 692.684 0.423941 692.222 0.809341 691.899C1.20175 691.57 1.73781 691.392 2.41751 691.364V690.292H2.8905V691.364C3.40204 691.392 3.82948 691.504 4.17284 691.7C4.51619 691.889 4.807 692.148 5.04524 692.477L4.57225 692.824C4.37605 692.558 4.14481 692.348 3.87853 692.194C3.61926 692.04 3.28992 691.945 2.8905 691.91V694.799L3.20583 694.852C3.57722 694.915 3.88554 695.013 4.13079 695.146C4.37605 695.272 4.56875 695.423 4.70889 695.598C4.85605 695.773 4.95765 695.969 5.01371 696.186C5.07678 696.403 5.10831 696.627 5.10831 696.858C5.10831 697.489 4.91211 697.983 4.5197 698.34C4.1343 698.69 3.59123 698.886 2.8905 698.928V700H2.41751V698.928ZM0.840874 693.286C0.840874 693.721 0.967005 694.046 1.21927 694.263C1.47153 694.474 1.8289 694.621 2.29138 694.705L2.41751 694.726V691.899C1.91299 691.934 1.52408 692.068 1.2508 692.299C0.977516 692.523 0.840874 692.852 0.840874 693.286ZM4.49868 696.869C4.49868 696.407 4.36554 696.071 4.09926 695.86C3.83999 695.643 3.4686 695.496 2.9851 695.419L2.8905 695.398V698.382C3.40204 698.347 3.79795 698.203 4.07824 697.951C4.35853 697.692 4.49868 697.331 4.49868 696.869Z" fill="#5FDDC7" fill-opacity="0.5" style="fill:#5FDDC7;fill:color(display-p3 0.3725 0.8667 0.7804);fill-opacity:0.5;"/>
<path d="M684.3 119.074C684.517 119.074 684.678 119.134 684.783 119.253C684.895 119.372 684.951 119.526 684.951 119.715V120.556C684.951 120.752 684.93 120.923 684.888 121.07C684.853 121.218 684.808 121.347 684.752 121.459C684.703 121.564 684.643 121.659 684.573 121.743C684.51 121.82 684.454 121.893 684.405 121.963C684.265 122.132 684.17 122.268 684.121 122.373C684.072 122.478 684.047 122.59 684.047 122.709C684.047 123.004 684.181 123.221 684.447 123.361C684.72 123.494 685.113 123.56 685.624 123.56H686.402V124.023H685.624C685.113 124.023 684.72 124.093 684.447 124.233C684.181 124.366 684.047 124.58 684.047 124.874C684.047 124.993 684.072 125.105 684.121 125.21C684.17 125.315 684.265 125.452 684.405 125.62C684.454 125.69 684.51 125.767 684.573 125.851C684.643 125.928 684.703 126.022 684.752 126.135C684.808 126.24 684.853 126.366 684.888 126.513C684.93 126.66 684.951 126.831 684.951 127.028V127.868C684.951 128.057 684.895 128.211 684.783 128.33C684.678 128.449 684.517 128.509 684.3 128.509H682.387V128.036H684.426V127.059C684.426 126.891 684.412 126.747 684.384 126.628C684.363 126.509 684.331 126.408 684.289 126.324C684.247 126.233 684.198 126.152 684.142 126.082C684.093 126.012 684.044 125.945 683.995 125.882C683.855 125.7 683.739 125.532 683.648 125.378C683.564 125.224 683.522 125.052 683.522 124.863C683.522 124.562 683.631 124.32 683.848 124.138C684.065 123.956 684.352 123.848 684.71 123.813V123.771C684.352 123.736 684.065 123.627 683.848 123.445C683.631 123.263 683.522 123.021 683.522 122.72C683.522 122.531 683.564 122.359 683.648 122.205C683.739 122.051 683.855 121.883 683.995 121.701C684.044 121.638 684.093 121.571 684.142 121.501C684.198 121.431 684.247 121.354 684.289 121.27C684.331 121.179 684.363 121.074 684.384 120.955C684.412 120.836 684.426 120.692 684.426 120.524V119.547H682.387V119.074H684.3Z" fill="#5FDDC7" fill-opacity="0.5" style="fill:#5FDDC7;fill:color(display-p3 0.3725 0.8667 0.7804);fill-opacity:0.5;"/>
<path d="M675.832 126.178L679.774 123.887V123.835L675.832 121.544V120.914L680.352 123.562V124.15L675.832 126.798V126.178Z" fill="#5FDDC7" fill-opacity="0.5" style="fill:#5FDDC7;fill:color(display-p3 0.3725 0.8667 0.7804);fill-opacity:0.5;"/>
<path d="M671.527 128.509V119.074H672.053V128.509H671.527Z" fill="#5FDDC7" fill-opacity="0.5" style="fill:#5FDDC7;fill:color(display-p3 0.3725 0.8667 0.7804);fill-opacity:0.5;"/>
<path d="M663.23 124.15V123.562L667.75 120.914V121.534L663.809 123.824V123.877L667.75 126.167V126.798L663.23 124.15Z" fill="#5FDDC7" fill-opacity="0.5" style="fill:#5FDDC7;fill:color(display-p3 0.3725 0.8667 0.7804);fill-opacity:0.5;"/>
</svg>
