<svg width="682" height="643" viewBox="0 0 682 643" fill="none" xmlns="http://www.w3.org/2000/svg">
<path d="M398.551 642.976C398.334 642.976 398.17 642.916 398.057 642.797C397.952 642.678 397.9 642.524 397.9 642.335V641.494C397.9 641.298 397.917 641.126 397.952 640.979C397.994 640.832 398.04 640.706 398.089 640.6C398.145 640.488 398.205 640.394 398.268 640.317C398.331 640.233 398.39 640.155 398.446 640.085C398.586 639.917 398.681 639.781 398.73 639.675C398.779 639.57 398.804 639.458 398.804 639.339C398.804 639.045 398.667 638.831 398.394 638.698C398.127 638.558 397.739 638.488 397.227 638.488H396.449V638.025H397.227C397.739 638.025 398.127 637.959 398.394 637.826C398.667 637.685 398.804 637.468 398.804 637.174C398.804 637.055 398.779 636.943 398.73 636.838C398.681 636.732 398.586 636.596 398.446 636.428C398.39 636.358 398.331 636.284 398.268 636.207C398.205 636.123 398.145 636.028 398.089 635.923C398.04 635.811 397.994 635.681 397.952 635.534C397.917 635.387 397.9 635.215 397.9 635.019V634.178C397.9 633.989 397.952 633.835 398.057 633.716C398.17 633.597 398.334 633.537 398.551 633.537H400.464V634.01H398.425V634.988C398.425 635.156 398.436 635.299 398.457 635.419C398.485 635.538 398.52 635.643 398.562 635.734C398.604 635.818 398.65 635.895 398.699 635.965C398.755 636.035 398.807 636.102 398.856 636.165C398.996 636.347 399.108 636.515 399.193 636.669C399.284 636.824 399.329 636.995 399.329 637.184C399.329 637.486 399.221 637.727 399.003 637.91C398.786 638.092 398.499 638.2 398.141 638.235V638.278C398.499 638.313 398.786 638.421 399.003 638.603C399.221 638.786 399.329 639.027 399.329 639.329C399.329 639.518 399.284 639.69 399.193 639.844C399.108 639.998 398.996 640.166 398.856 640.348C398.807 640.411 398.755 640.478 398.699 640.548C398.65 640.618 398.604 640.699 398.562 640.79C398.52 640.874 398.485 640.975 398.457 641.094C398.436 641.214 398.425 641.357 398.425 641.525V642.503H400.464V642.976H398.551Z" fill="#5FDDC7" fill-opacity="0.5" style="fill:#5FDDC7;fill:color(display-p3 0.3725 0.8667 0.7804);fill-opacity:0.5;"/>
<path d="M390.702 640.979L390.271 640.664L391.711 638.688L389.473 637.962L389.63 637.458L391.88 638.173V635.766H392.437V638.173L394.676 637.458L394.833 637.962L392.594 638.688L394.045 640.664L393.603 640.979L392.153 638.982L390.702 640.979Z" fill="#5FDDC7" fill-opacity="0.5" style="fill:#5FDDC7;fill:color(display-p3 0.3725 0.8667 0.7804);fill-opacity:0.5;"/>
<path d="M383.348 637.563V637.048H388.351V637.563H383.348ZM383.348 639.57V639.055H388.351V639.57H383.348Z" fill="#5FDDC7" fill-opacity="0.5" style="fill:#5FDDC7;fill:color(display-p3 0.3725 0.8667 0.7804);fill-opacity:0.5;"/>
<path d="M379.265 640.863V638.572H377.047V638.057H379.265V635.766H379.832V638.057H382.05V638.572H379.832V640.863H379.265Z" fill="#5FDDC7" fill-opacity="0.5" style="fill:#5FDDC7;fill:color(display-p3 0.3725 0.8667 0.7804);fill-opacity:0.5;"/>
<path d="M72.9844 27.1066L76.6047 18H77.1219L73.5016 27.1066H72.9844Z" fill="#5FDDC7" fill-opacity="0.5" style="fill:#5FDDC7;fill:color(display-p3 0.3725 0.8667 0.7804);fill-opacity:0.5;"/>
<path d="M66.4922 27.1066L70.1125 18H70.6297L67.0094 27.1066H66.4922Z" fill="#5FDDC7" fill-opacity="0.5" style="fill:#5FDDC7;fill:color(display-p3 0.3725 0.8667 0.7804);fill-opacity:0.5;"/>
<path d="M60.6709 25.1803L60.2551 24.8761L61.6444 22.9696L59.4844 22.2698L59.6365 21.7831L61.8067 22.4727V20.1504H62.3441V22.4727L64.5041 21.7831L64.6563 22.2698L62.4962 22.9696L63.8957 24.8761L63.4698 25.1803L62.0703 23.2535L60.6709 25.1803Z" fill="#5FDDC7" fill-opacity="0.5" style="fill:#5FDDC7;fill:color(display-p3 0.3725 0.8667 0.7804);fill-opacity:0.5;"/>
<path d="M54.1866 25.1801L53.7708 24.8758L55.1601 22.9693L53.0001 22.2696L53.1522 21.7828L55.3224 22.4724V20.1501H55.8599V22.4724L58.0199 21.7828L58.172 22.2696L56.012 22.9693L57.4114 24.8758L56.9855 25.1801L55.5861 23.2533L54.1866 25.1801Z" fill="#5FDDC7" fill-opacity="0.5" style="fill:#5FDDC7;fill:color(display-p3 0.3725 0.8667 0.7804);fill-opacity:0.5;"/>
<path d="M676.984 463.107L680.605 454H681.122L677.502 463.107H676.984Z" fill="#5FDDC7" fill-opacity="0.5" style="fill:#5FDDC7;fill:color(display-p3 0.3725 0.8667 0.7804);fill-opacity:0.5;"/>
<path d="M670.492 463.107L674.113 454H674.63L671.009 463.107H670.492Z" fill="#5FDDC7" fill-opacity="0.5" style="fill:#5FDDC7;fill:color(display-p3 0.3725 0.8667 0.7804);fill-opacity:0.5;"/>
<path d="M664.671 461.18L664.255 460.876L665.644 458.97L663.484 458.27L663.636 457.783L665.807 458.473V456.15H666.344V458.473L668.504 457.783L668.656 458.27L666.496 458.97L667.896 460.876L667.47 461.18L666.07 459.254L664.671 461.18Z" fill="#5FDDC7" fill-opacity="0.5" style="fill:#5FDDC7;fill:color(display-p3 0.3725 0.8667 0.7804);fill-opacity:0.5;"/>
<path d="M658.187 461.18L657.771 460.876L659.16 458.969L657 458.27L657.152 457.783L659.322 458.472V456.15H659.86V458.472L662.02 457.783L662.172 458.27L660.012 458.969L661.411 460.876L660.986 461.18L659.586 459.253L658.187 461.18Z" fill="#5FDDC7" fill-opacity="0.5" style="fill:#5FDDC7;fill:color(display-p3 0.3725 0.8667 0.7804);fill-opacity:0.5;"/>
<path d="M54.4453 415.988V415.461H59.313V415.988H54.4453Z" fill="#5FDDC7" fill-opacity="0.5" style="fill:#5FDDC7;fill:color(display-p3 0.3725 0.8667 0.7804);fill-opacity:0.5;"/>
<path d="M47.9531 415.988V415.461H52.8208V415.988H47.9531Z" fill="#5FDDC7" fill-opacity="0.5" style="fill:#5FDDC7;fill:color(display-p3 0.3725 0.8667 0.7804);fill-opacity:0.5;"/>
<path d="M42.4766 411.598V411H45.316V411.598H42.4766Z" fill="#5FDDC7" fill-opacity="0.5" style="fill:#5FDDC7;fill:color(display-p3 0.3725 0.8667 0.7804);fill-opacity:0.5;"/>
<path d="M36 411.598V411H38.8395V411.598H36Z" fill="#5FDDC7" fill-opacity="0.5" style="fill:#5FDDC7;fill:color(display-p3 0.3725 0.8667 0.7804);fill-opacity:0.5;"/>
<path d="M99.2988 610C99.5084 610 99.6639 610.057 99.7653 610.172C99.8734 610.287 99.9275 610.436 99.9275 610.619V611.43C99.9275 611.619 99.9072 611.785 99.8667 611.927C99.8329 612.069 99.7889 612.194 99.7348 612.302C99.6875 612.403 99.63 612.495 99.5624 612.576C99.5016 612.65 99.4475 612.721 99.4002 612.789C99.265 612.951 99.1737 613.083 99.1264 613.184C99.0791 613.286 99.0554 613.394 99.0554 613.509C99.0554 613.793 99.1838 614.002 99.4407 614.138C99.7044 614.266 100.083 614.33 100.577 614.33H101.327V614.776H100.577C100.083 614.776 99.7044 614.844 99.4407 614.979C99.1838 615.108 99.0554 615.314 99.0554 615.598C99.0554 615.713 99.0791 615.821 99.1264 615.922C99.1737 616.024 99.265 616.156 99.4002 616.318C99.4475 616.385 99.5016 616.46 99.5624 616.541C99.63 616.615 99.6875 616.707 99.7348 616.815C99.7889 616.916 99.8329 617.038 99.8667 617.18C99.9072 617.322 99.9275 617.487 99.9275 617.677V618.488C99.9275 618.671 99.8734 618.819 99.7653 618.934C99.6639 619.049 99.5084 619.107 99.2988 619.107H97.4531V618.65H99.4205V617.707C99.4205 617.545 99.4069 617.406 99.3799 617.291C99.3596 617.176 99.3292 617.078 99.2886 616.997C99.2481 616.909 99.2007 616.832 99.1467 616.764C99.0993 616.696 99.052 616.632 99.0047 616.571C98.8695 616.396 98.7579 616.233 98.67 616.085C98.5889 615.936 98.5483 615.77 98.5483 615.588C98.5483 615.297 98.6531 615.064 98.8627 614.888C99.0723 614.712 99.3495 614.607 99.6943 614.574V614.533C99.3495 614.499 99.0723 614.394 98.8627 614.219C98.6531 614.043 98.5483 613.81 98.5483 613.519C98.5483 613.336 98.5889 613.171 98.67 613.022C98.7579 612.873 98.8695 612.711 99.0047 612.535C99.052 612.474 99.0993 612.41 99.1467 612.343C99.2007 612.275 99.2481 612.201 99.2886 612.119C99.3292 612.032 99.3596 611.93 99.3799 611.815C99.4069 611.7 99.4205 611.562 99.4205 611.399V610.456H97.4531V610H99.2988Z" fill="#5FDDC7" fill-opacity="0.5" style="fill:#5FDDC7;fill:color(display-p3 0.3725 0.8667 0.7804);fill-opacity:0.5;"/>
<path d="M93.503 610V619.107H90.8359V618.65H93.0061V610.456H90.8359V610H93.503Z" fill="#5FDDC7" fill-opacity="0.5" style="fill:#5FDDC7;fill:color(display-p3 0.3725 0.8667 0.7804);fill-opacity:0.5;"/>
<path d="M85.8125 619.107V610H88.4796V610.456H86.3094V618.65H88.4796V619.107H85.8125Z" fill="#5FDDC7" fill-opacity="0.5" style="fill:#5FDDC7;fill:color(display-p3 0.3725 0.8667 0.7804);fill-opacity:0.5;"/>
<path d="M80.0282 619.107C79.8186 619.107 79.6597 619.049 79.5516 618.934C79.4502 618.819 79.3995 618.671 79.3995 618.488V617.677C79.3995 617.487 79.4164 617.322 79.4502 617.18C79.4907 617.038 79.5347 616.916 79.582 616.815C79.6361 616.707 79.6935 616.615 79.7544 616.541C79.8152 616.46 79.8727 616.385 79.9268 616.318C80.062 616.156 80.1533 616.024 80.2006 615.922C80.2479 615.821 80.2716 615.713 80.2716 615.598C80.2716 615.314 80.1397 615.108 79.8761 614.979C79.6192 614.844 79.244 614.776 78.7504 614.776H78V614.33H78.7504C79.244 614.33 79.6192 614.266 79.8761 614.138C80.1397 614.002 80.2716 613.793 80.2716 613.509C80.2716 613.394 80.2479 613.286 80.2006 613.184C80.1533 613.083 80.062 612.951 79.9268 612.789C79.8727 612.721 79.8152 612.65 79.7544 612.576C79.6935 612.495 79.6361 612.403 79.582 612.302C79.5347 612.194 79.4907 612.069 79.4502 611.927C79.4164 611.785 79.3995 611.619 79.3995 611.43V610.619C79.3995 610.436 79.4502 610.287 79.5516 610.172C79.6597 610.057 79.8186 610 80.0282 610H81.8738V610.456H79.9065V611.399C79.9065 611.562 79.9166 611.7 79.9369 611.815C79.964 611.93 79.9978 612.032 80.0383 612.119C80.0789 612.201 80.1228 612.275 80.1702 612.343C80.2242 612.41 80.275 612.474 80.3223 612.535C80.4575 612.711 80.5657 612.873 80.6468 613.022C80.7347 613.171 80.7786 613.336 80.7786 613.519C80.7786 613.81 80.6738 614.043 80.4642 614.219C80.2547 614.394 79.9775 614.499 79.6327 614.533V614.574C79.9775 614.607 80.2547 614.712 80.4642 614.888C80.6738 615.064 80.7786 615.297 80.7786 615.588C80.7786 615.77 80.7347 615.936 80.6468 616.085C80.5657 616.233 80.4575 616.396 80.3223 616.571C80.275 616.632 80.2242 616.696 80.1702 616.764C80.1228 616.832 80.0789 616.909 80.0383 616.997C79.9978 617.078 79.964 617.176 79.9369 617.291C79.9166 617.406 79.9065 617.545 79.9065 617.707V618.65H81.8738V619.107H80.0282Z" fill="#5FDDC7" fill-opacity="0.5" style="fill:#5FDDC7;fill:color(display-p3 0.3725 0.8667 0.7804);fill-opacity:0.5;"/>
<path d="M609.536 5.94315H608.086V5.45639H609.627L609.901 3.91496H608.451V3.4282H609.982L610.388 1.14648H610.925L609.678 8.22486H609.141L609.536 5.94315ZM612.213 1.14648H612.751L612.355 3.4282H613.805V3.91496H612.264L611.99 5.45639H613.44V5.94315H611.909L611.503 8.22486H610.966L612.213 1.14648Z" fill="#5FDDC7" fill-opacity="0.5" style="fill:#5FDDC7;fill:color(display-p3 0.3725 0.8667 0.7804);fill-opacity:0.5;"/>
<path d="M604.317 8.33586C603.735 8.30882 603.262 8.18712 602.897 7.97078C602.539 7.75444 602.235 7.47726 601.984 7.13923L602.431 6.77415C602.674 7.08514 602.941 7.3319 603.232 7.51444C603.522 7.69022 603.884 7.79163 604.317 7.81867V4.85751L604.033 4.80681C603.681 4.74596 603.387 4.65469 603.151 4.533C602.921 4.41131 602.735 4.26596 602.593 4.09694C602.451 3.92793 602.349 3.74201 602.289 3.53919C602.235 3.32961 602.207 3.11327 602.207 2.89017C602.207 2.30876 602.393 1.86255 602.765 1.55156C603.144 1.23381 603.661 1.06142 604.317 1.03438V0H604.773V1.03438C605.267 1.06142 605.679 1.16959 606.01 1.35889C606.342 1.54142 606.622 1.79157 606.852 2.10932L606.396 2.44397C606.206 2.18706 605.983 1.98424 605.726 1.83551C605.476 1.68678 605.158 1.59551 604.773 1.56171V4.35047L605.077 4.40117C605.436 4.46202 605.733 4.55666 605.97 4.68512C606.206 4.80681 606.392 4.95216 606.528 5.12118C606.669 5.29019 606.768 5.47949 606.822 5.68907C606.882 5.89865 606.913 6.11499 606.913 6.33809C606.913 6.94655 606.724 7.42317 606.345 7.76796C605.973 8.106 605.449 8.29529 604.773 8.33586V9.37023H604.317V8.33586ZM602.796 2.89017C602.796 3.30933 602.917 3.6237 603.161 3.83328C603.404 4.0361 603.749 4.17807 604.195 4.2592L604.317 4.27948V1.55156C603.83 1.58537 603.455 1.71382 603.191 1.93692C602.927 2.15326 602.796 2.47101 602.796 2.89017ZM606.325 6.34823C606.325 5.90203 606.196 5.57752 605.939 5.3747C605.689 5.16512 605.331 5.02315 604.864 4.94878L604.773 4.9285V7.80853C605.267 7.77472 605.649 7.63613 605.919 7.39275C606.189 7.14261 606.325 6.79443 606.325 6.34823Z" fill="#5FDDC7" fill-opacity="0.5" style="fill:#5FDDC7;fill:color(display-p3 0.3725 0.8667 0.7804);fill-opacity:0.5;"/>
<path d="M596.675 4.5322C596.465 4.5322 596.269 4.4984 596.087 4.43079C595.911 4.35643 595.756 4.24826 595.62 4.10628C595.492 3.95755 595.391 3.77501 595.316 3.55867C595.242 3.33557 595.205 3.07529 595.205 2.77782C595.205 2.48035 595.242 2.22345 595.316 2.00711C595.391 1.78401 595.492 1.60147 595.62 1.4595C595.756 1.31076 595.911 1.20259 596.087 1.13499C596.269 1.06062 596.465 1.02344 596.675 1.02344C596.885 1.02344 597.077 1.06062 597.253 1.13499C597.429 1.20259 597.581 1.31076 597.709 1.4595C597.845 1.60147 597.949 1.78401 598.024 2.00711C598.098 2.22345 598.135 2.48035 598.135 2.77782C598.135 3.07529 598.098 3.33557 598.024 3.55867C597.949 3.77501 597.845 3.95755 597.709 4.10628C597.581 4.24826 597.429 4.35643 597.253 4.43079C597.077 4.4984 596.885 4.5322 596.675 4.5322ZM596.675 4.12657C596.939 4.12657 597.162 4.0353 597.344 3.85276C597.534 3.66346 597.628 3.37614 597.628 2.99078V2.56486C597.628 2.17951 597.534 1.89556 597.344 1.71302C597.162 1.52372 596.939 1.42908 596.675 1.42908C596.405 1.42908 596.175 1.52372 595.985 1.71302C595.803 1.89556 595.712 2.17951 595.712 2.56486V2.99078C595.712 3.37614 595.803 3.66346 595.985 3.85276C596.175 4.0353 596.405 4.12657 596.675 4.12657ZM600.275 1.14513H600.802L599.109 4.18741H598.582L600.275 1.14513ZM596.858 5.18122H597.385L595.691 8.22351H595.164L596.858 5.18122ZM599.312 8.3452C599.102 8.3452 598.906 8.30801 598.724 8.23365C598.541 8.16604 598.382 8.06125 598.247 7.91928C598.118 7.77055 598.017 7.58801 597.943 7.37167C597.868 7.14857 597.831 6.88828 597.831 6.59082C597.831 6.29335 597.868 6.03644 597.943 5.8201C598.017 5.597 598.118 5.41447 598.247 5.27249C598.382 5.12376 598.538 5.01559 598.713 4.94798C598.896 4.87362 599.092 4.83643 599.302 4.83643C599.511 4.83643 599.704 4.87362 599.88 4.94798C600.055 5.01559 600.207 5.12376 600.336 5.27249C600.471 5.41447 600.576 5.597 600.65 5.8201C600.725 6.03644 600.762 6.29335 600.762 6.59082C600.762 6.88828 600.725 7.14857 600.65 7.37167C600.576 7.58801 600.475 7.77055 600.346 7.91928C600.218 8.06125 600.066 8.16604 599.89 8.23365C599.714 8.30801 599.521 8.3452 599.312 8.3452ZM599.302 7.93956C599.565 7.93956 599.788 7.84829 599.971 7.66575C600.16 7.47646 600.255 7.18913 600.255 6.80377V6.37786C600.255 5.9925 600.16 5.70855 599.971 5.52602C599.788 5.33672 599.565 5.24207 599.302 5.24207C599.031 5.24207 598.801 5.33672 598.612 5.52602C598.429 5.70855 598.338 5.9925 598.338 6.37786V6.80377C598.338 7.18913 598.429 7.47646 598.612 7.66575C598.801 7.84829 599.031 7.93956 599.302 7.93956Z" fill="#5FDDC7" fill-opacity="0.5" style="fill:#5FDDC7;fill:color(display-p3 0.3725 0.8667 0.7804);fill-opacity:0.5;"/>
<path d="M593.513 5.17244L591.495 1.66367H591.464L589.456 5.17244L589 4.94934L591.17 1.14648H591.819L593.989 4.94934L593.513 5.17244Z" fill="#5FDDC7" fill-opacity="0.5" style="fill:#5FDDC7;fill:color(display-p3 0.3725 0.8667 0.7804);fill-opacity:0.5;"/>
<path d="M20.5361 146.943H19.0859V146.456H20.6274L20.9012 144.915H19.451V144.428H20.9823L21.3879 142.146H21.9254L20.6781 149.225H20.1406L20.5361 146.943ZM23.2133 142.146H23.7508L23.3553 144.428H24.8054V144.915H23.264L22.9902 146.456H24.4404V146.943H22.9091L22.5034 149.225H21.966L23.2133 142.146Z" fill="#5FDDC7" fill-opacity="0.5" style="fill:#5FDDC7;fill:color(display-p3 0.3725 0.8667 0.7804);fill-opacity:0.5;"/>
<path d="M15.3168 149.336C14.7354 149.309 14.2621 149.187 13.8971 148.971C13.5387 148.754 13.2345 148.477 12.9844 148.139L13.4306 147.774C13.674 148.085 13.941 148.332 14.2317 148.514C14.5224 148.69 14.8841 148.792 15.3168 148.819V145.858L15.0328 145.807C14.6813 145.746 14.3872 145.655 14.1506 145.533C13.9207 145.411 13.7348 145.266 13.5928 145.097C13.4509 144.928 13.3494 144.742 13.2886 144.539C13.2345 144.33 13.2075 144.113 13.2075 143.89C13.2075 143.309 13.3934 142.863 13.7652 142.552C14.1438 142.234 14.661 142.061 15.3168 142.034V141H15.7731V142.034C16.2667 142.061 16.6791 142.17 17.0103 142.359C17.3416 142.541 17.6222 142.792 17.852 143.109L17.3957 143.444C17.2064 143.187 16.9833 142.984 16.7264 142.836C16.4762 142.687 16.1585 142.596 15.7731 142.562V145.35L16.0774 145.401C16.4357 145.462 16.7331 145.557 16.9698 145.685C17.2064 145.807 17.3923 145.952 17.5275 146.121C17.6695 146.29 17.7675 146.479 17.8216 146.689C17.8825 146.899 17.9129 147.115 17.9129 147.338C17.9129 147.947 17.7236 148.423 17.345 148.768C16.9731 149.106 16.4492 149.295 15.7731 149.336V150.37H15.3168V149.336ZM13.7956 143.89C13.7956 144.309 13.9173 144.624 14.1607 144.833C14.4041 145.036 14.7489 145.178 15.1951 145.259L15.3168 145.279V142.552C14.83 142.585 14.4548 142.714 14.1911 142.937C13.9275 143.153 13.7956 143.471 13.7956 143.89ZM17.3247 147.348C17.3247 146.902 17.1962 146.578 16.9393 146.375C16.6892 146.165 16.3309 146.023 15.8644 145.949L15.7731 145.928V148.809C16.2667 148.775 16.6486 148.636 16.9191 148.393C17.1895 148.143 17.3247 147.794 17.3247 147.348Z" fill="#5FDDC7" fill-opacity="0.5" style="fill:#5FDDC7;fill:color(display-p3 0.3725 0.8667 0.7804);fill-opacity:0.5;"/>
<path d="M7.67506 145.532C7.46548 145.532 7.26943 145.498 7.08689 145.431C6.91111 145.356 6.75562 145.248 6.62041 145.106C6.49195 144.958 6.39054 144.775 6.31618 144.559C6.24181 144.336 6.20463 144.075 6.20463 143.778C6.20463 143.48 6.24181 143.223 6.31618 143.007C6.39054 142.784 6.49195 142.601 6.62041 142.459C6.75562 142.311 6.91111 142.203 7.08689 142.135C7.26943 142.061 7.46548 142.023 7.67506 142.023C7.88464 142.023 8.07732 142.061 8.2531 142.135C8.42887 142.203 8.58099 142.311 8.70944 142.459C8.84465 142.601 8.94944 142.784 9.02381 143.007C9.09818 143.223 9.13536 143.48 9.13536 143.778C9.13536 144.075 9.09818 144.336 9.02381 144.559C8.94944 144.775 8.84465 144.958 8.70944 145.106C8.58099 145.248 8.42887 145.356 8.2531 145.431C8.07732 145.498 7.88464 145.532 7.67506 145.532ZM7.67506 145.127C7.93873 145.127 8.16183 145.035 8.34437 144.853C8.53366 144.663 8.62831 144.376 8.62831 143.991V143.565C8.62831 143.18 8.53366 142.896 8.34437 142.713C8.16183 142.524 7.93873 142.429 7.67506 142.429C7.40464 142.429 7.17478 142.524 6.98548 142.713C6.80294 142.896 6.71167 143.18 6.71167 143.565V143.991C6.71167 144.376 6.80294 144.663 6.98548 144.853C7.17478 145.035 7.40464 145.127 7.67506 145.127ZM11.2751 142.145H11.8024L10.1089 145.187H9.58156L11.2751 142.145ZM7.8576 146.181H8.38493L6.69139 149.224H6.16406L7.8576 146.181ZM10.3117 149.345C10.1021 149.345 9.90607 149.308 9.72353 149.234C9.541 149.166 9.38212 149.061 9.24691 148.919C9.11846 148.771 9.01705 148.588 8.94268 148.372C8.86831 148.149 8.83113 147.888 8.83113 147.591C8.83113 147.293 8.86831 147.036 8.94268 146.82C9.01705 146.597 9.11846 146.414 9.24691 146.272C9.38212 146.124 9.53762 146.016 9.71339 145.948C9.89593 145.874 10.092 145.836 10.3016 145.836C10.5111 145.836 10.7038 145.874 10.8796 145.948C11.0554 146.016 11.2075 146.124 11.3359 146.272C11.4712 146.414 11.5759 146.597 11.6503 146.82C11.7247 147.036 11.7619 147.293 11.7619 147.591C11.7619 147.888 11.7247 148.149 11.6503 148.372C11.5759 148.588 11.4745 148.771 11.3461 148.919C11.2176 149.061 11.0655 149.166 10.8897 149.234C10.714 149.308 10.5213 149.345 10.3117 149.345ZM10.3016 148.94C10.5652 148.94 10.7883 148.848 10.9709 148.666C11.1602 148.476 11.2548 148.189 11.2548 147.804V147.378C11.2548 146.992 11.1602 146.709 10.9709 146.526C10.7883 146.337 10.5652 146.242 10.3016 146.242C10.0311 146.242 9.80128 146.337 9.61198 146.526C9.42945 146.709 9.33818 146.992 9.33818 147.378V147.804C9.33818 148.189 9.42945 148.476 9.61198 148.666C9.80128 148.848 10.0311 148.94 10.3016 148.94Z" fill="#5FDDC7" fill-opacity="0.5" style="fill:#5FDDC7;fill:color(display-p3 0.3725 0.8667 0.7804);fill-opacity:0.5;"/>
<path d="M4.51272 146.172L2.49467 142.664H2.46425L0.456343 146.172L0 145.949L2.17016 142.146H2.81918L4.98934 145.949L4.51272 146.172Z" fill="#5FDDC7" fill-opacity="0.5" style="fill:#5FDDC7;fill:color(display-p3 0.3725 0.8667 0.7804);fill-opacity:0.5;"/>
<path d="M616.077 547.012V556.451H613.312V555.978H615.562V547.485H613.312V547.012H616.077Z" fill="#5FDDC7" fill-opacity="0.5" style="fill:#5FDDC7;fill:color(display-p3 0.3725 0.8667 0.7804);fill-opacity:0.5;"/>
<path d="M608.531 556.451V547.012H611.296V547.485H609.046V555.978H611.296V556.451H608.531Z" fill="#5FDDC7" fill-opacity="0.5" style="fill:#5FDDC7;fill:color(display-p3 0.3725 0.8667 0.7804);fill-opacity:0.5;"/>
<path d="M602.502 553.812H603.511L602.45 556.608H601.945L602.502 553.812ZM602.849 550.627C602.625 550.627 602.467 550.582 602.376 550.491C602.285 550.4 602.24 550.281 602.24 550.133V549.986C602.24 549.846 602.285 549.73 602.376 549.639C602.467 549.541 602.625 549.492 602.849 549.492C603.073 549.492 603.231 549.541 603.322 549.639C603.413 549.73 603.459 549.846 603.459 549.986V550.133C603.459 550.281 603.413 550.4 603.322 550.491C603.231 550.582 603.073 550.627 602.849 550.627Z" fill="#5FDDC7" fill-opacity="0.5" style="fill:#5FDDC7;fill:color(display-p3 0.3725 0.8667 0.7804);fill-opacity:0.5;"/>
<path d="M598.638 551.836L596.547 548.199H596.515L594.434 551.836L593.961 551.605L596.21 547.663H596.883L599.132 551.605L598.638 551.836Z" fill="#5FDDC7" fill-opacity="0.5" style="fill:#5FDDC7;fill:color(display-p3 0.3725 0.8667 0.7804);fill-opacity:0.5;"/>
<path d="M667.307 41C667.516 41 667.672 41.0575 667.773 41.1724C667.881 41.2873 667.935 41.4361 667.935 41.6186V42.4299C667.935 42.6192 667.915 42.7848 667.874 42.9268C667.841 43.0688 667.797 43.1938 667.743 43.302C667.695 43.4034 667.638 43.4947 667.57 43.5758C667.509 43.6502 667.455 43.7212 667.408 43.7888C667.273 43.951 667.182 44.0828 667.134 44.1843C667.087 44.2857 667.063 44.3938 667.063 44.5088C667.063 44.7927 667.192 45.0023 667.449 45.1375C667.712 45.266 668.091 45.3302 668.584 45.3302H669.335V45.7764H668.584C668.091 45.7764 667.712 45.844 667.449 45.9792C667.192 46.1077 667.063 46.3139 667.063 46.5978C667.063 46.7127 667.087 46.8209 667.134 46.9223C667.182 47.0237 667.273 47.1556 667.408 47.3178C667.455 47.3854 667.509 47.4598 667.57 47.5409C667.638 47.6153 667.695 47.7065 667.743 47.8147C667.797 47.9161 667.841 48.0378 667.874 48.1798C667.915 48.3218 667.935 48.4874 667.935 48.6767V49.488C667.935 49.6705 667.881 49.8192 667.773 49.9342C667.672 50.0491 667.516 50.1066 667.307 50.1066H665.461V49.6502H667.428V48.7071C667.428 48.5449 667.415 48.4063 667.388 48.2913C667.367 48.1764 667.337 48.0784 667.296 47.9973C667.256 47.9094 667.209 47.8316 667.154 47.764C667.107 47.6964 667.06 47.6322 667.013 47.5713C666.877 47.3956 666.766 47.2333 666.678 47.0846C666.597 46.9358 666.556 46.7702 666.556 46.5877C666.556 46.297 666.661 46.0637 666.871 45.8879C667.08 45.7122 667.357 45.6074 667.702 45.5736V45.533C667.357 45.4992 667.08 45.3944 666.871 45.2186C666.661 45.0429 666.556 44.8096 666.556 44.5189C666.556 44.3364 666.597 44.1707 666.678 44.022C666.766 43.8733 666.877 43.711 667.013 43.5352C667.06 43.4744 667.107 43.4102 667.154 43.3426C667.209 43.275 667.256 43.2006 667.296 43.1195C667.337 43.0316 667.367 42.9302 667.388 42.8152C667.415 42.7003 667.428 42.5617 667.428 42.3995V41.4563H665.461V41H667.307Z" fill="#5FDDC7" fill-opacity="0.5" style="fill:#5FDDC7;fill:color(display-p3 0.3725 0.8667 0.7804);fill-opacity:0.5;"/>
<path d="M661.503 41V50.1066H658.836V49.6502H661.006V41.4563H658.836V41H661.503Z" fill="#5FDDC7" fill-opacity="0.5" style="fill:#5FDDC7;fill:color(display-p3 0.3725 0.8667 0.7804);fill-opacity:0.5;"/>
<path d="M653.82 50.1066V41H656.487V41.4563H654.317V49.6502H656.487V50.1066H653.82Z" fill="#5FDDC7" fill-opacity="0.5" style="fill:#5FDDC7;fill:color(display-p3 0.3725 0.8667 0.7804);fill-opacity:0.5;"/>
<path d="M648.028 50.1066C647.819 50.1066 647.66 50.0491 647.552 49.9342C647.45 49.8192 647.399 49.6705 647.399 49.488V48.6767C647.399 48.4874 647.416 48.3218 647.45 48.1798C647.491 48.0378 647.535 47.9161 647.582 47.8147C647.636 47.7065 647.694 47.6153 647.754 47.5409C647.815 47.4598 647.873 47.3854 647.927 47.3178C648.062 47.1556 648.153 47.0237 648.201 46.9223C648.248 46.8209 648.272 46.7127 648.272 46.5978C648.272 46.3139 648.14 46.1077 647.876 45.9792C647.619 45.844 647.244 45.7764 646.75 45.7764H646V45.3302H646.75C647.244 45.3302 647.619 45.266 647.876 45.1375C648.14 45.0023 648.272 44.7927 648.272 44.5088C648.272 44.3938 648.248 44.2857 648.201 44.1843C648.153 44.0828 648.062 43.951 647.927 43.7888C647.873 43.7212 647.815 43.6502 647.754 43.5758C647.694 43.4947 647.636 43.4034 647.582 43.302C647.535 43.1938 647.491 43.0688 647.45 42.9268C647.416 42.7848 647.399 42.6192 647.399 42.4299V41.6186C647.399 41.4361 647.45 41.2873 647.552 41.1724C647.66 41.0575 647.819 41 648.028 41H649.874V41.4563H647.906V42.3995C647.906 42.5617 647.917 42.7003 647.937 42.8152C647.964 42.9302 647.998 43.0316 648.038 43.1195C648.079 43.2006 648.123 43.275 648.17 43.3426C648.224 43.4102 648.275 43.4744 648.322 43.5352C648.457 43.711 648.566 43.8733 648.647 44.022C648.735 44.1707 648.779 44.3364 648.779 44.5189C648.779 44.8096 648.674 45.0429 648.464 45.2186C648.255 45.3944 647.977 45.4992 647.633 45.533V45.5736C647.977 45.6074 648.255 45.7122 648.464 45.8879C648.674 46.0637 648.779 46.297 648.779 46.5877C648.779 46.7702 648.735 46.9358 648.647 47.0846C648.566 47.2333 648.457 47.3956 648.322 47.5713C648.275 47.6322 648.224 47.6964 648.17 47.764C648.123 47.8316 648.079 47.9094 648.038 47.9973C647.998 48.0784 647.964 48.1764 647.937 48.2913C647.917 48.4063 647.906 48.5449 647.906 48.7071V49.6502H649.874V50.1066H648.028Z" fill="#5FDDC7" fill-opacity="0.5" style="fill:#5FDDC7;fill:color(display-p3 0.3725 0.8667 0.7804);fill-opacity:0.5;"/>
</svg>
