<svg width="1165" height="649" viewBox="0 0 1165 649" fill="none" xmlns="http://www.w3.org/2000/svg">
<path d="M1100.98 9.10657L1104.6 0H1105.12L1101.5 9.10657H1100.98Z" fill="#5FDDC7" fill-opacity="0.5" style="fill:#5FDDC7;fill:color(display-p3 0.3725 0.8667 0.7804);fill-opacity:0.5;"/>
<path d="M1094.49 9.10657L1098.11 0H1098.63L1095.01 9.10657H1094.49Z" fill="#5FDDC7" fill-opacity="0.5" style="fill:#5FDDC7;fill:color(display-p3 0.3725 0.8667 0.7804);fill-opacity:0.5;"/>
<path d="M1088.67 7.1803L1088.26 6.87607L1089.64 4.96957L1087.48 4.26985L1087.64 3.78308L1089.81 4.47267V2.15039H1090.34V4.47267L1092.5 3.78308L1092.66 4.26985L1090.5 4.96957L1091.9 6.87607L1091.47 7.1803L1090.07 5.25352L1088.67 7.1803Z" fill="#5FDDC7" fill-opacity="0.5" style="fill:#5FDDC7;fill:color(display-p3 0.3725 0.8667 0.7804);fill-opacity:0.5;"/>
<path d="M1082.19 7.18005L1081.77 6.87583L1083.16 4.96933L1081 4.2696L1081.15 3.78284L1083.32 4.47242V2.15015H1083.86V4.47242L1086.02 3.78284L1086.17 4.2696L1084.01 4.96933L1085.41 6.87583L1084.99 7.18005L1083.59 5.25327L1082.19 7.18005Z" fill="#5FDDC7" fill-opacity="0.5" style="fill:#5FDDC7;fill:color(display-p3 0.3725 0.8667 0.7804);fill-opacity:0.5;"/>
<path d="M1163.04 408C1162.82 408 1162.61 407.936 1162.42 407.808C1162.24 407.673 1162.05 407.487 1161.85 407.25C1161.68 407.047 1161.51 406.868 1161.35 406.713C1161.19 406.55 1161.03 406.469 1160.86 406.469C1160.63 406.469 1160.43 406.598 1160.27 406.855C1160.12 407.111 1160 407.466 1159.92 407.919L1159.46 407.818C1159.56 407.257 1159.72 406.811 1159.96 406.479C1160.19 406.148 1160.5 405.982 1160.87 405.982C1161.09 405.982 1161.3 406.05 1161.48 406.185C1161.67 406.314 1161.86 406.496 1162.06 406.733C1162.23 406.936 1162.4 407.118 1162.55 407.28C1162.72 407.436 1162.88 407.514 1163.05 407.514C1163.28 407.514 1163.47 407.385 1163.63 407.128C1163.79 406.871 1163.91 406.517 1163.99 406.064L1164.45 406.165C1164.36 406.726 1164.19 407.172 1163.95 407.504C1163.72 407.835 1163.41 408 1163.04 408Z" fill="#5FDDC7" fill-opacity="0.5" style="fill:#5FDDC7;fill:color(display-p3 0.3725 0.8667 0.7804);fill-opacity:0.5;"/>
<path d="M1156.56 408C1156.34 408 1156.13 407.936 1155.95 407.808C1155.76 407.673 1155.57 407.487 1155.38 407.25C1155.2 407.047 1155.03 406.868 1154.87 406.713C1154.72 406.55 1154.55 406.469 1154.38 406.469C1154.15 406.469 1153.96 406.598 1153.8 406.855C1153.64 407.111 1153.52 407.466 1153.44 407.919L1152.98 407.818C1153.08 407.257 1153.24 406.811 1153.48 406.479C1153.72 406.148 1154.02 405.982 1154.39 405.982C1154.62 405.982 1154.82 406.05 1155 406.185C1155.19 406.314 1155.38 406.496 1155.58 406.733C1155.76 406.936 1155.92 407.118 1156.08 407.28C1156.24 407.436 1156.41 407.514 1156.57 407.514C1156.8 407.514 1157 407.385 1157.15 407.128C1157.31 406.871 1157.44 406.517 1157.52 406.064L1157.97 406.165C1157.88 406.726 1157.71 407.172 1157.48 407.504C1157.24 407.835 1156.94 408 1156.56 408Z" fill="#5FDDC7" fill-opacity="0.5" style="fill:#5FDDC7;fill:color(display-p3 0.3725 0.8667 0.7804);fill-opacity:0.5;"/>
<path d="M1151 407.026L1148.99 403.517H1148.96L1146.95 407.026L1146.49 406.803L1148.66 403H1149.31L1151.48 406.803L1151 407.026Z" fill="#5FDDC7" fill-opacity="0.5" style="fill:#5FDDC7;fill:color(display-p3 0.3725 0.8667 0.7804);fill-opacity:0.5;"/>
<path d="M1144.51 407.026L1142.49 403.517H1142.46L1140.46 407.026L1140 406.803L1142.17 403H1142.82L1144.99 406.803L1144.51 407.026Z" fill="#5FDDC7" fill-opacity="0.5" style="fill:#5FDDC7;fill:color(display-p3 0.3725 0.8667 0.7804);fill-opacity:0.5;"/>
<path d="M215.445 398.988V398.461H220.313V398.988H215.445Z" fill="#5FDDC7" fill-opacity="0.5" style="fill:#5FDDC7;fill:color(display-p3 0.3725 0.8667 0.7804);fill-opacity:0.5;"/>
<path d="M208.953 398.988V398.461H213.821V398.988H208.953Z" fill="#5FDDC7" fill-opacity="0.5" style="fill:#5FDDC7;fill:color(display-p3 0.3725 0.8667 0.7804);fill-opacity:0.5;"/>
<path d="M203.477 394.598V394H206.316V394.598H203.477Z" fill="#5FDDC7" fill-opacity="0.5" style="fill:#5FDDC7;fill:color(display-p3 0.3725 0.8667 0.7804);fill-opacity:0.5;"/>
<path d="M197 394.598V394H199.839V394.598H197Z" fill="#5FDDC7" fill-opacity="0.5" style="fill:#5FDDC7;fill:color(display-p3 0.3725 0.8667 0.7804);fill-opacity:0.5;"/>
<path d="M921.546 147.172V145.519C922.161 145.499 922.641 145.36 922.986 145.103C923.331 144.839 923.503 144.471 923.503 143.998V143.805C923.503 143.399 923.375 143.085 923.118 142.862C922.861 142.639 922.509 142.527 922.063 142.527C921.617 142.527 921.259 142.642 920.988 142.872C920.725 143.102 920.539 143.41 920.43 143.795L919.883 143.602C919.95 143.372 920.045 143.159 920.167 142.963C920.288 142.767 920.441 142.598 920.623 142.456C920.806 142.314 921.019 142.203 921.262 142.122C921.505 142.041 921.779 142 922.083 142C922.719 142 923.219 142.169 923.584 142.507C923.949 142.845 924.132 143.301 924.132 143.876C924.132 144.187 924.078 144.461 923.97 144.697C923.868 144.934 923.726 145.14 923.544 145.316C923.361 145.485 923.148 145.624 922.905 145.732C922.661 145.833 922.401 145.904 922.124 145.945V147.172H921.546ZM921.86 149.271C921.644 149.271 921.488 149.227 921.394 149.139C921.306 149.051 921.262 148.936 921.262 148.794V148.652C921.262 148.517 921.306 148.406 921.394 148.318C921.488 148.223 921.644 148.176 921.86 148.176C922.07 148.176 922.219 148.223 922.306 148.318C922.401 148.406 922.448 148.517 922.448 148.652V148.794C922.448 148.936 922.401 149.051 922.306 149.139C922.219 149.227 922.07 149.271 921.86 149.271Z" fill="#5FDDC7" fill-opacity="0.5" style="fill:#5FDDC7;fill:color(display-p3 0.3725 0.8667 0.7804);fill-opacity:0.5;"/>
<path d="M915.054 147.172V145.519C915.669 145.499 916.149 145.36 916.494 145.103C916.839 144.839 917.011 144.471 917.011 143.998V143.805C917.011 143.399 916.882 143.085 916.626 142.862C916.369 142.639 916.017 142.527 915.571 142.527C915.125 142.527 914.766 142.642 914.496 142.872C914.232 143.102 914.046 143.41 913.938 143.795L913.391 143.602C913.458 143.372 913.553 143.159 913.675 142.963C913.796 142.767 913.948 142.598 914.131 142.456C914.313 142.314 914.526 142.203 914.77 142.122C915.013 142.041 915.287 142 915.591 142C916.227 142 916.727 142.169 917.092 142.507C917.457 142.845 917.64 143.301 917.64 143.876C917.64 144.187 917.586 144.461 917.477 144.697C917.376 144.934 917.234 145.14 917.052 145.316C916.869 145.485 916.656 145.624 916.413 145.732C916.169 145.833 915.909 145.904 915.632 145.945V147.172H915.054ZM915.368 149.271C915.152 149.271 914.996 149.227 914.902 149.139C914.814 149.051 914.77 148.936 914.77 148.794V148.652C914.77 148.517 914.814 148.406 914.902 148.318C914.996 148.223 915.152 148.176 915.368 148.176C915.578 148.176 915.726 148.223 915.814 148.318C915.909 148.406 915.956 148.517 915.956 148.652V148.794C915.956 148.936 915.909 149.051 915.814 149.139C915.726 149.227 915.578 149.271 915.368 149.271Z" fill="#5FDDC7" fill-opacity="0.5" style="fill:#5FDDC7;fill:color(display-p3 0.3725 0.8667 0.7804);fill-opacity:0.5;"/>
<path d="M908.959 147.062L908.766 144.496V142.123H909.395V144.496L909.202 147.062H908.959ZM909.08 149.272C908.864 149.272 908.712 149.228 908.624 149.141C908.536 149.053 908.492 148.938 908.492 148.796V148.654C908.492 148.519 908.536 148.407 908.624 148.319C908.712 148.225 908.864 148.177 909.08 148.177C909.297 148.177 909.449 148.225 909.537 148.319C909.625 148.407 909.669 148.519 909.669 148.654V148.796C909.669 148.938 909.625 149.053 909.537 149.141C909.449 149.228 909.297 149.272 909.08 149.272Z" fill="#5FDDC7" fill-opacity="0.5" style="fill:#5FDDC7;fill:color(display-p3 0.3725 0.8667 0.7804);fill-opacity:0.5;"/>
<path d="M902.466 147.062L902.274 144.496V142.123H902.903V144.496L902.71 147.062H902.466ZM902.588 149.272C902.372 149.272 902.22 149.228 902.132 149.141C902.044 149.053 902 148.938 902 148.796V148.654C902 148.519 902.044 148.407 902.132 148.319C902.22 148.225 902.372 148.177 902.588 148.177C902.805 148.177 902.957 148.225 903.045 148.319C903.132 148.407 903.176 148.519 903.176 148.654V148.796C903.176 148.938 903.132 149.053 903.045 149.141C902.957 149.228 902.805 149.272 902.588 149.272Z" fill="#5FDDC7" fill-opacity="0.5" style="fill:#5FDDC7;fill:color(display-p3 0.3725 0.8667 0.7804);fill-opacity:0.5;"/>
<path d="M19.5459 413.172V411.519C20.1611 411.499 20.6411 411.36 20.9859 411.103C21.3307 410.839 21.5031 410.471 21.5031 409.998V409.805C21.5031 409.399 21.3747 409.085 21.1178 408.862C20.8609 408.639 20.5093 408.527 20.0631 408.527C19.6169 408.527 19.2586 408.642 18.9882 408.872C18.7245 409.102 18.5386 409.41 18.4304 409.795L17.8828 409.602C17.9504 409.372 18.0451 409.159 18.1668 408.963C18.2885 408.767 18.4406 408.598 18.6231 408.456C18.8056 408.314 19.0186 408.203 19.262 408.122C19.5054 408.041 19.7792 408 20.0834 408C20.7189 408 21.2192 408.169 21.5843 408.507C21.9493 408.845 22.1319 409.301 22.1319 409.876C22.1319 410.187 22.0778 410.461 21.9696 410.697C21.8682 410.934 21.7262 411.14 21.5437 411.316C21.3612 411.485 21.1482 411.624 20.9048 411.732C20.6614 411.833 20.4011 411.904 20.124 411.945V413.172H19.5459ZM19.8603 415.271C19.644 415.271 19.4885 415.227 19.3938 415.139C19.3059 415.051 19.262 414.936 19.262 414.794V414.652C19.262 414.517 19.3059 414.406 19.3938 414.318C19.4885 414.223 19.644 414.176 19.8603 414.176C20.0699 414.176 20.2186 414.223 20.3065 414.318C20.4011 414.406 20.4485 414.517 20.4485 414.652V414.794C20.4485 414.936 20.4011 415.051 20.3065 415.139C20.2186 415.227 20.0699 415.271 19.8603 415.271Z" fill="#5FDDC7" fill-opacity="0.5" style="fill:#5FDDC7;fill:color(display-p3 0.3725 0.8667 0.7804);fill-opacity:0.5;"/>
<path d="M13.0537 413.172V411.519C13.669 411.499 14.149 411.36 14.4938 411.103C14.8385 410.839 15.0109 410.471 15.0109 409.998V409.805C15.0109 409.399 14.8825 409.085 14.6256 408.862C14.3687 408.639 14.0171 408.527 13.5709 408.527C13.1247 408.527 12.7664 408.642 12.496 408.872C12.2323 409.102 12.0464 409.41 11.9382 409.795L11.3906 409.602C11.4582 409.372 11.5529 409.159 11.6746 408.963C11.7963 408.767 11.9484 408.598 12.1309 408.456C12.3135 408.314 12.5264 408.203 12.7698 408.122C13.0132 408.041 13.287 408 13.5912 408C14.2267 408 14.727 408.169 15.0921 408.507C15.4571 408.845 15.6397 409.301 15.6397 409.876C15.6397 410.187 15.5856 410.461 15.4774 410.697C15.376 410.934 15.234 411.14 15.0515 411.316C14.869 411.485 14.656 411.624 14.4126 411.732C14.1692 411.833 13.909 411.904 13.6318 411.945V413.172H13.0537ZM13.3681 415.271C13.1518 415.271 12.9963 415.227 12.9016 415.139C12.8137 415.051 12.7698 414.936 12.7698 414.794V414.652C12.7698 414.517 12.8137 414.406 12.9016 414.318C12.9963 414.223 13.1518 414.176 13.3681 414.176C13.5777 414.176 13.7264 414.223 13.8143 414.318C13.909 414.406 13.9563 414.517 13.9563 414.652V414.794C13.9563 414.936 13.909 415.051 13.8143 415.139C13.7264 415.227 13.5777 415.271 13.3681 415.271Z" fill="#5FDDC7" fill-opacity="0.5" style="fill:#5FDDC7;fill:color(display-p3 0.3725 0.8667 0.7804);fill-opacity:0.5;"/>
<path d="M6.95867 413.062L6.76599 410.496V408.123H7.39473V410.496L7.20205 413.062H6.95867ZM7.08036 415.272C6.86402 415.272 6.71191 415.228 6.62402 415.141C6.53613 415.053 6.49219 414.938 6.49219 414.796V414.654C6.49219 414.519 6.53613 414.407 6.62402 414.319C6.71191 414.225 6.86402 414.177 7.08036 414.177C7.2967 414.177 7.44882 414.225 7.53671 414.319C7.62459 414.407 7.66854 414.519 7.66854 414.654V414.796C7.66854 414.938 7.62459 415.053 7.53671 415.141C7.44882 415.228 7.2967 415.272 7.08036 415.272Z" fill="#5FDDC7" fill-opacity="0.5" style="fill:#5FDDC7;fill:color(display-p3 0.3725 0.8667 0.7804);fill-opacity:0.5;"/>
<path d="M0.466483 413.062L0.273805 410.496V408.123H0.902544V410.496L0.709866 413.062H0.466483ZM0.588175 415.272C0.371835 415.272 0.21972 415.228 0.131832 415.141C0.0439441 415.053 0 414.938 0 414.796V414.654C0 414.519 0.0439441 414.407 0.131832 414.319C0.21972 414.225 0.371835 414.177 0.588175 414.177C0.804515 414.177 0.956629 414.225 1.04452 414.319C1.13241 414.407 1.17635 414.519 1.17635 414.654V414.796C1.17635 414.938 1.13241 415.053 1.04452 415.141C0.956629 415.228 0.804515 415.272 0.588175 415.272Z" fill="#5FDDC7" fill-opacity="0.5" style="fill:#5FDDC7;fill:color(display-p3 0.3725 0.8667 0.7804);fill-opacity:0.5;"/>
<path d="M40.2988 639C40.5084 639 40.6639 639.057 40.7653 639.172C40.8734 639.287 40.9275 639.436 40.9275 639.619V640.43C40.9275 640.619 40.9072 640.785 40.8667 640.927C40.8329 641.069 40.7889 641.194 40.7348 641.302C40.6875 641.403 40.63 641.495 40.5624 641.576C40.5016 641.65 40.4475 641.721 40.4002 641.789C40.265 641.951 40.1737 642.083 40.1264 642.184C40.0791 642.286 40.0554 642.394 40.0554 642.509C40.0554 642.793 40.1838 643.002 40.4407 643.138C40.7044 643.266 41.083 643.33 41.5765 643.33H42.327V643.776H41.5765C41.083 643.776 40.7044 643.844 40.4407 643.979C40.1838 644.108 40.0554 644.314 40.0554 644.598C40.0554 644.713 40.0791 644.821 40.1264 644.922C40.1737 645.024 40.265 645.156 40.4002 645.318C40.4475 645.385 40.5016 645.46 40.5624 645.541C40.63 645.615 40.6875 645.707 40.7348 645.815C40.7889 645.916 40.8329 646.038 40.8667 646.18C40.9072 646.322 40.9275 646.487 40.9275 646.677V647.488C40.9275 647.671 40.8734 647.819 40.7653 647.934C40.6639 648.049 40.5084 648.107 40.2988 648.107H38.4531V647.65H40.4205V646.707C40.4205 646.545 40.4069 646.406 40.3799 646.291C40.3596 646.176 40.3292 646.078 40.2886 645.997C40.2481 645.909 40.2007 645.832 40.1467 645.764C40.0993 645.696 40.052 645.632 40.0047 645.571C39.8695 645.396 39.7579 645.233 39.67 645.085C39.5889 644.936 39.5483 644.77 39.5483 644.588C39.5483 644.297 39.6531 644.064 39.8627 643.888C40.0723 643.712 40.3495 643.607 40.6943 643.574V643.533C40.3495 643.499 40.0723 643.394 39.8627 643.219C39.6531 643.043 39.5483 642.81 39.5483 642.519C39.5483 642.336 39.5889 642.171 39.67 642.022C39.7579 641.873 39.8695 641.711 40.0047 641.535C40.052 641.474 40.0993 641.41 40.1467 641.343C40.2007 641.275 40.2481 641.201 40.2886 641.119C40.3292 641.032 40.3596 640.93 40.3799 640.815C40.4069 640.7 40.4205 640.562 40.4205 640.399V639.456H38.4531V639H40.2988Z" fill="#5FDDC7" fill-opacity="0.5" style="fill:#5FDDC7;fill:color(display-p3 0.3725 0.8667 0.7804);fill-opacity:0.5;"/>
<path d="M34.503 639V648.107H31.8359V647.65H34.0061V639.456H31.8359V639H34.503Z" fill="#5FDDC7" fill-opacity="0.5" style="fill:#5FDDC7;fill:color(display-p3 0.3725 0.8667 0.7804);fill-opacity:0.5;"/>
<path d="M26.8125 648.107V639H29.4796V639.456H27.3094V647.65H29.4796V648.107H26.8125Z" fill="#5FDDC7" fill-opacity="0.5" style="fill:#5FDDC7;fill:color(display-p3 0.3725 0.8667 0.7804);fill-opacity:0.5;"/>
<path d="M21.0282 648.107C20.8186 648.107 20.6597 648.049 20.5516 647.934C20.4502 647.819 20.3995 647.671 20.3995 647.488V646.677C20.3995 646.487 20.4164 646.322 20.4502 646.18C20.4907 646.038 20.5347 645.916 20.582 645.815C20.6361 645.707 20.6935 645.615 20.7544 645.541C20.8152 645.46 20.8727 645.385 20.9268 645.318C21.062 645.156 21.1533 645.024 21.2006 644.922C21.2479 644.821 21.2716 644.713 21.2716 644.598C21.2716 644.314 21.1397 644.108 20.8761 643.979C20.6192 643.844 20.244 643.776 19.7504 643.776H19V643.33H19.7504C20.244 643.33 20.6192 643.266 20.8761 643.138C21.1397 643.002 21.2716 642.793 21.2716 642.509C21.2716 642.394 21.2479 642.286 21.2006 642.184C21.1533 642.083 21.062 641.951 20.9268 641.789C20.8727 641.721 20.8152 641.65 20.7544 641.576C20.6935 641.495 20.6361 641.403 20.582 641.302C20.5347 641.194 20.4907 641.069 20.4502 640.927C20.4164 640.785 20.3995 640.619 20.3995 640.43V639.619C20.3995 639.436 20.4502 639.287 20.5516 639.172C20.6597 639.057 20.8186 639 21.0282 639H22.8738V639.456H20.9065V640.399C20.9065 640.562 20.9166 640.7 20.9369 640.815C20.964 640.93 20.9978 641.032 21.0383 641.119C21.0789 641.201 21.1228 641.275 21.1702 641.343C21.2242 641.41 21.275 641.474 21.3223 641.535C21.4575 641.711 21.5657 641.873 21.6468 642.022C21.7347 642.171 21.7786 642.336 21.7786 642.519C21.7786 642.81 21.6738 643.043 21.4642 643.219C21.2547 643.394 20.9775 643.499 20.6327 643.533V643.574C20.9775 643.607 21.2547 643.712 21.4642 643.888C21.6738 644.064 21.7786 644.297 21.7786 644.588C21.7786 644.77 21.7347 644.936 21.6468 645.085C21.5657 645.233 21.4575 645.396 21.3223 645.571C21.275 645.632 21.2242 645.696 21.1702 645.764C21.1228 645.832 21.0789 645.909 21.0383 645.997C20.9978 646.078 20.964 646.176 20.9369 646.291C20.9166 646.406 20.9065 646.545 20.9065 646.707V647.65H22.8738V648.107H21.0282Z" fill="#5FDDC7" fill-opacity="0.5" style="fill:#5FDDC7;fill:color(display-p3 0.3725 0.8667 0.7804);fill-opacity:0.5;"/>
<path d="M992.536 282.943H991.086V282.456H992.627L992.901 280.915H991.451V280.428H992.982L993.388 278.146H993.925L992.678 285.225H992.141L992.536 282.943ZM995.213 278.146H995.751L995.355 280.428H996.805V280.915H995.264L994.99 282.456H996.44V282.943H994.909L994.503 285.225H993.966L995.213 278.146Z" fill="#5FDDC7" fill-opacity="0.5" style="fill:#5FDDC7;fill:color(display-p3 0.3725 0.8667 0.7804);fill-opacity:0.5;"/>
<path d="M987.317 285.336C986.735 285.309 986.262 285.187 985.897 284.971C985.539 284.754 985.235 284.477 984.984 284.139L985.431 283.774C985.674 284.085 985.941 284.332 986.232 284.514C986.522 284.69 986.884 284.792 987.317 284.819V281.858L987.033 281.807C986.681 281.746 986.387 281.655 986.151 281.533C985.921 281.411 985.735 281.266 985.593 281.097C985.451 280.928 985.349 280.742 985.289 280.539C985.235 280.33 985.207 280.113 985.207 279.89C985.207 279.309 985.393 278.863 985.765 278.552C986.144 278.234 986.661 278.061 987.317 278.034V277H987.773V278.034C988.267 278.061 988.679 278.17 989.01 278.359C989.342 278.541 989.622 278.792 989.852 279.109L989.396 279.444C989.206 279.187 988.983 278.984 988.726 278.836C988.476 278.687 988.158 278.596 987.773 278.562V281.35L988.077 281.401C988.436 281.462 988.733 281.557 988.97 281.685C989.206 281.807 989.392 281.952 989.528 282.121C989.669 282.29 989.768 282.479 989.822 282.689C989.882 282.899 989.913 283.115 989.913 283.338C989.913 283.947 989.724 284.423 989.345 284.768C988.973 285.106 988.449 285.295 987.773 285.336V286.37H987.317V285.336ZM985.796 279.89C985.796 280.309 985.917 280.624 986.161 280.833C986.404 281.036 986.749 281.178 987.195 281.259L987.317 281.279V278.552C986.83 278.585 986.455 278.714 986.191 278.937C985.927 279.153 985.796 279.471 985.796 279.89ZM989.325 283.348C989.325 282.902 989.196 282.578 988.939 282.375C988.689 282.165 988.331 282.023 987.864 281.949L987.773 281.928V284.809C988.267 284.775 988.649 284.636 988.919 284.393C989.189 284.143 989.325 283.794 989.325 283.348Z" fill="#5FDDC7" fill-opacity="0.5" style="fill:#5FDDC7;fill:color(display-p3 0.3725 0.8667 0.7804);fill-opacity:0.5;"/>
<path d="M979.675 281.532C979.465 281.532 979.269 281.498 979.087 281.431C978.911 281.356 978.756 281.248 978.62 281.106C978.492 280.958 978.391 280.775 978.316 280.559C978.242 280.336 978.205 280.075 978.205 279.778C978.205 279.48 978.242 279.223 978.316 279.007C978.391 278.784 978.492 278.601 978.62 278.459C978.756 278.311 978.911 278.203 979.087 278.135C979.269 278.061 979.465 278.023 979.675 278.023C979.885 278.023 980.077 278.061 980.253 278.135C980.429 278.203 980.581 278.311 980.709 278.459C980.845 278.601 980.949 278.784 981.024 279.007C981.098 279.223 981.135 279.48 981.135 279.778C981.135 280.075 981.098 280.336 981.024 280.559C980.949 280.775 980.845 280.958 980.709 281.106C980.581 281.248 980.429 281.356 980.253 281.431C980.077 281.498 979.885 281.532 979.675 281.532ZM979.675 281.127C979.939 281.127 980.162 281.035 980.344 280.853C980.534 280.663 980.628 280.376 980.628 279.991V279.565C980.628 279.18 980.534 278.896 980.344 278.713C980.162 278.524 979.939 278.429 979.675 278.429C979.405 278.429 979.175 278.524 978.985 278.713C978.803 278.896 978.712 279.18 978.712 279.565V279.991C978.712 280.376 978.803 280.663 978.985 280.853C979.175 281.035 979.405 281.127 979.675 281.127ZM983.275 278.145H983.802L982.109 281.187H981.582L983.275 278.145ZM979.858 282.181H980.385L978.691 285.224H978.164L979.858 282.181ZM982.312 285.345C982.102 285.345 981.906 285.308 981.724 285.234C981.541 285.166 981.382 285.061 981.247 284.919C981.118 284.771 981.017 284.588 980.943 284.372C980.868 284.149 980.831 283.888 980.831 283.591C980.831 283.293 980.868 283.036 980.943 282.82C981.017 282.597 981.118 282.414 981.247 282.272C981.382 282.124 981.538 282.016 981.713 281.948C981.896 281.874 982.092 281.836 982.302 281.836C982.511 281.836 982.704 281.874 982.88 281.948C983.055 282.016 983.207 282.124 983.336 282.272C983.471 282.414 983.576 282.597 983.65 282.82C983.725 283.036 983.762 283.293 983.762 283.591C983.762 283.888 983.725 284.149 983.65 284.372C983.576 284.588 983.475 284.771 983.346 284.919C983.218 285.061 983.066 285.166 982.89 285.234C982.714 285.308 982.521 285.345 982.312 285.345ZM982.302 284.94C982.565 284.94 982.788 284.848 982.971 284.666C983.16 284.476 983.255 284.189 983.255 283.804V283.378C983.255 282.992 983.16 282.709 982.971 282.526C982.788 282.337 982.565 282.242 982.302 282.242C982.031 282.242 981.801 282.337 981.612 282.526C981.429 282.709 981.338 282.992 981.338 283.378V283.804C981.338 284.189 981.429 284.476 981.612 284.666C981.801 284.848 982.031 284.94 982.302 284.94Z" fill="#5FDDC7" fill-opacity="0.5" style="fill:#5FDDC7;fill:color(display-p3 0.3725 0.8667 0.7804);fill-opacity:0.5;"/>
<path d="M976.513 282.172L974.495 278.664H974.464L972.456 282.172L972 281.949L974.17 278.146H974.819L976.989 281.949L976.513 282.172Z" fill="#5FDDC7" fill-opacity="0.5" style="fill:#5FDDC7;fill:color(display-p3 0.3725 0.8667 0.7804);fill-opacity:0.5;"/>
<path d="M772.536 15.9432H771.086V15.4564H772.627L772.901 13.915H771.451V13.4282H772.982L773.388 11.1465H773.925L772.678 18.2249H772.141L772.536 15.9432ZM775.213 11.1465H775.751L775.355 13.4282H776.805V13.915H775.264L774.99 15.4564H776.44V15.9432H774.909L774.503 18.2249H773.966L775.213 11.1465Z" fill="#5FDDC7" fill-opacity="0.5" style="fill:#5FDDC7;fill:color(display-p3 0.3725 0.8667 0.7804);fill-opacity:0.5;"/>
<path d="M767.317 18.3359C766.735 18.3088 766.262 18.1871 765.897 17.9708C765.539 17.7544 765.235 17.4773 764.984 17.1392L765.431 16.7742C765.674 17.0851 765.941 17.3319 766.232 17.5144C766.522 17.6902 766.884 17.7916 767.317 17.8187V14.8575L767.033 14.8068C766.681 14.746 766.387 14.6547 766.151 14.533C765.921 14.4113 765.735 14.266 765.593 14.0969C765.451 13.9279 765.349 13.742 765.289 13.5392C765.235 13.3296 765.207 13.1133 765.207 12.8902C765.207 12.3088 765.393 11.8626 765.765 11.5516C766.144 11.2338 766.661 11.0614 767.317 11.0344V10H767.773V11.0344C768.267 11.0614 768.679 11.1696 769.01 11.3589C769.342 11.5414 769.622 11.7916 769.852 12.1093L769.396 12.444C769.206 12.1871 768.983 11.9842 768.726 11.8355C768.476 11.6868 768.158 11.5955 767.773 11.5617V14.3505L768.077 14.4012C768.436 14.462 768.733 14.5567 768.97 14.6851C769.206 14.8068 769.392 14.9522 769.528 15.1212C769.669 15.2902 769.768 15.4795 769.822 15.6891C769.882 15.8986 769.913 16.115 769.913 16.3381C769.913 16.9465 769.724 17.4232 769.345 17.768C768.973 18.106 768.449 18.2953 767.773 18.3359V19.3702H767.317V18.3359ZM765.796 12.8902C765.796 13.3093 765.917 13.6237 766.161 13.8333C766.404 14.0361 766.749 14.1781 767.195 14.2592L767.317 14.2795V11.5516C766.83 11.5854 766.455 11.7138 766.191 11.9369C765.927 12.1533 765.796 12.471 765.796 12.8902ZM769.325 16.3482C769.325 15.902 769.196 15.5775 768.939 15.3747C768.689 15.1651 768.331 15.0231 767.864 14.9488L767.773 14.9285V17.8085C768.267 17.7747 768.649 17.6361 768.919 17.3927C769.189 17.1426 769.325 16.7944 769.325 16.3482Z" fill="#5FDDC7" fill-opacity="0.5" style="fill:#5FDDC7;fill:color(display-p3 0.3725 0.8667 0.7804);fill-opacity:0.5;"/>
<path d="M759.675 14.5322C759.465 14.5322 759.269 14.4984 759.087 14.4308C758.911 14.3564 758.756 14.2483 758.62 14.1063C758.492 13.9576 758.391 13.775 758.316 13.5587C758.242 13.3356 758.205 13.0753 758.205 12.7778C758.205 12.4804 758.242 12.2234 758.316 12.0071C758.391 11.784 758.492 11.6015 758.62 11.4595C758.756 11.3108 758.911 11.2026 759.087 11.135C759.269 11.0606 759.465 11.0234 759.675 11.0234C759.885 11.0234 760.077 11.0606 760.253 11.135C760.429 11.2026 760.581 11.3108 760.709 11.4595C760.845 11.6015 760.949 11.784 761.024 12.0071C761.098 12.2234 761.135 12.4804 761.135 12.7778C761.135 13.0753 761.098 13.3356 761.024 13.5587C760.949 13.775 760.845 13.9576 760.709 14.1063C760.581 14.2483 760.429 14.3564 760.253 14.4308C760.077 14.4984 759.885 14.5322 759.675 14.5322ZM759.675 14.1266C759.939 14.1266 760.162 14.0353 760.344 13.8528C760.534 13.6635 760.628 13.3761 760.628 12.9908V12.5649C760.628 12.1795 760.534 11.8956 760.344 11.713C760.162 11.5237 759.939 11.4291 759.675 11.4291C759.405 11.4291 759.175 11.5237 758.985 11.713C758.803 11.8956 758.712 12.1795 758.712 12.5649V12.9908C758.712 13.3761 758.803 13.6635 758.985 13.8528C759.175 14.0353 759.405 14.1266 759.675 14.1266ZM763.275 11.1451H763.802L762.109 14.1874H761.582L763.275 11.1451ZM759.858 15.1812H760.385L758.691 18.2235H758.164L759.858 15.1812ZM762.312 18.3452C762.102 18.3452 761.906 18.308 761.724 18.2336C761.541 18.166 761.382 18.0613 761.247 17.9193C761.118 17.7705 761.017 17.588 760.943 17.3717C760.868 17.1486 760.831 16.8883 760.831 16.5908C760.831 16.2933 760.868 16.0364 760.943 15.8201C761.017 15.597 761.118 15.4145 761.247 15.2725C761.382 15.1238 761.538 15.0156 761.713 14.948C761.896 14.8736 762.092 14.8364 762.302 14.8364C762.511 14.8364 762.704 14.8736 762.88 14.948C763.055 15.0156 763.207 15.1238 763.336 15.2725C763.471 15.4145 763.576 15.597 763.65 15.8201C763.725 16.0364 763.762 16.2933 763.762 16.5908C763.762 16.8883 763.725 17.1486 763.65 17.3717C763.576 17.588 763.475 17.7705 763.346 17.9193C763.218 18.0613 763.066 18.166 762.89 18.2336C762.714 18.308 762.521 18.3452 762.312 18.3452ZM762.302 17.9396C762.565 17.9396 762.788 17.8483 762.971 17.6658C763.16 17.4765 763.255 17.1891 763.255 16.8038V16.3779C763.255 15.9925 763.16 15.7086 762.971 15.526C762.788 15.3367 762.565 15.2421 762.302 15.2421C762.031 15.2421 761.801 15.3367 761.612 15.526C761.429 15.7086 761.338 15.9925 761.338 16.3779V16.8038C761.338 17.1891 761.429 17.4765 761.612 17.6658C761.801 17.8483 762.031 17.9396 762.302 17.9396Z" fill="#5FDDC7" fill-opacity="0.5" style="fill:#5FDDC7;fill:color(display-p3 0.3725 0.8667 0.7804);fill-opacity:0.5;"/>
<path d="M756.513 15.1724L754.495 11.6637H754.464L752.456 15.1724L752 14.9493L754.17 11.1465H754.819L756.989 14.9493L756.513 15.1724Z" fill="#5FDDC7" fill-opacity="0.5" style="fill:#5FDDC7;fill:color(display-p3 0.3725 0.8667 0.7804);fill-opacity:0.5;"/>
<path d="M953.227 460.141V459.543H956.066V460.141H953.227Z" fill="#5FDDC7" fill-opacity="0.5" style="fill:#5FDDC7;fill:color(display-p3 0.3725 0.8667 0.7804);fill-opacity:0.5;"/>
<path d="M946.734 460.141V459.543H949.574V460.141H946.734Z" fill="#5FDDC7" fill-opacity="0.5" style="fill:#5FDDC7;fill:color(display-p3 0.3725 0.8667 0.7804);fill-opacity:0.5;"/>
<path d="M939.484 462.081L943.287 459.87V459.819L939.484 457.608V457L943.845 459.556V460.123L939.484 462.679V462.081Z" fill="#5FDDC7" fill-opacity="0.5" style="fill:#5FDDC7;fill:color(display-p3 0.3725 0.8667 0.7804);fill-opacity:0.5;"/>
<path d="M933 460.123V459.556L937.361 457V457.598L933.558 459.809V459.86L937.361 462.07V462.679L933 460.123Z" fill="#5FDDC7" fill-opacity="0.5" style="fill:#5FDDC7;fill:color(display-p3 0.3725 0.8667 0.7804);fill-opacity:0.5;"/>
<path d="M1082.08 592.012V601.451H1079.31V600.978H1081.56V592.485H1079.31V592.012H1082.08Z" fill="#5FDDC7" fill-opacity="0.5" style="fill:#5FDDC7;fill:color(display-p3 0.3725 0.8667 0.7804);fill-opacity:0.5;"/>
<path d="M1074.53 601.451V592.012H1077.3V592.485H1075.05V600.978H1077.3V601.451H1074.53Z" fill="#5FDDC7" fill-opacity="0.5" style="fill:#5FDDC7;fill:color(display-p3 0.3725 0.8667 0.7804);fill-opacity:0.5;"/>
<path d="M1068.5 598.812H1069.51L1068.45 601.608H1067.95L1068.5 598.812ZM1068.85 595.627C1068.63 595.627 1068.47 595.582 1068.38 595.491C1068.29 595.4 1068.24 595.281 1068.24 595.133V594.986C1068.24 594.846 1068.29 594.73 1068.38 594.639C1068.47 594.541 1068.63 594.492 1068.85 594.492C1069.07 594.492 1069.23 594.541 1069.32 594.639C1069.41 594.73 1069.46 594.846 1069.46 594.986V595.133C1069.46 595.281 1069.41 595.4 1069.32 595.491C1069.23 595.582 1069.07 595.627 1068.85 595.627Z" fill="#5FDDC7" fill-opacity="0.5" style="fill:#5FDDC7;fill:color(display-p3 0.3725 0.8667 0.7804);fill-opacity:0.5;"/>
<path d="M1064.64 596.836L1062.55 593.199H1062.52L1060.43 596.836L1059.96 596.605L1062.21 592.663H1062.88L1065.13 596.605L1064.64 596.836Z" fill="#5FDDC7" fill-opacity="0.5" style="fill:#5FDDC7;fill:color(display-p3 0.3725 0.8667 0.7804);fill-opacity:0.5;"/>
<path d="M179.041 548C178.818 548 178.611 547.936 178.422 547.808C178.24 547.673 178.05 547.487 177.854 547.25C177.678 547.047 177.509 546.868 177.347 546.713C177.192 546.55 177.029 546.469 176.86 546.469C176.631 546.469 176.434 546.598 176.272 546.855C176.117 547.111 175.998 547.466 175.917 547.919L175.461 547.818C175.556 547.257 175.721 546.811 175.958 546.479C176.194 546.148 176.499 545.982 176.871 545.982C177.094 545.982 177.296 546.05 177.479 546.185C177.668 546.314 177.861 546.496 178.057 546.733C178.233 546.936 178.398 547.118 178.554 547.28C178.716 547.436 178.882 547.514 179.051 547.514C179.281 547.514 179.473 547.385 179.629 547.128C179.791 546.871 179.913 546.517 179.994 546.064L180.45 546.165C180.356 546.726 180.19 547.172 179.953 547.504C179.717 547.835 179.413 548 179.041 548Z" fill="#5FDDC7" fill-opacity="0.5" style="fill:#5FDDC7;fill:color(display-p3 0.3725 0.8667 0.7804);fill-opacity:0.5;"/>
<path d="M172.564 548C172.341 548 172.135 547.936 171.946 547.808C171.763 547.673 171.574 547.487 171.378 547.25C171.202 547.047 171.033 546.868 170.871 546.713C170.715 546.55 170.553 546.469 170.384 546.469C170.154 546.469 169.958 546.598 169.796 546.855C169.64 547.111 169.522 547.466 169.441 547.919L168.984 547.818C169.079 547.257 169.245 546.811 169.481 546.479C169.718 546.148 170.022 545.982 170.394 545.982C170.617 545.982 170.82 546.05 171.002 546.185C171.192 546.314 171.384 546.496 171.58 546.733C171.756 546.936 171.922 547.118 172.077 547.28C172.24 547.436 172.405 547.514 172.574 547.514C172.804 547.514 172.997 547.385 173.152 547.128C173.315 546.871 173.436 546.517 173.517 546.064L173.974 546.165C173.879 546.726 173.713 547.172 173.477 547.504C173.24 547.835 172.936 548 172.564 548Z" fill="#5FDDC7" fill-opacity="0.5" style="fill:#5FDDC7;fill:color(display-p3 0.3725 0.8667 0.7804);fill-opacity:0.5;"/>
<path d="M167.005 547.026L164.987 543.517H164.956L162.949 547.026L162.492 546.803L164.662 543H165.311L167.482 546.803L167.005 547.026Z" fill="#5FDDC7" fill-opacity="0.5" style="fill:#5FDDC7;fill:color(display-p3 0.3725 0.8667 0.7804);fill-opacity:0.5;"/>
<path d="M160.513 547.026L158.495 543.517H158.464L156.456 547.026L156 546.803L158.17 543H158.819L160.989 546.803L160.513 547.026Z" fill="#5FDDC7" fill-opacity="0.5" style="fill:#5FDDC7;fill:color(display-p3 0.3725 0.8667 0.7804);fill-opacity:0.5;"/>
</svg>
