<svg width="1068" height="373" viewBox="0 0 1068 373" fill="none" xmlns="http://www.w3.org/2000/svg">
<path d="M57.207 94.0477V84.6016H57.7326V94.0477H57.207Z" fill="#5FDDC7" fill-opacity="0.5" style="fill:#5FDDC7;fill:color(display-p3 0.3725 0.8667 0.7804);fill-opacity:0.5;"/>
<path d="M51.0731 84.6016C51.2904 84.6016 51.4515 84.6612 51.5566 84.7804C51.6688 84.8996 51.7248 85.0539 51.7248 85.2432V86.0847C51.7248 86.2811 51.7038 86.4529 51.6618 86.6002C51.6267 86.7474 51.5812 86.8772 51.5251 86.9894C51.4761 87.0946 51.4165 87.1892 51.3464 87.2734C51.2834 87.3505 51.2273 87.4242 51.1783 87.4943C51.0381 87.6626 50.9435 87.7994 50.8945 87.9045C50.8454 88.0097 50.8209 88.1219 50.8209 88.2412C50.8209 88.5357 50.954 88.7531 51.2203 88.8933C51.4936 89.0266 51.886 89.0932 52.3975 89.0932H53.1753V89.556H52.3975C51.886 89.556 51.4936 89.6262 51.2203 89.7664C50.954 89.8997 50.8209 90.1135 50.8209 90.4081C50.8209 90.5273 50.8454 90.6395 50.8945 90.7447C50.9435 90.8499 51.0381 90.9866 51.1783 91.1549C51.2273 91.2251 51.2834 91.3022 51.3464 91.3863C51.4165 91.4635 51.4761 91.5582 51.5251 91.6704C51.5812 91.7756 51.6267 91.9018 51.6618 92.049C51.7038 92.1963 51.7248 92.3681 51.7248 92.5645V93.406C51.7248 93.5953 51.6688 93.7496 51.5566 93.8688C51.4515 93.9881 51.2904 94.0477 51.0731 94.0477H49.1602V93.5743H51.1993V92.596C51.1993 92.4277 51.1853 92.284 51.1572 92.1648C51.1362 92.0455 51.1047 91.9439 51.0626 91.8597C51.0206 91.7685 50.9715 91.6879 50.9155 91.6178C50.8664 91.5476 50.8174 91.481 50.7683 91.4179C50.6282 91.2356 50.5126 91.0673 50.4215 90.913C50.3374 90.7587 50.2953 90.5869 50.2953 90.3976C50.2953 90.096 50.4039 89.8541 50.6212 89.6717C50.8384 89.4894 51.1257 89.3807 51.4831 89.3457V89.3036C51.1257 89.2685 50.8384 89.1598 50.6212 88.9775C50.4039 88.7952 50.2953 88.5532 50.2953 88.2517C50.2953 88.0623 50.3374 87.8905 50.4215 87.7362C50.5126 87.582 50.6282 87.4137 50.7683 87.2313C50.8174 87.1682 50.8664 87.1016 50.9155 87.0315C50.9715 86.9613 51.0206 86.8842 51.0626 86.8C51.1047 86.7089 51.1362 86.6037 51.1572 86.4845C51.1853 86.3653 51.1993 86.2215 51.1993 86.0532V85.0749H49.1602V84.6016H51.0731Z" fill="#5FDDC7" fill-opacity="0.5" style="fill:#5FDDC7;fill:color(display-p3 0.3725 0.8667 0.7804);fill-opacity:0.5;"/>
<path d="M44.9616 94.0477C44.7443 94.0477 44.5797 93.9881 44.4675 93.8688C44.3624 93.7496 44.3099 93.5953 44.3099 93.406V92.5645C44.3099 92.3681 44.3274 92.1963 44.3624 92.049C44.4045 91.9018 44.45 91.7756 44.4991 91.6704C44.5551 91.5582 44.6147 91.4635 44.6778 91.3863C44.7408 91.3022 44.8004 91.2251 44.8565 91.1549C44.9966 90.9866 45.0912 90.8499 45.1402 90.7447C45.1893 90.6395 45.2138 90.5273 45.2138 90.4081C45.2138 90.1135 45.0772 89.8997 44.8039 89.7664C44.5376 89.6262 44.1487 89.556 43.6372 89.556H42.8594V89.0932H43.6372C44.1487 89.0932 44.5376 89.0266 44.8039 88.8933C45.0772 88.7531 45.2138 88.5357 45.2138 88.2412C45.2138 88.1219 45.1893 88.0097 45.1402 87.9045C45.0912 87.7994 44.9966 87.6626 44.8565 87.4943C44.8004 87.4242 44.7408 87.3505 44.6778 87.2734C44.6147 87.1892 44.5551 87.0946 44.4991 86.9894C44.45 86.8772 44.4045 86.7474 44.3624 86.6002C44.3274 86.4529 44.3099 86.2811 44.3099 86.0847V85.2432C44.3099 85.0539 44.3624 84.8996 44.4675 84.7804C44.5797 84.6612 44.7443 84.6016 44.9616 84.6016H46.8745V85.0749H44.8354V86.0532C44.8354 86.2215 44.8459 86.3653 44.867 86.4845C44.895 86.6037 44.93 86.7089 44.9721 86.8C45.0141 86.8842 45.0597 86.9613 45.1087 87.0315C45.1648 87.1016 45.2173 87.1682 45.2664 87.2313C45.4065 87.4137 45.5186 87.582 45.6027 87.7362C45.6938 87.8905 45.7394 88.0623 45.7394 88.2517C45.7394 88.5532 45.6308 88.7952 45.4135 88.9775C45.1963 89.1598 44.909 89.2685 44.5516 89.3036V89.3457C44.909 89.3807 45.1963 89.4894 45.4135 89.6717C45.6308 89.8541 45.7394 90.096 45.7394 90.3976C45.7394 90.5869 45.6938 90.7587 45.6027 90.913C45.5186 91.0673 45.4065 91.2356 45.2664 91.4179C45.2173 91.481 45.1648 91.5476 45.1087 91.6178C45.0597 91.6879 45.0141 91.7685 44.9721 91.8597C44.93 91.9439 44.895 92.0455 44.867 92.1648C44.8459 92.284 44.8354 92.4277 44.8354 92.596V93.5743H46.8745V94.0477H44.9616Z" fill="#5FDDC7" fill-opacity="0.5" style="fill:#5FDDC7;fill:color(display-p3 0.3725 0.8667 0.7804);fill-opacity:0.5;"/>
<path d="M39.1823 84.6016V94.0477H36.418V93.5743H38.6673V85.0749H36.418V84.6016H39.1823Z" fill="#5FDDC7" fill-opacity="0.5" style="fill:#5FDDC7;fill:color(display-p3 0.3725 0.8667 0.7804);fill-opacity:0.5;"/>
<path d="M126.211 334.233V324.787H126.736V334.233H126.211Z" fill="#5FDDC7" fill-opacity="0.5" style="fill:#5FDDC7;fill:color(display-p3 0.3725 0.8667 0.7804);fill-opacity:0.5;"/>
<path d="M120.077 324.787C120.294 324.787 120.455 324.847 120.561 324.966C120.673 325.085 120.729 325.239 120.729 325.429V326.27C120.729 326.467 120.708 326.638 120.666 326.786C120.631 326.933 120.585 327.063 120.529 327.175C120.48 327.28 120.42 327.375 120.35 327.459C120.287 327.536 120.231 327.61 120.182 327.68C120.042 327.848 119.947 327.985 119.898 328.09C119.849 328.195 119.825 328.307 119.825 328.427C119.825 328.721 119.958 328.939 120.224 329.079C120.497 329.212 120.89 329.279 121.401 329.279H122.179V329.742H121.401C120.89 329.742 120.497 329.812 120.224 329.952C119.958 330.085 119.825 330.299 119.825 330.594C119.825 330.713 119.849 330.825 119.898 330.93C119.947 331.035 120.042 331.172 120.182 331.34C120.231 331.411 120.287 331.488 120.35 331.572C120.42 331.649 120.48 331.744 120.529 331.856C120.585 331.961 120.631 332.087 120.666 332.235C120.708 332.382 120.729 332.554 120.729 332.75V333.592C120.729 333.781 120.673 333.935 120.561 334.054C120.455 334.174 120.294 334.233 120.077 334.233H118.164V333.76H120.203V332.782C120.203 332.613 120.189 332.47 120.161 332.35C120.14 332.231 120.109 332.129 120.067 332.045C120.024 331.954 119.975 331.873 119.919 331.803C119.87 331.733 119.821 331.667 119.772 331.603C119.632 331.421 119.516 331.253 119.425 331.099C119.341 330.944 119.299 330.772 119.299 330.583C119.299 330.282 119.408 330.04 119.625 329.857C119.842 329.675 120.13 329.566 120.487 329.531V329.489C120.13 329.454 119.842 329.345 119.625 329.163C119.408 328.981 119.299 328.739 119.299 328.437C119.299 328.248 119.341 328.076 119.425 327.922C119.516 327.768 119.632 327.599 119.772 327.417C119.821 327.354 119.87 327.287 119.919 327.217C119.975 327.147 120.024 327.07 120.067 326.986C120.109 326.894 120.14 326.789 120.161 326.67C120.189 326.551 120.203 326.407 120.203 326.239V325.26H118.164V324.787H120.077Z" fill="#5FDDC7" fill-opacity="0.5" style="fill:#5FDDC7;fill:color(display-p3 0.3725 0.8667 0.7804);fill-opacity:0.5;"/>
<path d="M113.965 334.233C113.748 334.233 113.584 334.174 113.471 334.054C113.366 333.935 113.314 333.781 113.314 333.592V332.75C113.314 332.554 113.331 332.382 113.366 332.235C113.408 332.087 113.454 331.961 113.503 331.856C113.559 331.744 113.619 331.649 113.682 331.572C113.745 331.488 113.804 331.411 113.86 331.34C114.001 331.172 114.095 331.035 114.144 330.93C114.193 330.825 114.218 330.713 114.218 330.594C114.218 330.299 114.081 330.085 113.808 329.952C113.542 329.812 113.153 329.742 112.641 329.742H111.863V329.279H112.641C113.153 329.279 113.542 329.212 113.808 329.079C114.081 328.939 114.218 328.721 114.218 328.427C114.218 328.307 114.193 328.195 114.144 328.09C114.095 327.985 114.001 327.848 113.86 327.68C113.804 327.61 113.745 327.536 113.682 327.459C113.619 327.375 113.559 327.28 113.503 327.175C113.454 327.063 113.408 326.933 113.366 326.786C113.331 326.638 113.314 326.467 113.314 326.27V325.429C113.314 325.239 113.366 325.085 113.471 324.966C113.584 324.847 113.748 324.787 113.965 324.787H115.878V325.26H113.839V326.239C113.839 326.407 113.85 326.551 113.871 326.67C113.899 326.789 113.934 326.894 113.976 326.986C114.018 327.07 114.064 327.147 114.113 327.217C114.169 327.287 114.221 327.354 114.27 327.417C114.41 327.599 114.523 327.768 114.607 327.922C114.698 328.076 114.743 328.248 114.743 328.437C114.743 328.739 114.635 328.981 114.417 329.163C114.2 329.345 113.913 329.454 113.556 329.489V329.531C113.913 329.566 114.2 329.675 114.417 329.857C114.635 330.04 114.743 330.282 114.743 330.583C114.743 330.772 114.698 330.944 114.607 331.099C114.523 331.253 114.41 331.421 114.27 331.603C114.221 331.667 114.169 331.733 114.113 331.803C114.064 331.873 114.018 331.954 113.976 332.045C113.934 332.129 113.899 332.231 113.871 332.35C113.85 332.47 113.839 332.613 113.839 332.782V333.76H115.878V334.233H113.965Z" fill="#5FDDC7" fill-opacity="0.5" style="fill:#5FDDC7;fill:color(display-p3 0.3725 0.8667 0.7804);fill-opacity:0.5;"/>
<path d="M108.186 324.787V334.233H105.422V333.76H107.671V325.26H105.422V324.787H108.186Z" fill="#5FDDC7" fill-opacity="0.5" style="fill:#5FDDC7;fill:color(display-p3 0.3725 0.8667 0.7804);fill-opacity:0.5;"/>
<path d="M20.6533 8.65725C20.338 8.65725 20.0542 8.60816 19.8019 8.50998C19.5567 8.40479 19.3465 8.26454 19.1713 8.08922C19.0031 7.90689 18.8735 7.69651 18.7824 7.45808C18.6983 7.21263 18.6562 6.94615 18.6562 6.65863C18.6562 6.46228 18.6773 6.26592 18.7193 6.06956C18.7614 5.8662 18.8349 5.66984 18.94 5.4805C19.0522 5.29116 19.1958 5.11233 19.371 4.94403C19.5532 4.77572 19.7809 4.62144 20.0542 4.48119C19.851 4.23574 19.6828 3.97628 19.5497 3.70278C19.4165 3.42227 19.35 3.12073 19.35 2.79814C19.35 2.53867 19.3955 2.30375 19.4866 2.09337C19.5777 1.87597 19.7003 1.69364 19.8545 1.54638C20.0157 1.3921 20.2049 1.27288 20.4221 1.18873C20.6463 1.10458 20.8846 1.0625 21.1368 1.0625C21.3611 1.0625 21.5643 1.09406 21.7465 1.15717C21.9287 1.22029 22.0898 1.30093 22.23 1.39911C22.3771 1.49729 22.4997 1.613 22.5978 1.74624C22.6959 1.87247 22.773 2.0022 22.8291 2.13544L22.3246 2.39842C22.2265 2.167 22.0758 1.97415 21.8726 1.81987C21.6764 1.65858 21.4241 1.57793 21.1158 1.57793C20.7514 1.57793 20.4641 1.68663 20.2539 1.90402C20.0507 2.1144 19.9491 2.39842 19.9491 2.75607V2.87178C19.9491 3.11021 20.0087 3.34513 20.1278 3.57655C20.2469 3.80797 20.4291 4.07445 20.6743 4.376L22.5873 6.67967H22.6294C22.6854 6.4202 22.724 6.12216 22.745 5.78555C22.773 5.44193 22.8011 5.05272 22.8291 4.61794H24.143V5.13337H23.3336C23.2916 5.54712 23.246 5.90126 23.197 6.19579C23.1549 6.49033 23.0778 6.78135 22.9657 7.06887L24.206 8.53102H23.4913L22.5558 7.42652H22.5138C22.3736 7.80521 22.1459 8.10675 21.8305 8.33116C21.5152 8.54855 21.1228 8.65725 20.6533 8.65725ZM20.79 8.12078C21.1473 8.12078 21.4557 8.04013 21.7149 7.87884C21.9812 7.71755 22.1879 7.49314 22.3351 7.20562L20.338 4.83884C19.9386 5.06324 19.6618 5.32271 19.5076 5.61725C19.3535 5.91178 19.2764 6.22034 19.2764 6.54292V6.73226C19.2764 7.139 19.413 7.4721 19.6863 7.73157C19.9596 7.99104 20.3275 8.12078 20.79 8.12078Z" fill="#5FDDC7" fill-opacity="0.5" style="fill:#5FDDC7;fill:color(display-p3 0.3725 0.8667 0.7804);fill-opacity:0.5;"/>
<path d="M13.8122 4.70209C13.595 4.70209 13.3918 4.66703 13.2026 4.5969C13.0204 4.51976 12.8592 4.40756 12.7191 4.26029C12.5859 4.10601 12.4808 3.91667 12.4038 3.69226C12.3267 3.46084 12.2881 3.19085 12.2881 2.88229C12.2881 2.57374 12.3267 2.30725 12.4038 2.08285C12.4808 1.85143 12.5859 1.66209 12.7191 1.51482C12.8592 1.36054 13.0204 1.24834 13.2026 1.17821C13.3918 1.10107 13.595 1.0625 13.8122 1.0625C14.0294 1.0625 14.2292 1.10107 14.4113 1.17821C14.5935 1.24834 14.7512 1.36054 14.8843 1.51482C15.0245 1.66209 15.1331 1.85143 15.2102 2.08285C15.2873 2.30725 15.3258 2.57374 15.3258 2.88229C15.3258 3.19085 15.2873 3.46084 15.2102 3.69226C15.1331 3.91667 15.0245 4.10601 14.8843 4.26029C14.7512 4.40756 14.5935 4.51976 14.4113 4.5969C14.2292 4.66703 14.0294 4.70209 13.8122 4.70209ZM13.8122 4.28133C14.0855 4.28133 14.3167 4.18666 14.5059 3.99731C14.7021 3.80096 14.8002 3.50292 14.8002 3.10319V2.66139C14.8002 2.26167 14.7021 1.96714 14.5059 1.7778C14.3167 1.58144 14.0855 1.48326 13.8122 1.48326C13.5319 1.48326 13.2937 1.58144 13.0975 1.7778C12.9083 1.96714 12.8137 2.26167 12.8137 2.66139V3.10319C12.8137 3.50292 12.9083 3.80096 13.0975 3.99731C13.2937 4.18666 13.5319 4.28133 13.8122 4.28133ZM17.5436 1.18873H18.0902L16.3348 4.34444H15.7883L17.5436 1.18873ZM14.0014 5.37531H14.548L12.7927 8.53102H12.2461L14.0014 5.37531ZM16.5451 8.65725C16.3278 8.65725 16.1246 8.61868 15.9354 8.54154C15.7462 8.47141 15.5816 8.36272 15.4414 8.21545C15.3083 8.06117 15.2032 7.87183 15.1261 7.64742C15.049 7.416 15.0105 7.14601 15.0105 6.83745C15.0105 6.5289 15.049 6.26241 15.1261 6.03801C15.2032 5.80659 15.3083 5.61725 15.4414 5.46998C15.5816 5.3157 15.7427 5.2035 15.9249 5.13337C16.1141 5.05623 16.3173 5.01766 16.5346 5.01766C16.7518 5.01766 16.9515 5.05623 17.1337 5.13337C17.3159 5.2035 17.4735 5.3157 17.6067 5.46998C17.7468 5.61725 17.8554 5.80659 17.9325 6.03801C18.0096 6.26241 18.0481 6.5289 18.0481 6.83745C18.0481 7.14601 18.0096 7.416 17.9325 7.64742C17.8554 7.87183 17.7503 8.06117 17.6172 8.21545C17.484 8.36272 17.3264 8.47141 17.1442 8.54154C16.962 8.61868 16.7623 8.65725 16.5451 8.65725ZM16.5346 8.23649C16.8078 8.23649 17.0391 8.14182 17.2283 7.95247C17.4245 7.75612 17.5226 7.45808 17.5226 7.05835V6.61656C17.5226 6.21683 17.4245 5.9223 17.2283 5.73296C17.0391 5.5366 16.8078 5.43842 16.5346 5.43842C16.2543 5.43842 16.016 5.5366 15.8198 5.73296C15.6306 5.9223 15.536 6.21683 15.536 6.61656V7.05835C15.536 7.45808 15.6306 7.75612 15.8198 7.95247C16.016 8.14182 16.2543 8.23649 16.5346 8.23649Z" fill="#5FDDC7" fill-opacity="0.5" style="fill:#5FDDC7;fill:color(display-p3 0.3725 0.8667 0.7804);fill-opacity:0.5;"/>
<path d="M7.40541 6.16398H5.90234V5.65907H7.5L7.7838 4.06018H6.28074V3.55526H7.86789L8.28832 1.18848H8.8454L7.55256 8.53077H6.99548L7.40541 6.16398ZM10.1803 1.18848H10.7374L10.3274 3.55526H11.8305V4.06018H10.2328L9.94905 5.65907H11.4521V6.16398H9.86496L9.44452 8.53077H8.88745L10.1803 1.18848Z" fill="#5FDDC7" fill-opacity="0.5" style="fill:#5FDDC7;fill:color(display-p3 0.3725 0.8667 0.7804);fill-opacity:0.5;"/>
<path d="M2.41751 8.64665C1.81489 8.6186 1.32438 8.49237 0.945983 8.26797C0.574597 8.04356 0.259269 7.75604 0 7.40541L0.462481 7.02672C0.714743 7.3493 0.991531 7.60527 1.29284 7.79461C1.59416 7.97694 1.96905 8.08213 2.41751 8.11018V5.03862L2.12321 4.98603C1.75883 4.92291 1.45401 4.82824 1.20876 4.70201C0.970509 4.57578 0.777808 4.42501 0.630655 4.24969C0.483503 4.07438 0.378393 3.88153 0.315328 3.67115C0.25927 3.45375 0.23124 3.22935 0.23124 2.99793C0.23124 2.39484 0.423941 1.932 0.809341 1.60941C1.20175 1.27982 1.73781 1.10099 2.41751 1.07294V0H2.8905V1.07294C3.40204 1.10099 3.82948 1.2132 4.17284 1.40955C4.51619 1.59889 4.807 1.85836 5.04524 2.18796L4.57225 2.53509C4.37605 2.26861 4.14481 2.05823 3.87853 1.90395C3.61926 1.74967 3.28992 1.655 2.8905 1.61993V4.51267L3.20583 4.56526C3.57722 4.62838 3.88554 4.72656 4.13079 4.8598C4.37605 4.98603 4.56875 5.1368 4.70889 5.31212C4.85605 5.48743 4.95765 5.68379 5.01371 5.90118C5.07678 6.11858 5.10831 6.34298 5.10831 6.5744C5.10831 7.20554 4.91211 7.69994 4.5197 8.05759C4.1343 8.40822 3.59123 8.60458 2.8905 8.64665V9.7196H2.41751V8.64665ZM0.840874 2.99793C0.840874 3.43271 0.967005 3.75881 1.21927 3.9762C1.47153 4.18658 1.8289 4.33385 2.29138 4.418L2.41751 4.43904V1.60941C1.91299 1.64448 1.52408 1.77772 1.2508 2.00914C0.977516 2.23354 0.840874 2.56314 0.840874 2.99793ZM4.49868 6.58492C4.49868 6.12208 4.36554 5.78547 4.09926 5.57509C3.83999 5.3577 3.4686 5.21043 2.9851 5.13329L2.8905 5.11225V8.09966C3.40204 8.0646 3.79795 7.92084 4.07824 7.66838C4.35853 7.40891 4.49868 7.04776 4.49868 6.58492Z" fill="#5FDDC7" fill-opacity="0.5" style="fill:#5FDDC7;fill:color(display-p3 0.3725 0.8667 0.7804);fill-opacity:0.5;"/>
<path d="M190.657 371.938C190.342 371.938 190.058 371.888 189.806 371.79C189.561 371.685 189.35 371.545 189.175 371.369C189.007 371.187 188.877 370.977 188.786 370.738C188.702 370.493 188.66 370.226 188.66 369.939C188.66 369.743 188.681 369.546 188.723 369.35C188.765 369.146 188.839 368.95 188.944 368.761C189.056 368.571 189.2 368.393 189.375 368.224C189.557 368.056 189.785 367.902 190.058 367.761C189.855 367.516 189.687 367.257 189.554 366.983C189.42 366.703 189.354 366.401 189.354 366.078C189.354 365.819 189.399 365.584 189.491 365.374C189.582 365.156 189.704 364.974 189.858 364.827C190.02 364.672 190.209 364.553 190.426 364.469C190.65 364.385 190.888 364.343 191.141 364.343C191.365 364.343 191.568 364.374 191.75 364.437C191.933 364.501 192.094 364.581 192.234 364.679C192.381 364.778 192.504 364.893 192.602 365.027C192.7 365.153 192.777 365.282 192.833 365.416L192.328 365.679C192.23 365.447 192.08 365.254 191.876 365.1C191.68 364.939 191.428 364.858 191.12 364.858C190.755 364.858 190.468 364.967 190.258 365.184C190.055 365.395 189.953 365.679 189.953 366.036V366.152C189.953 366.39 190.013 366.625 190.132 366.857C190.251 367.088 190.433 367.355 190.678 367.656L192.591 369.96H192.633C192.689 369.7 192.728 369.402 192.749 369.066C192.777 368.722 192.805 368.333 192.833 367.898H194.147V368.414H193.338C193.295 368.827 193.25 369.182 193.201 369.476C193.159 369.771 193.082 370.062 192.97 370.349L194.21 371.811H193.495L192.56 370.707H192.518C192.378 371.085 192.15 371.387 191.834 371.611C191.519 371.829 191.127 371.938 190.657 371.938ZM190.794 371.401C191.151 371.401 191.46 371.32 191.719 371.159C191.985 370.998 192.192 370.773 192.339 370.486L190.342 368.119C189.942 368.344 189.666 368.603 189.512 368.898C189.357 369.192 189.28 369.501 189.28 369.823V370.013C189.28 370.419 189.417 370.752 189.69 371.012C189.964 371.271 190.331 371.401 190.794 371.401Z" fill="#5FDDC7" fill-opacity="0.5" style="fill:#5FDDC7;fill:color(display-p3 0.3725 0.8667 0.7804);fill-opacity:0.5;"/>
<path d="M183.816 367.982C183.599 367.982 183.396 367.947 183.206 367.877C183.024 367.8 182.863 367.688 182.723 367.541C182.59 367.386 182.485 367.197 182.408 366.973C182.331 366.741 182.292 366.471 182.292 366.163C182.292 365.854 182.331 365.588 182.408 365.363C182.485 365.132 182.59 364.942 182.723 364.795C182.863 364.641 183.024 364.529 183.206 364.458C183.396 364.381 183.599 364.343 183.816 364.343C184.033 364.343 184.233 364.381 184.415 364.458C184.597 364.529 184.755 364.641 184.888 364.795C185.028 364.942 185.137 365.132 185.214 365.363C185.291 365.588 185.33 365.854 185.33 366.163C185.33 366.471 185.291 366.741 185.214 366.973C185.137 367.197 185.028 367.386 184.888 367.541C184.755 367.688 184.597 367.8 184.415 367.877C184.233 367.947 184.033 367.982 183.816 367.982ZM183.816 367.562C184.089 367.562 184.321 367.467 184.51 367.278C184.706 367.081 184.804 366.783 184.804 366.383V365.942C184.804 365.542 184.706 365.247 184.51 365.058C184.321 364.862 184.089 364.764 183.816 364.764C183.536 364.764 183.298 364.862 183.101 365.058C182.912 365.247 182.818 365.542 182.818 365.942V366.383C182.818 366.783 182.912 367.081 183.101 367.278C183.298 367.467 183.536 367.562 183.816 367.562ZM187.548 364.469H188.094L186.339 367.625H185.792L187.548 364.469ZM184.005 368.656H184.552L182.797 371.811H182.25L184.005 368.656ZM186.549 371.938C186.332 371.938 186.129 371.899 185.939 371.822C185.75 371.752 185.585 371.643 185.445 371.496C185.312 371.341 185.207 371.152 185.13 370.928C185.053 370.696 185.014 370.426 185.014 370.118C185.014 369.809 185.053 369.543 185.13 369.318C185.207 369.087 185.312 368.898 185.445 368.75C185.585 368.596 185.747 368.484 185.929 368.414C186.118 368.337 186.321 368.298 186.538 368.298C186.756 368.298 186.955 368.337 187.138 368.414C187.32 368.484 187.477 368.596 187.611 368.75C187.751 368.898 187.859 369.087 187.936 369.318C188.013 369.543 188.052 369.809 188.052 370.118C188.052 370.426 188.013 370.696 187.936 370.928C187.859 371.152 187.754 371.341 187.621 371.496C187.488 371.643 187.33 371.752 187.148 371.822C186.966 371.899 186.766 371.938 186.549 371.938ZM186.538 371.517C186.812 371.517 187.043 371.422 187.232 371.233C187.428 371.036 187.526 370.738 187.526 370.339V369.897C187.526 369.497 187.428 369.203 187.232 369.013C187.043 368.817 186.812 368.719 186.538 368.719C186.258 368.719 186.02 368.817 185.824 369.013C185.635 369.203 185.54 369.497 185.54 369.897V370.339C185.54 370.738 185.635 371.036 185.824 371.233C186.02 371.422 186.258 371.517 186.538 371.517Z" fill="#5FDDC7" fill-opacity="0.5" style="fill:#5FDDC7;fill:color(display-p3 0.3725 0.8667 0.7804);fill-opacity:0.5;"/>
<path d="M177.409 369.444H175.906V368.939H177.504L177.788 367.34H176.285V366.836H177.872L178.292 364.469H178.849L177.556 371.811H176.999L177.409 369.444ZM180.184 364.469H180.741L180.331 366.836H181.834V367.34H180.237L179.953 368.939H181.456V369.444H179.869L179.448 371.811H178.891L180.184 364.469Z" fill="#5FDDC7" fill-opacity="0.5" style="fill:#5FDDC7;fill:color(display-p3 0.3725 0.8667 0.7804);fill-opacity:0.5;"/>
<path d="M172.421 371.927C171.819 371.899 171.328 371.773 170.95 371.548C170.579 371.324 170.263 371.036 170.004 370.686L170.466 370.307C170.719 370.63 170.995 370.886 171.297 371.075C171.598 371.257 171.973 371.362 172.421 371.39V368.319L172.127 368.266C171.763 368.203 171.458 368.109 171.213 367.982C170.974 367.856 170.782 367.705 170.635 367.53C170.487 367.355 170.382 367.162 170.319 366.951C170.263 366.734 170.235 366.51 170.235 366.278C170.235 365.675 170.428 365.212 170.813 364.89C171.206 364.56 171.742 364.381 172.421 364.353V363.28H172.894V364.353C173.406 364.381 173.833 364.493 174.177 364.69C174.52 364.879 174.811 365.139 175.049 365.468L174.576 365.815C174.38 365.549 174.149 365.338 173.882 365.184C173.623 365.03 173.294 364.935 172.894 364.9V367.793L173.21 367.846C173.581 367.909 173.889 368.007 174.135 368.14C174.38 368.266 174.573 368.417 174.713 368.592C174.86 368.768 174.962 368.964 175.018 369.181C175.081 369.399 175.112 369.623 175.112 369.855C175.112 370.486 174.916 370.98 174.524 371.338C174.138 371.688 173.595 371.885 172.894 371.927V373H172.421V371.927ZM170.845 366.278C170.845 366.713 170.971 367.039 171.223 367.256C171.475 367.467 171.833 367.614 172.295 367.698L172.421 367.719V364.89C171.917 364.925 171.528 365.058 171.255 365.289C170.981 365.514 170.845 365.843 170.845 366.278ZM174.503 369.865C174.503 369.402 174.369 369.066 174.103 368.855C173.844 368.638 173.473 368.491 172.989 368.414L172.894 368.393V371.38C173.406 371.345 173.802 371.201 174.082 370.949C174.362 370.689 174.503 370.328 174.503 369.865Z" fill="#5FDDC7" fill-opacity="0.5" style="fill:#5FDDC7;fill:color(display-p3 0.3725 0.8667 0.7804);fill-opacity:0.5;"/>
<path d="M1000.12 9.54395V18.99H997.355V18.5167H999.605V10.0173H997.355V9.54395H1000.12Z" fill="#5FDDC7" fill-opacity="0.5" style="fill:#5FDDC7;fill:color(display-p3 0.3725 0.8667 0.7804);fill-opacity:0.5;"/>
<path d="M993.1 9.54395C993.318 9.54395 993.479 9.60355 993.584 9.72277C993.696 9.84199 993.752 9.99626 993.752 10.1856V11.0271C993.752 11.2235 993.731 11.3953 993.689 11.5426C993.654 11.6898 993.609 11.8196 993.552 11.9318C993.503 12.037 993.444 12.1316 993.374 12.2158C993.311 12.2929 993.255 12.3666 993.206 12.4367C993.065 12.605 992.971 12.7417 992.922 12.8469C992.873 12.9521 992.848 13.0643 992.848 13.1835C992.848 13.4781 992.981 13.6955 993.248 13.8357C993.521 13.969 993.913 14.0356 994.425 14.0356H995.203V14.4984H994.425C993.913 14.4984 993.521 14.5685 993.248 14.7088C992.981 14.842 992.848 15.0559 992.848 15.3505C992.848 15.4697 992.873 15.5819 992.922 15.6871C992.971 15.7923 993.065 15.929 993.206 16.0973C993.255 16.1674 993.311 16.2446 993.374 16.3287C993.444 16.4059 993.503 16.5005 993.552 16.6127C993.609 16.7179 993.654 16.8442 993.689 16.9914C993.731 17.1387 993.752 17.3105 993.752 17.5069V18.3484C993.752 18.5377 993.696 18.692 993.584 18.8112C993.479 18.9304 993.318 18.99 993.1 18.99H991.188V18.5167H993.227V17.5384C993.227 17.3701 993.213 17.2264 993.185 17.1071C993.164 16.9879 993.132 16.8862 993.09 16.8021C993.048 16.7109 992.999 16.6303 992.943 16.5601C992.894 16.49 992.845 16.4234 992.796 16.3603C992.656 16.178 992.54 16.0097 992.449 15.8554C992.365 15.7011 992.323 15.5293 992.323 15.3399C992.323 15.0384 992.431 14.7965 992.649 14.6141C992.866 14.4318 993.153 14.3231 993.51 14.288V14.246C993.153 14.2109 992.866 14.1022 992.649 13.9199C992.431 13.7375 992.323 13.4956 992.323 13.1941C992.323 13.0047 992.365 12.8329 992.449 12.6786C992.54 12.5243 992.656 12.356 992.796 12.1737C992.845 12.1106 992.894 12.044 992.943 11.9738C992.999 11.9037 993.048 11.8266 993.09 11.7424C993.132 11.6513 993.164 11.5461 993.185 11.4269C993.213 11.3076 993.227 11.1639 993.227 10.9956V10.0173H991.188V9.54395H993.1Z" fill="#5FDDC7" fill-opacity="0.5" style="fill:#5FDDC7;fill:color(display-p3 0.3725 0.8667 0.7804);fill-opacity:0.5;"/>
<path d="M986.989 18.99C986.772 18.99 986.607 18.9304 986.495 18.8112C986.39 18.692 986.337 18.5377 986.337 18.3484V17.5069C986.337 17.3105 986.355 17.1387 986.39 16.9914C986.432 16.8442 986.477 16.7179 986.526 16.6127C986.582 16.5005 986.642 16.4059 986.705 16.3287C986.768 16.2446 986.828 16.1674 986.884 16.0973C987.024 15.929 987.119 15.7923 987.168 15.6871C987.217 15.5819 987.241 15.4697 987.241 15.3505C987.241 15.0559 987.105 14.842 986.831 14.7088C986.565 14.5685 986.176 14.4984 985.665 14.4984H984.887V14.0356H985.665C986.176 14.0356 986.565 13.969 986.831 13.8357C987.105 13.6955 987.241 13.4781 987.241 13.1835C987.241 13.0643 987.217 12.9521 987.168 12.8469C987.119 12.7417 987.024 12.605 986.884 12.4367C986.828 12.3666 986.768 12.2929 986.705 12.2158C986.642 12.1316 986.582 12.037 986.526 11.9318C986.477 11.8196 986.432 11.6898 986.39 11.5426C986.355 11.3953 986.337 11.2235 986.337 11.0271V10.1856C986.337 9.99626 986.39 9.84199 986.495 9.72277C986.607 9.60355 986.772 9.54395 986.989 9.54395H988.902V10.0173H986.863V10.9956C986.863 11.1639 986.873 11.3076 986.894 11.4269C986.922 11.5461 986.957 11.6513 986.999 11.7424C987.041 11.8266 987.087 11.9037 987.136 11.9738C987.192 12.044 987.245 12.1106 987.294 12.1737C987.434 12.356 987.546 12.5243 987.63 12.6786C987.721 12.8329 987.767 13.0047 987.767 13.1941C987.767 13.4956 987.658 13.7375 987.441 13.9199C987.224 14.1022 986.936 14.2109 986.579 14.246V14.288C986.936 14.3231 987.224 14.4318 987.441 14.6141C987.658 14.7965 987.767 15.0384 987.767 15.3399C987.767 15.5293 987.721 15.7011 987.63 15.8554C987.546 16.0097 987.434 16.178 987.294 16.3603C987.245 16.4234 987.192 16.49 987.136 16.5601C987.087 16.6303 987.041 16.7109 986.999 16.8021C986.957 16.8862 986.922 16.9879 986.894 17.1071C986.873 17.2264 986.863 17.3701 986.863 17.5384V18.5167H988.902V18.99H986.989Z" fill="#5FDDC7" fill-opacity="0.5" style="fill:#5FDDC7;fill:color(display-p3 0.3725 0.8667 0.7804);fill-opacity:0.5;"/>
<path d="M980.59 17.612C980.366 17.612 980.208 17.5664 980.117 17.4752C980.026 17.3841 979.98 17.2649 979.98 17.1176V16.9703C979.98 16.8301 980.026 16.7144 980.117 16.6232C980.208 16.525 980.366 16.4759 980.59 16.4759C980.814 16.4759 980.972 16.525 981.063 16.6232C981.154 16.7144 981.2 16.8301 981.2 16.9703V17.1176C981.2 17.2649 981.154 17.3841 981.063 17.4752C980.972 17.5664 980.814 17.612 980.59 17.612ZM980.59 13.1624C980.366 13.1624 980.208 13.1168 980.117 13.0257C980.026 12.9345 979.98 12.8153 979.98 12.668V12.5208C979.98 12.3805 980.026 12.2648 980.117 12.1736C980.208 12.0755 980.366 12.0264 980.59 12.0264C980.814 12.0264 980.972 12.0755 981.063 12.1736C981.154 12.2648 981.2 12.3805 981.2 12.5208V12.668C981.2 12.8153 981.154 12.9345 981.063 13.0257C980.972 13.1168 980.814 13.1624 980.59 13.1624Z" fill="#5FDDC7" fill-opacity="0.5" style="fill:#5FDDC7;fill:color(display-p3 0.3725 0.8667 0.7804);fill-opacity:0.5;"/>
<path d="M1063 228.738V228.223H1068V228.738H1063ZM1063 230.747V230.232H1068V230.747H1063Z" fill="#5FDDC7" fill-opacity="0.5" style="fill:#5FDDC7;fill:color(display-p3 0.3725 0.8667 0.7804);fill-opacity:0.5;"/>
<path d="M1058.93 234.156V224.71H1059.46V234.156H1058.93Z" fill="#5FDDC7" fill-opacity="0.5" style="fill:#5FDDC7;fill:color(display-p3 0.3725 0.8667 0.7804);fill-opacity:0.5;"/>
<path d="M1052.8 224.71C1053.02 224.71 1053.18 224.77 1053.28 224.889C1053.4 225.008 1053.45 225.162 1053.45 225.352V226.193C1053.45 226.39 1053.43 226.561 1053.39 226.709C1053.35 226.856 1053.31 226.986 1053.25 227.098C1053.2 227.203 1053.14 227.298 1053.07 227.382C1053.01 227.459 1052.95 227.533 1052.9 227.603C1052.76 227.771 1052.67 227.908 1052.62 228.013C1052.57 228.118 1052.55 228.23 1052.55 228.35C1052.55 228.644 1052.68 228.861 1052.95 229.002C1053.22 229.135 1053.61 229.202 1054.12 229.202H1054.9V229.664H1054.12C1053.61 229.664 1053.22 229.735 1052.95 229.875C1052.68 230.008 1052.55 230.222 1052.55 230.516C1052.55 230.636 1052.57 230.748 1052.62 230.853C1052.67 230.958 1052.76 231.095 1052.9 231.263C1052.95 231.333 1053.01 231.411 1053.07 231.495C1053.14 231.572 1053.2 231.667 1053.25 231.779C1053.31 231.884 1053.35 232.01 1053.39 232.157C1053.43 232.305 1053.45 232.477 1053.45 232.673V233.514C1053.45 233.704 1053.4 233.858 1053.28 233.977C1053.18 234.096 1053.02 234.156 1052.8 234.156H1050.89V233.683H1052.93V232.704C1052.93 232.536 1052.91 232.392 1052.88 232.273C1052.86 232.154 1052.83 232.052 1052.79 231.968C1052.75 231.877 1052.7 231.796 1052.64 231.726C1052.59 231.656 1052.54 231.589 1052.49 231.526C1052.35 231.344 1052.24 231.176 1052.15 231.021C1052.06 230.867 1052.02 230.695 1052.02 230.506C1052.02 230.204 1052.13 229.962 1052.35 229.78C1052.56 229.598 1052.85 229.489 1053.21 229.454V229.412C1052.85 229.377 1052.56 229.268 1052.35 229.086C1052.13 228.904 1052.02 228.662 1052.02 228.36C1052.02 228.171 1052.06 227.999 1052.15 227.845C1052.24 227.69 1052.35 227.522 1052.49 227.34C1052.54 227.277 1052.59 227.21 1052.64 227.14C1052.7 227.07 1052.75 226.993 1052.79 226.908C1052.83 226.817 1052.86 226.712 1052.88 226.593C1052.91 226.474 1052.93 226.33 1052.93 226.162V225.183H1050.89V224.71H1052.8Z" fill="#5FDDC7" fill-opacity="0.5" style="fill:#5FDDC7;fill:color(display-p3 0.3725 0.8667 0.7804);fill-opacity:0.5;"/>
<path d="M1046.68 234.156C1046.47 234.156 1046.3 234.096 1046.19 233.977C1046.09 233.858 1046.03 233.704 1046.03 233.514V232.673C1046.03 232.477 1046.05 232.305 1046.09 232.157C1046.13 232.01 1046.17 231.884 1046.22 231.779C1046.28 231.667 1046.34 231.572 1046.4 231.495C1046.46 231.411 1046.52 231.333 1046.58 231.263C1046.72 231.095 1046.81 230.958 1046.86 230.853C1046.91 230.748 1046.94 230.636 1046.94 230.516C1046.94 230.222 1046.8 230.008 1046.53 229.875C1046.26 229.735 1045.87 229.664 1045.36 229.664H1044.58V229.202H1045.36C1045.87 229.202 1046.26 229.135 1046.53 229.002C1046.8 228.861 1046.94 228.644 1046.94 228.35C1046.94 228.23 1046.91 228.118 1046.86 228.013C1046.81 227.908 1046.72 227.771 1046.58 227.603C1046.52 227.533 1046.46 227.459 1046.4 227.382C1046.34 227.298 1046.28 227.203 1046.22 227.098C1046.17 226.986 1046.13 226.856 1046.09 226.709C1046.05 226.561 1046.03 226.39 1046.03 226.193V225.352C1046.03 225.162 1046.09 225.008 1046.19 224.889C1046.3 224.77 1046.47 224.71 1046.68 224.71H1048.6V225.183H1046.56V226.162C1046.56 226.33 1046.57 226.474 1046.59 226.593C1046.62 226.712 1046.65 226.817 1046.69 226.908C1046.74 226.993 1046.78 227.07 1046.83 227.14C1046.89 227.21 1046.94 227.277 1046.99 227.34C1047.13 227.522 1047.24 227.69 1047.33 227.845C1047.42 227.999 1047.46 228.171 1047.46 228.36C1047.46 228.662 1047.35 228.904 1047.14 229.086C1046.92 229.268 1046.63 229.377 1046.27 229.412V229.454C1046.63 229.489 1046.92 229.598 1047.14 229.78C1047.35 229.962 1047.46 230.204 1047.46 230.506C1047.46 230.695 1047.42 230.867 1047.33 231.021C1047.24 231.176 1047.13 231.344 1046.99 231.526C1046.94 231.589 1046.89 231.656 1046.83 231.726C1046.78 231.796 1046.74 231.877 1046.69 231.968C1046.65 232.052 1046.62 232.154 1046.59 232.273C1046.57 232.392 1046.56 232.536 1046.56 232.704V233.683H1048.6V234.156H1046.68Z" fill="#5FDDC7" fill-opacity="0.5" style="fill:#5FDDC7;fill:color(display-p3 0.3725 0.8667 0.7804);fill-opacity:0.5;"/>
<path d="M988.591 338.621L986.5 334.982H986.468L984.387 338.621L983.914 338.39L986.163 334.445H986.836L989.085 338.39L988.591 338.621Z" fill="#5FDDC7" fill-opacity="0.5" style="fill:#5FDDC7;fill:color(display-p3 0.3725 0.8667 0.7804);fill-opacity:0.5;"/>
<path d="M979.934 343.24V333.794H980.459V343.24H979.934Z" fill="#5FDDC7" fill-opacity="0.5" style="fill:#5FDDC7;fill:color(display-p3 0.3725 0.8667 0.7804);fill-opacity:0.5;"/>
<path d="M971.633 338.875V338.286L976.153 335.635V336.255L972.211 338.549V338.601L976.153 340.894V341.525L971.633 338.875Z" fill="#5FDDC7" fill-opacity="0.5" style="fill:#5FDDC7;fill:color(display-p3 0.3725 0.8667 0.7804);fill-opacity:0.5;"/>
<path d="M965.332 340.905L969.274 338.612V338.559L965.332 336.266V335.635L969.852 338.286V338.875L965.332 341.525V340.905Z" fill="#5FDDC7" fill-opacity="0.5" style="fill:#5FDDC7;fill:color(display-p3 0.3725 0.8667 0.7804);fill-opacity:0.5;"/>
</svg>
