<svg width="1098" height="612" viewBox="0 0 1098 612" fill="none" xmlns="http://www.w3.org/2000/svg">
<path d="M553.5 468.159L557.12 459.053H557.638L554.017 468.159H553.5Z" fill="#5FDDC7" fill-opacity="0.5" style="fill:#5FDDC7;fill:color(display-p3 0.3725 0.8667 0.7804);fill-opacity:0.5;"/>
<path d="M547.008 468.159L550.628 459.053H551.145L547.525 468.159H547.008Z" fill="#5FDDC7" fill-opacity="0.5" style="fill:#5FDDC7;fill:color(display-p3 0.3725 0.8667 0.7804);fill-opacity:0.5;"/>
<path d="M541.186 466.233L540.771 465.929L542.16 464.022L540 463.323L540.152 462.836L542.322 463.525V461.203H542.86V463.525L545.02 462.836L545.172 463.323L543.012 464.022L544.411 465.929L543.985 466.233L542.586 464.306L541.186 466.233Z" fill="#5FDDC7" fill-opacity="0.5" style="fill:#5FDDC7;fill:color(display-p3 0.3725 0.8667 0.7804);fill-opacity:0.5;"/>
<path d="M534.702 466.233L534.286 465.929L535.676 464.022L533.516 463.322L533.668 462.836L535.838 463.525V461.203H536.375V463.525L538.536 462.836L538.688 463.322L536.528 464.022L537.927 465.929L537.501 466.233L536.102 464.306L534.702 466.233Z" fill="#5FDDC7" fill-opacity="0.5" style="fill:#5FDDC7;fill:color(display-p3 0.3725 0.8667 0.7804);fill-opacity:0.5;"/>
<path d="M542.592 602.064V611.503H539.828V611.03H542.077V602.537H539.828V602.064H542.592Z" fill="#5FDDC7" fill-opacity="0.5" style="fill:#5FDDC7;fill:color(display-p3 0.3725 0.8667 0.7804);fill-opacity:0.5;"/>
<path d="M535.047 611.503V602.064H537.811V602.537H535.562V611.03H537.811V611.503H535.047Z" fill="#5FDDC7" fill-opacity="0.5" style="fill:#5FDDC7;fill:color(display-p3 0.3725 0.8667 0.7804);fill-opacity:0.5;"/>
<path d="M529.018 608.865H530.027L528.965 611.661H528.461L529.018 608.865ZM529.365 605.68C529.141 605.68 528.983 605.635 528.892 605.543C528.801 605.452 528.755 605.333 528.755 605.186V605.039C528.755 604.899 528.801 604.783 528.892 604.692C528.983 604.594 529.141 604.545 529.365 604.545C529.589 604.545 529.747 604.594 529.838 604.692C529.929 604.783 529.975 604.899 529.975 605.039V605.186C529.975 605.333 529.929 605.452 529.838 605.543C529.747 605.635 529.589 605.68 529.365 605.68Z" fill="#5FDDC7" fill-opacity="0.5" style="fill:#5FDDC7;fill:color(display-p3 0.3725 0.8667 0.7804);fill-opacity:0.5;"/>
<path d="M525.154 606.889L523.062 603.252H523.031L520.95 606.889L520.477 606.657L522.726 602.716H523.399L525.648 606.657L525.154 606.889Z" fill="#5FDDC7" fill-opacity="0.5" style="fill:#5FDDC7;fill:color(display-p3 0.3725 0.8667 0.7804);fill-opacity:0.5;"/>
<path d="M1050.52 279.041V278.514H1055.39V279.041H1050.52Z" fill="#5FDDC7" fill-opacity="0.5" style="fill:#5FDDC7;fill:color(display-p3 0.3725 0.8667 0.7804);fill-opacity:0.5;"/>
<path d="M1044.03 279.041V278.514H1048.9V279.041H1044.03Z" fill="#5FDDC7" fill-opacity="0.5" style="fill:#5FDDC7;fill:color(display-p3 0.3725 0.8667 0.7804);fill-opacity:0.5;"/>
<path d="M1038.55 274.651V274.053H1041.39V274.651H1038.55Z" fill="#5FDDC7" fill-opacity="0.5" style="fill:#5FDDC7;fill:color(display-p3 0.3725 0.8667 0.7804);fill-opacity:0.5;"/>
<path d="M1032.08 274.651V274.053H1034.92V274.651H1032.08Z" fill="#5FDDC7" fill-opacity="0.5" style="fill:#5FDDC7;fill:color(display-p3 0.3725 0.8667 0.7804);fill-opacity:0.5;"/>
<path d="M1095.38 443.053C1095.59 443.053 1095.74 443.11 1095.84 443.225C1095.95 443.34 1096.01 443.489 1096.01 443.671V444.483C1096.01 444.672 1095.99 444.838 1095.94 444.98C1095.91 445.121 1095.87 445.247 1095.81 445.355C1095.77 445.456 1095.71 445.547 1095.64 445.629C1095.58 445.703 1095.53 445.774 1095.48 445.841C1095.34 446.004 1095.25 446.136 1095.2 446.237C1095.16 446.338 1095.13 446.447 1095.13 446.562C1095.13 446.845 1095.26 447.055 1095.52 447.19C1095.78 447.319 1096.16 447.383 1096.65 447.383H1097.41V447.829H1096.65C1096.16 447.829 1095.78 447.897 1095.52 448.032C1095.26 448.16 1095.13 448.367 1095.13 448.651C1095.13 448.765 1095.16 448.874 1095.2 448.975C1095.25 449.076 1095.34 449.208 1095.48 449.371C1095.53 449.438 1095.58 449.513 1095.64 449.594C1095.71 449.668 1095.77 449.759 1095.81 449.867C1095.87 449.969 1095.91 450.091 1095.94 450.233C1095.99 450.374 1096.01 450.54 1096.01 450.729V451.541C1096.01 451.723 1095.95 451.872 1095.84 451.987C1095.74 452.102 1095.59 452.159 1095.38 452.159H1093.53V451.703H1095.5V450.76C1095.5 450.598 1095.49 450.459 1095.46 450.344C1095.44 450.229 1095.41 450.131 1095.37 450.05C1095.33 449.962 1095.28 449.884 1095.22 449.817C1095.18 449.749 1095.13 449.685 1095.08 449.624C1094.95 449.448 1094.84 449.286 1094.75 449.137C1094.67 448.989 1094.63 448.823 1094.63 448.64C1094.63 448.35 1094.73 448.116 1094.94 447.941C1095.15 447.765 1095.43 447.66 1095.77 447.626V447.586C1095.43 447.552 1095.15 447.447 1094.94 447.271C1094.73 447.096 1094.63 446.862 1094.63 446.572C1094.63 446.389 1094.67 446.223 1094.75 446.075C1094.84 445.926 1094.95 445.764 1095.08 445.588C1095.13 445.527 1095.18 445.463 1095.22 445.395C1095.28 445.328 1095.33 445.253 1095.37 445.172C1095.41 445.084 1095.44 444.983 1095.46 444.868C1095.49 444.753 1095.5 444.614 1095.5 444.452V443.509H1093.53V443.053H1095.38Z" fill="#5FDDC7" fill-opacity="0.5" style="fill:#5FDDC7;fill:color(display-p3 0.3725 0.8667 0.7804);fill-opacity:0.5;"/>
<path d="M1089.58 443.053V452.159H1086.91V451.703H1089.08V443.509H1086.91V443.053H1089.58Z" fill="#5FDDC7" fill-opacity="0.5" style="fill:#5FDDC7;fill:color(display-p3 0.3725 0.8667 0.7804);fill-opacity:0.5;"/>
<path d="M1081.89 452.159V443.053H1084.56V443.509H1082.39V451.703H1084.56V452.159H1081.89Z" fill="#5FDDC7" fill-opacity="0.5" style="fill:#5FDDC7;fill:color(display-p3 0.3725 0.8667 0.7804);fill-opacity:0.5;"/>
<path d="M1076.11 452.159C1075.9 452.159 1075.74 452.102 1075.63 451.987C1075.53 451.872 1075.48 451.723 1075.48 451.541V450.729C1075.48 450.54 1075.49 450.374 1075.53 450.233C1075.57 450.091 1075.61 449.969 1075.66 449.867C1075.71 449.759 1075.77 449.668 1075.83 449.594C1075.89 449.513 1075.95 449.438 1076 449.371C1076.14 449.208 1076.23 449.076 1076.28 448.975C1076.33 448.874 1076.35 448.765 1076.35 448.651C1076.35 448.367 1076.22 448.16 1075.95 448.032C1075.7 447.897 1075.32 447.829 1074.83 447.829H1074.08V447.383H1074.83C1075.32 447.383 1075.7 447.319 1075.95 447.19C1076.22 447.055 1076.35 446.845 1076.35 446.562C1076.35 446.447 1076.33 446.338 1076.28 446.237C1076.23 446.136 1076.14 446.004 1076 445.841C1075.95 445.774 1075.89 445.703 1075.83 445.629C1075.77 445.547 1075.71 445.456 1075.66 445.355C1075.61 445.247 1075.57 445.121 1075.53 444.98C1075.49 444.838 1075.48 444.672 1075.48 444.483V443.671C1075.48 443.489 1075.53 443.34 1075.63 443.225C1075.74 443.11 1075.9 443.053 1076.11 443.053H1077.95V443.509H1075.98V444.452C1075.98 444.614 1075.99 444.753 1076.02 444.868C1076.04 444.983 1076.08 445.084 1076.12 445.172C1076.16 445.253 1076.2 445.328 1076.25 445.395C1076.3 445.463 1076.35 445.527 1076.4 445.588C1076.54 445.764 1076.64 445.926 1076.72 446.075C1076.81 446.223 1076.86 446.389 1076.86 446.572C1076.86 446.862 1076.75 447.096 1076.54 447.271C1076.33 447.447 1076.06 447.552 1075.71 447.586V447.626C1076.06 447.66 1076.33 447.765 1076.54 447.941C1076.75 448.116 1076.86 448.35 1076.86 448.64C1076.86 448.823 1076.81 448.989 1076.72 449.137C1076.64 449.286 1076.54 449.448 1076.4 449.624C1076.35 449.685 1076.3 449.749 1076.25 449.817C1076.2 449.884 1076.16 449.962 1076.12 450.05C1076.08 450.131 1076.04 450.229 1076.02 450.344C1075.99 450.459 1075.98 450.598 1075.98 450.76V451.703H1077.95V452.159H1076.11Z" fill="#5FDDC7" fill-opacity="0.5" style="fill:#5FDDC7;fill:color(display-p3 0.3725 0.8667 0.7804);fill-opacity:0.5;"/>
<path d="M538.028 5.94315H536.578V5.45639H538.12L538.393 3.91496H536.943V3.4282H538.474L538.88 1.14648H539.418L538.17 8.22486H537.633L538.028 5.94315ZM540.705 1.14648H541.243L540.847 3.4282H542.298V3.91496H540.756L540.482 5.45639H541.933V5.94315H540.401L539.996 8.22486H539.458L540.705 1.14648Z" fill="#5FDDC7" fill-opacity="0.5" style="fill:#5FDDC7;fill:color(display-p3 0.3725 0.8667 0.7804);fill-opacity:0.5;"/>
<path d="M532.809 8.33586C532.228 8.30881 531.754 8.18712 531.389 7.97078C531.031 7.75444 530.727 7.47726 530.477 7.13923L530.923 6.77415C531.166 7.08514 531.433 7.3319 531.724 7.51444C532.015 7.69022 532.376 7.79163 532.809 7.81867V4.85751L532.525 4.80681C532.173 4.74596 531.879 4.65469 531.643 4.533C531.413 4.41131 531.227 4.26596 531.085 4.09694C530.943 3.92793 530.842 3.74201 530.781 3.53919C530.727 3.32961 530.7 3.11327 530.7 2.89017C530.7 2.30876 530.886 1.86255 531.257 1.55156C531.636 1.23381 532.153 1.06142 532.809 1.03438V0H533.265V1.03438C533.759 1.06142 534.171 1.16959 534.503 1.35889C534.834 1.54142 535.114 1.79157 535.344 2.10932L534.888 2.44397C534.699 2.18706 534.475 1.98424 534.219 1.83551C533.968 1.68678 533.651 1.59551 533.265 1.56171V4.35047L533.57 4.40117C533.928 4.46202 534.225 4.55667 534.462 4.68512C534.699 4.80681 534.884 4.95216 535.02 5.12118C535.162 5.29019 535.26 5.47949 535.314 5.68907C535.375 5.89865 535.405 6.11499 535.405 6.33809C535.405 6.94655 535.216 7.42317 534.837 7.76796C534.465 8.106 533.941 8.29529 533.265 8.33586V9.37023H532.809V8.33586ZM531.288 2.89017C531.288 3.30933 531.41 3.6237 531.653 3.83328C531.896 4.0361 532.241 4.17807 532.687 4.2592L532.809 4.27948V1.55156C532.322 1.58537 531.947 1.71382 531.683 1.93692C531.42 2.15326 531.288 2.47101 531.288 2.89017ZM534.817 6.34823C534.817 5.90203 534.688 5.57752 534.432 5.3747C534.181 5.16512 533.823 5.02315 533.357 4.94878L533.265 4.9285V7.80853C533.759 7.77472 534.141 7.63613 534.411 7.39275C534.682 7.14261 534.817 6.79443 534.817 6.34823Z" fill="#5FDDC7" fill-opacity="0.5" style="fill:#5FDDC7;fill:color(display-p3 0.3725 0.8667 0.7804);fill-opacity:0.5;"/>
<path d="M525.167 4.5322C524.958 4.5322 524.762 4.4984 524.579 4.43079C524.403 4.35643 524.248 4.24826 524.113 4.10628C523.984 3.95755 523.883 3.77501 523.808 3.55867C523.734 3.33557 523.697 3.07529 523.697 2.77782C523.697 2.48035 523.734 2.22345 523.808 2.00711C523.883 1.78401 523.984 1.60147 524.113 1.4595C524.248 1.31076 524.403 1.20259 524.579 1.13499C524.762 1.06062 524.958 1.02344 525.167 1.02344C525.377 1.02344 525.57 1.06062 525.745 1.13499C525.921 1.20259 526.073 1.31076 526.202 1.4595C526.337 1.60147 526.442 1.78401 526.516 2.00711C526.59 2.22345 526.628 2.48035 526.628 2.77782C526.628 3.07529 526.59 3.33557 526.516 3.55867C526.442 3.77501 526.337 3.95755 526.202 4.10628C526.073 4.24826 525.921 4.35643 525.745 4.43079C525.57 4.4984 525.377 4.5322 525.167 4.5322ZM525.167 4.12657C525.431 4.12657 525.654 4.0353 525.837 3.85276C526.026 3.66346 526.12 3.37614 526.12 2.99078V2.56486C526.12 2.17951 526.026 1.89556 525.837 1.71302C525.654 1.52372 525.431 1.42908 525.167 1.42908C524.897 1.42908 524.667 1.52372 524.478 1.71302C524.295 1.89556 524.204 2.17951 524.204 2.56486V2.99078C524.204 3.37614 524.295 3.66346 524.478 3.85276C524.667 4.0353 524.897 4.12657 525.167 4.12657ZM528.767 1.14513H529.295L527.601 4.18741H527.074L528.767 1.14513ZM525.35 5.18122H525.877L524.184 8.22351H523.656L525.35 5.18122ZM527.804 8.3452C527.594 8.3452 527.398 8.30801 527.216 8.23365C527.033 8.16604 526.874 8.06125 526.739 7.91928C526.611 7.77054 526.509 7.58801 526.435 7.37167C526.361 7.14857 526.323 6.88828 526.323 6.59082C526.323 6.29335 526.361 6.03644 526.435 5.8201C526.509 5.597 526.611 5.41447 526.739 5.27249C526.874 5.12376 527.03 5.01559 527.206 4.94798C527.388 4.87362 527.584 4.83643 527.794 4.83643C528.003 4.83643 528.196 4.87362 528.372 4.94798C528.548 5.01559 528.7 5.12376 528.828 5.27249C528.963 5.41447 529.068 5.597 529.143 5.8201C529.217 6.03644 529.254 6.29335 529.254 6.59082C529.254 6.88828 529.217 7.14857 529.143 7.37167C529.068 7.58801 528.967 7.77054 528.838 7.91928C528.71 8.06125 528.558 8.16604 528.382 8.23365C528.206 8.30801 528.013 8.3452 527.804 8.3452ZM527.794 7.93956C528.057 7.93956 528.281 7.84829 528.463 7.66575C528.652 7.47646 528.747 7.18913 528.747 6.80377V6.37786C528.747 5.9925 528.652 5.70855 528.463 5.52602C528.281 5.33672 528.057 5.24207 527.794 5.24207C527.523 5.24207 527.293 5.33672 527.104 5.52602C526.922 5.70855 526.83 5.9925 526.83 6.37786V6.80377C526.83 7.18913 526.922 7.47646 527.104 7.66575C527.293 7.84829 527.523 7.93956 527.794 7.93956Z" fill="#5FDDC7" fill-opacity="0.5" style="fill:#5FDDC7;fill:color(display-p3 0.3725 0.8667 0.7804);fill-opacity:0.5;"/>
<path d="M522.005 5.17244L519.987 1.66367H519.956L517.949 5.17244L517.492 4.94934L519.662 1.14648H520.311L522.482 4.94934L522.005 5.17244Z" fill="#5FDDC7" fill-opacity="0.5" style="fill:#5FDDC7;fill:color(display-p3 0.3725 0.8667 0.7804);fill-opacity:0.5;"/>
<path d="M595.799 41C596.008 41 596.164 41.0575 596.265 41.1724C596.373 41.2873 596.428 41.4361 596.428 41.6186V42.4299C596.428 42.6192 596.407 42.7848 596.367 42.9268C596.333 43.0688 596.289 43.1938 596.235 43.302C596.188 43.4034 596.13 43.4947 596.062 43.5758C596.002 43.6502 595.948 43.7212 595.9 43.7888C595.765 43.951 595.674 44.0828 595.626 44.1843C595.579 44.2857 595.555 44.3938 595.555 44.5088C595.555 44.7927 595.684 45.0023 595.941 45.1375C596.204 45.266 596.583 45.3302 597.077 45.3302H597.827V45.7764H597.077C596.583 45.7764 596.204 45.844 595.941 45.9792C595.684 46.1077 595.555 46.3139 595.555 46.5978C595.555 46.7127 595.579 46.8209 595.626 46.9223C595.674 47.0237 595.765 47.1556 595.9 47.3178C595.948 47.3854 596.002 47.4598 596.062 47.5409C596.13 47.6153 596.188 47.7065 596.235 47.8147C596.289 47.9161 596.333 48.0378 596.367 48.1798C596.407 48.3218 596.428 48.4874 596.428 48.6767V49.488C596.428 49.6705 596.373 49.8192 596.265 49.9342C596.164 50.0491 596.008 50.1066 595.799 50.1066H593.953V49.6502H595.92V48.7071C595.92 48.5449 595.907 48.4063 595.88 48.2913C595.86 48.1764 595.829 48.0784 595.789 47.9973C595.748 47.9094 595.701 47.8316 595.647 47.764C595.599 47.6964 595.552 47.6322 595.505 47.5713C595.369 47.3956 595.258 47.2333 595.17 47.0846C595.089 46.9358 595.048 46.7702 595.048 46.5877C595.048 46.297 595.153 46.0637 595.363 45.8879C595.572 45.7122 595.849 45.6074 596.194 45.5736V45.533C595.849 45.4992 595.572 45.3944 595.363 45.2186C595.153 45.0429 595.048 44.8096 595.048 44.5189C595.048 44.3364 595.089 44.1707 595.17 44.022C595.258 43.8733 595.369 43.711 595.505 43.5352C595.552 43.4744 595.599 43.4102 595.647 43.3426C595.701 43.275 595.748 43.2006 595.789 43.1195C595.829 43.0316 595.86 42.9302 595.88 42.8152C595.907 42.7003 595.92 42.5617 595.92 42.3995V41.4563H593.953V41H595.799Z" fill="#5FDDC7" fill-opacity="0.5" style="fill:#5FDDC7;fill:color(display-p3 0.3725 0.8667 0.7804);fill-opacity:0.5;"/>
<path d="M589.995 41V50.1066H587.328V49.6502H589.498V41.4563H587.328V41H589.995Z" fill="#5FDDC7" fill-opacity="0.5" style="fill:#5FDDC7;fill:color(display-p3 0.3725 0.8667 0.7804);fill-opacity:0.5;"/>
<path d="M582.312 50.1066V41H584.98V41.4563H582.809V49.6502H584.98V50.1066H582.312Z" fill="#5FDDC7" fill-opacity="0.5" style="fill:#5FDDC7;fill:color(display-p3 0.3725 0.8667 0.7804);fill-opacity:0.5;"/>
<path d="M576.52 50.1066C576.311 50.1066 576.152 50.0491 576.044 49.9342C575.942 49.8192 575.892 49.6705 575.892 49.488V48.6767C575.892 48.4874 575.909 48.3218 575.942 48.1798C575.983 48.0378 576.027 47.9161 576.074 47.8147C576.128 47.7065 576.186 47.6153 576.247 47.5409C576.307 47.4598 576.365 47.3854 576.419 47.3178C576.554 47.1556 576.645 47.0237 576.693 46.9223C576.74 46.8209 576.764 46.7127 576.764 46.5978C576.764 46.3139 576.632 46.1077 576.368 45.9792C576.111 45.844 575.736 45.7764 575.243 45.7764H574.492V45.3302H575.243C575.736 45.3302 576.111 45.266 576.368 45.1375C576.632 45.0023 576.764 44.7927 576.764 44.5088C576.764 44.3938 576.74 44.2857 576.693 44.1843C576.645 44.0828 576.554 43.951 576.419 43.7888C576.365 43.7212 576.307 43.6502 576.247 43.5758C576.186 43.4947 576.128 43.4034 576.074 43.302C576.027 43.1938 575.983 43.0688 575.942 42.9268C575.909 42.7848 575.892 42.6192 575.892 42.4299V41.6186C575.892 41.4361 575.942 41.2873 576.044 41.1724C576.152 41.0575 576.311 41 576.52 41H578.366V41.4563H576.399V42.3995C576.399 42.5617 576.409 42.7003 576.429 42.8152C576.456 42.9302 576.49 43.0316 576.531 43.1195C576.571 43.2006 576.615 43.275 576.662 43.3426C576.716 43.4102 576.767 43.4744 576.814 43.5352C576.95 43.711 577.058 43.8733 577.139 44.022C577.227 44.1707 577.271 44.3364 577.271 44.5189C577.271 44.8096 577.166 45.0429 576.956 45.2186C576.747 45.3944 576.47 45.4992 576.125 45.533V45.5736C576.47 45.6074 576.747 45.7122 576.956 45.8879C577.166 46.0637 577.271 46.297 577.271 46.5877C577.271 46.7702 577.227 46.9358 577.139 47.0846C577.058 47.2333 576.95 47.3956 576.814 47.5713C576.767 47.6322 576.716 47.6964 576.662 47.764C576.615 47.8316 576.571 47.9094 576.531 47.9973C576.49 48.0784 576.456 48.1764 576.429 48.2913C576.409 48.4063 576.399 48.5449 576.399 48.7071V49.6502H578.366V50.1066H576.52Z" fill="#5FDDC7" fill-opacity="0.5" style="fill:#5FDDC7;fill:color(display-p3 0.3725 0.8667 0.7804);fill-opacity:0.5;"/>
<path d="M19.5459 303.854V302.201C20.1611 302.18 20.6411 302.042 20.9859 301.785C21.3307 301.521 21.5031 301.153 21.5031 300.679V300.487C21.5031 300.081 21.3747 299.767 21.1178 299.544C20.8609 299.321 20.5093 299.209 20.0631 299.209C19.6169 299.209 19.2586 299.324 18.9882 299.554C18.7245 299.784 18.5386 300.091 18.4304 300.477L17.8828 300.284C17.9504 300.054 18.0451 299.841 18.1668 299.645C18.2885 299.449 18.4406 299.28 18.6231 299.138C18.8056 298.996 19.0186 298.884 19.262 298.803C19.5054 298.722 19.7792 298.682 20.0834 298.682C20.7189 298.682 21.2192 298.851 21.5843 299.189C21.9493 299.527 22.1319 299.983 22.1319 300.558C22.1319 300.869 22.0778 301.143 21.9696 301.379C21.8682 301.616 21.7262 301.822 21.5437 301.998C21.3612 302.167 21.1482 302.305 20.9048 302.414C20.6614 302.515 20.4011 302.586 20.124 302.626V303.854H19.5459ZM19.8603 305.953C19.644 305.953 19.4885 305.909 19.3938 305.821C19.3059 305.733 19.262 305.618 19.262 305.476V305.334C19.262 305.199 19.3059 305.087 19.3938 304.999C19.4885 304.905 19.644 304.857 19.8603 304.857C20.0699 304.857 20.2186 304.905 20.3065 304.999C20.4011 305.087 20.4485 305.199 20.4485 305.334V305.476C20.4485 305.618 20.4011 305.733 20.3065 305.821C20.2186 305.909 20.0699 305.953 19.8603 305.953Z" fill="#5FDDC7" fill-opacity="0.5" style="fill:#5FDDC7;fill:color(display-p3 0.3725 0.8667 0.7804);fill-opacity:0.5;"/>
<path d="M13.0537 303.854V302.201C13.669 302.18 14.149 302.042 14.4938 301.785C14.8385 301.521 15.0109 301.153 15.0109 300.679V300.487C15.0109 300.081 14.8825 299.767 14.6256 299.544C14.3687 299.321 14.0171 299.209 13.5709 299.209C13.1247 299.209 12.7664 299.324 12.496 299.554C12.2323 299.784 12.0464 300.091 11.9382 300.477L11.3906 300.284C11.4582 300.054 11.5529 299.841 11.6746 299.645C11.7963 299.449 11.9484 299.28 12.1309 299.138C12.3135 298.996 12.5264 298.884 12.7698 298.803C13.0132 298.722 13.287 298.682 13.5912 298.682C14.2267 298.682 14.727 298.851 15.0921 299.189C15.4571 299.527 15.6397 299.983 15.6397 300.558C15.6397 300.869 15.5856 301.143 15.4774 301.379C15.376 301.616 15.234 301.822 15.0515 301.998C14.869 302.167 14.656 302.305 14.4126 302.414C14.1692 302.515 13.909 302.586 13.6318 302.626V303.854H13.0537ZM13.3681 305.953C13.1518 305.953 12.9963 305.909 12.9016 305.821C12.8137 305.733 12.7698 305.618 12.7698 305.476V305.334C12.7698 305.199 12.8137 305.087 12.9016 304.999C12.9963 304.905 13.1518 304.857 13.3681 304.857C13.5777 304.857 13.7264 304.905 13.8143 304.999C13.909 305.087 13.9563 305.199 13.9563 305.334V305.476C13.9563 305.618 13.909 305.733 13.8143 305.821C13.7264 305.909 13.5777 305.953 13.3681 305.953Z" fill="#5FDDC7" fill-opacity="0.5" style="fill:#5FDDC7;fill:color(display-p3 0.3725 0.8667 0.7804);fill-opacity:0.5;"/>
<path d="M6.95867 303.743L6.76599 301.178V298.805H7.39473V301.178L7.20205 303.743H6.95867ZM7.08036 305.954C6.86402 305.954 6.71191 305.91 6.62402 305.822C6.53613 305.734 6.49219 305.619 6.49219 305.477V305.335C6.49219 305.2 6.53613 305.089 6.62402 305.001C6.71191 304.906 6.86402 304.859 7.08036 304.859C7.2967 304.859 7.44882 304.906 7.53671 305.001C7.62459 305.089 7.66854 305.2 7.66854 305.335V305.477C7.66854 305.619 7.62459 305.734 7.53671 305.822C7.44882 305.91 7.2967 305.954 7.08036 305.954Z" fill="#5FDDC7" fill-opacity="0.5" style="fill:#5FDDC7;fill:color(display-p3 0.3725 0.8667 0.7804);fill-opacity:0.5;"/>
<path d="M0.466483 303.743L0.273805 301.178V298.805H0.902544V301.178L0.709866 303.743H0.466483ZM0.588175 305.954C0.371835 305.954 0.21972 305.91 0.131832 305.822C0.0439441 305.734 0 305.619 0 305.477V305.335C0 305.2 0.0439441 305.089 0.131832 305.001C0.21972 304.906 0.371835 304.859 0.588175 304.859C0.804515 304.859 0.956629 304.906 1.04452 305.001C1.13241 305.089 1.17635 305.2 1.17635 305.335V305.477C1.17635 305.619 1.13241 305.734 1.04452 305.822C0.956629 305.91 0.804515 305.954 0.588175 305.954Z" fill="#5FDDC7" fill-opacity="0.5" style="fill:#5FDDC7;fill:color(display-p3 0.3725 0.8667 0.7804);fill-opacity:0.5;"/>
<path d="M90.5361 439.625H89.0859V439.138H90.6274L90.9012 437.597H89.451V437.11H90.9823L91.3879 434.828H91.9254L90.6781 441.907H90.1406L90.5361 439.625ZM93.2133 434.828H93.7508L93.3553 437.11H94.8054V437.597H93.264L92.9902 439.138H94.4404V439.625H92.9091L92.5034 441.907H91.966L93.2133 434.828Z" fill="#5FDDC7" fill-opacity="0.5" style="fill:#5FDDC7;fill:color(display-p3 0.3725 0.8667 0.7804);fill-opacity:0.5;"/>
<path d="M85.3168 442.017C84.7354 441.99 84.2621 441.869 83.8971 441.652C83.5387 441.436 83.2345 441.159 82.9844 440.821L83.4306 440.456C83.674 440.767 83.941 441.014 84.2317 441.196C84.5224 441.372 84.8841 441.473 85.3168 441.5V438.539L85.0328 438.488C84.6813 438.428 84.3872 438.336 84.1506 438.215C83.9207 438.093 83.7348 437.948 83.5928 437.779C83.4509 437.61 83.3494 437.424 83.2886 437.221C83.2345 437.011 83.2075 436.795 83.2075 436.572C83.2075 435.99 83.3934 435.544 83.7652 435.233C84.1438 434.915 84.661 434.743 85.3168 434.716V433.682H85.7731V434.716C86.2667 434.743 86.6791 434.851 87.0103 435.041C87.3416 435.223 87.6222 435.473 87.852 435.791L87.3957 436.126C87.2064 435.869 86.9833 435.666 86.7264 435.517C86.4762 435.368 86.1585 435.277 85.7731 435.243V438.032L86.0774 438.083C86.4357 438.144 86.7331 438.238 86.9698 438.367C87.2064 438.488 87.3923 438.634 87.5275 438.803C87.6695 438.972 87.7675 439.161 87.8216 439.371C87.8825 439.58 87.9129 439.797 87.9129 440.02C87.9129 440.628 87.7236 441.105 87.345 441.45C86.9731 441.788 86.4492 441.977 85.7731 442.017V443.052H85.3168V442.017ZM83.7956 436.572C83.7956 436.991 83.9173 437.305 84.1607 437.515C84.4041 437.718 84.7489 437.86 85.1951 437.941L85.3168 437.961V435.233C84.83 435.267 84.4548 435.395 84.1911 435.619C83.9275 435.835 83.7956 436.153 83.7956 436.572ZM87.3247 440.03C87.3247 439.584 87.1962 439.259 86.9393 439.056C86.6892 438.847 86.3309 438.705 85.8644 438.63L85.7731 438.61V441.49C86.2667 441.456 86.6486 441.318 86.9191 441.074C87.1895 440.824 87.3247 440.476 87.3247 440.03Z" fill="#5FDDC7" fill-opacity="0.5" style="fill:#5FDDC7;fill:color(display-p3 0.3725 0.8667 0.7804);fill-opacity:0.5;"/>
<path d="M77.6751 438.214C77.4655 438.214 77.2694 438.18 77.0869 438.112C76.9111 438.038 76.7556 437.93 76.6204 437.788C76.492 437.639 76.3905 437.457 76.3162 437.24C76.2418 437.017 76.2046 436.757 76.2046 436.459C76.2046 436.162 76.2418 435.905 76.3162 435.689C76.3905 435.466 76.492 435.283 76.6204 435.141C76.7556 434.992 76.9111 434.884 77.0869 434.817C77.2694 434.742 77.4655 434.705 77.6751 434.705C77.8846 434.705 78.0773 434.742 78.2531 434.817C78.4289 434.884 78.581 434.992 78.7094 435.141C78.8447 435.283 78.9494 435.466 79.0238 435.689C79.0982 435.905 79.1354 436.162 79.1354 436.459C79.1354 436.757 79.0982 437.017 79.0238 437.24C78.9494 437.457 78.8447 437.639 78.7094 437.788C78.581 437.93 78.4289 438.038 78.2531 438.112C78.0773 438.18 77.8846 438.214 77.6751 438.214ZM77.6751 437.808C77.9387 437.808 78.1618 437.717 78.3444 437.534C78.5337 437.345 78.6283 437.058 78.6283 436.672V436.247C78.6283 435.861 78.5337 435.577 78.3444 435.395C78.1618 435.205 77.9387 435.111 77.6751 435.111C77.4046 435.111 77.1748 435.205 76.9855 435.395C76.8029 435.577 76.7117 435.861 76.7117 436.247V436.672C76.7117 437.058 76.8029 437.345 76.9855 437.534C77.1748 437.717 77.4046 437.808 77.6751 437.808ZM81.2751 434.827H81.8024L80.1089 437.869H79.5816L81.2751 434.827ZM77.8576 438.863H78.3849L76.6914 441.905H76.1641L77.8576 438.863ZM80.3117 442.027C80.1021 442.027 79.9061 441.99 79.7235 441.915C79.541 441.848 79.3821 441.743 79.2469 441.601C79.1185 441.452 79.017 441.27 78.9427 441.053C78.8683 440.83 78.8311 440.57 78.8311 440.272C78.8311 439.975 78.8683 439.718 78.9427 439.502C79.017 439.279 79.1185 439.096 79.2469 438.954C79.3821 438.805 79.5376 438.697 79.7134 438.63C79.8959 438.555 80.092 438.518 80.3016 438.518C80.5111 438.518 80.7038 438.555 80.8796 438.63C81.0554 438.697 81.2075 438.805 81.3359 438.954C81.4712 439.096 81.5759 439.279 81.6503 439.502C81.7247 439.718 81.7619 439.975 81.7619 440.272C81.7619 440.57 81.7247 440.83 81.6503 441.053C81.5759 441.27 81.4745 441.452 81.3461 441.601C81.2176 441.743 81.0655 441.848 80.8897 441.915C80.714 441.99 80.5213 442.027 80.3117 442.027ZM80.3016 441.621C80.5652 441.621 80.7883 441.53 80.9709 441.347C81.1602 441.158 81.2548 440.871 81.2548 440.485V440.059C81.2548 439.674 81.1602 439.39 80.9709 439.208C80.7883 439.018 80.5652 438.924 80.3016 438.924C80.0311 438.924 79.8013 439.018 79.612 439.208C79.4294 439.39 79.3382 439.674 79.3382 440.059V440.485C79.3382 440.871 79.4294 441.158 79.612 441.347C79.8013 441.53 80.0311 441.621 80.3016 441.621Z" fill="#5FDDC7" fill-opacity="0.5" style="fill:#5FDDC7;fill:color(display-p3 0.3725 0.8667 0.7804);fill-opacity:0.5;"/>
<path d="M74.5127 438.854L72.4947 435.345H72.4642L70.4563 438.854L70 438.631L72.1702 434.828H72.8192L74.9893 438.631L74.5127 438.854Z" fill="#5FDDC7" fill-opacity="0.5" style="fill:#5FDDC7;fill:color(display-p3 0.3725 0.8667 0.7804);fill-opacity:0.5;"/>
</svg>
