<svg width="20" height="20" viewBox="0 0 20 20" fill="none" xmlns="http://www.w3.org/2000/svg">
<path d="M3.24219 5.16211C3.24219 3.27649 3.24219 2.33368 3.82797 1.7479C4.41376 1.16211 5.35657 1.16211 7.24219 1.16211H10.1702C11.272 1.16211 11.8229 1.16211 12.3184 1.367C12.8139 1.57188 13.2039 1.96093 13.9839 2.73901L15.1726 3.9248C15.9553 4.70555 16.3466 5.09592 16.5528 5.59278C16.759 6.08963 16.759 6.64239 16.759 7.7479V14.8379C16.759 16.7235 16.759 17.6663 16.1732 18.2521C15.5874 18.8379 14.6446 18.8379 12.759 18.8379H7.24218C5.35657 18.8379 4.41376 18.8379 3.82797 18.2521C3.24219 17.6663 3.24219 16.7235 3.24219 14.8379V5.16211Z" fill="#5FDDC7" style="fill:#5FDDC7;fill:color(display-p3 0.3742 0.8651 0.7816);fill-opacity:1;"/>
</svg>
