<svg width="20" height="20" viewBox="0 0 20 20" fill="none" xmlns="http://www.w3.org/2000/svg">
<g clip-path="url(#clip0_4022_2420)">
<path d="M6.96741 2.21567L4.187 8.73764C3.65072 9.99558 3.38259 10.6245 3.67908 11.0733C3.97557 11.522 4.65931 11.522 6.02679 11.522H8.78137C9.30771 11.522 9.57088 11.522 9.69014 11.6948C9.80939 11.8676 9.71605 12.1136 9.52936 12.6057L8.2517 15.9736C7.5024 17.9488 7.12775 18.9364 7.52936 19.2008C7.93098 19.4652 8.69004 18.7307 10.2082 17.2616L16.4479 11.2235L16.4479 11.2235C17.9549 9.76527 18.7084 9.03613 18.4556 8.41121C18.2027 7.7863 17.1542 7.7863 15.0571 7.7863H13.4642C12.9205 7.7863 12.6487 7.7863 12.53 7.60789C12.4113 7.42948 12.5163 7.17877 12.7262 6.67733L13.9425 3.7724C14.4673 2.51882 14.7298 1.89203 14.433 1.44602C14.1362 1 13.4567 1 12.0976 1H8.8072C8.16633 1 7.8459 1 7.59515 1.16568C7.3444 1.33137 7.21874 1.62614 6.96741 2.21567Z" fill="#5FDDC7" style="fill:#5FDDC7;fill:color(display-p3 0.3742 0.8651 0.7816);fill-opacity:1;"/>
</g>
<defs>
<clipPath id="clip0_4022_2420">
<rect width="20" height="20" fill="white" style="fill:white;fill-opacity:1;"/>
</clipPath>
</defs>
</svg>
