<svg width="20" height="20" viewBox="0 0 20 20" fill="none" xmlns="http://www.w3.org/2000/svg">
<path d="M2.40181 4.14023C2.63635 3.33608 3.23171 2.67688 4.01063 2.36873C7.85735 0.846956 12.1392 0.846956 15.9859 2.36873C16.7648 2.67688 17.3602 3.33608 17.5947 4.14022C17.7057 4.52059 17.4283 3.56967 17.4325 3.58415C18.2528 6.41846 17.8246 11.3141 16.5247 13.9629C16.5181 13.9765 17.4926 12.0009 17.1028 12.7911C15.4965 16.0473 12.9406 20 9.99826 20C7.0559 20 4.50003 16.0473 2.89371 12.7911C2.50388 12.0009 3.47845 13.9765 3.47181 13.9629C2.17196 11.3141 1.74377 6.41846 2.56403 3.58415C2.56822 3.56967 2.29087 4.52059 2.40181 4.14023Z" fill="#5FDDC7" style="fill:#5FDDC7;fill:color(display-p3 0.3742 0.8651 0.7816);fill-opacity:1;"/>
</svg>
